Athinkra-Sheek-Bakrii-Saphaloo.ufo
<glyph name="dollar" format="2">
  <advance width="1005"/>
  <unicode hex="0024"/>
  <outline>
    <contour>
      <point x="919.746" y="368.958" type="line"/>
      <point x="919.746" y="200.367"/>
      <point x="710.553" y="-17.6535"/>
      <point x="543.727" y="-25.5975" type="qcurve"/>
      <point x="543.727" y="-186.244" type="line"/>
      <point x="450.164" y="-186.244" type="line"/>
      <point x="450.164" y="-27.3629" type="line"/>
      <point x="334.533" y="-12.3574"/>
      <point x="265.685" y="22.0669" type="qcurve" smooth="yes"/>
      <point x="182.714" y="63.5525"/>
      <point x="74.1446" y="234.791"/>
      <point x="65.3179" y="360.131" type="qcurve"/>
      <point x="224.199" y="388.377" type="line"/>
      <point x="262.154" y="126.222"/>
      <point x="450.164" y="106.804" type="qcurve"/>
      <point x="450.164" y="612.576" type="line"/>
      <point x="352.187" y="631.112"/>
      <point x="249.797" y="688.486" type="qcurve" smooth="yes"/>
      <point x="91.7981" y="777.636"/>
      <point x="91.7981" y="976.237" type="qcurve" smooth="yes"/>
      <point x="91.7981" y="1145.71"/>
      <point x="211.842" y="1250.75" type="qcurve" smooth="yes"/>
      <point x="293.048" y="1321.36"/>
      <point x="450.164" y="1338.13" type="qcurve"/>
      <point x="450.164" y="1414.04" type="line"/>
      <point x="543.727" y="1414.04" type="line"/>
      <point x="543.727" y="1338.13" type="line"/>
      <point x="848.25" y="1309.01"/>
      <point x="889.735" y="1017.72" type="qcurve"/>
      <point x="724.675" y="993.891" type="line"/>
      <point x="698.195" y="1171.31"/>
      <point x="543.727" y="1203.97" type="qcurve"/>
      <point x="543.727" y="744.977" type="line"/>
      <point x="665.536" y="714.083"/>
      <point x="703.491" y="698.195" type="qcurve" smooth="yes"/>
      <point x="845.602" y="636.408"/>
      <point x="895.031" y="507.538" type="qcurve" smooth="yes"/>
      <point x="919.746" y="443.102"/>
      <point x="919.746" y="368.958" type="qcurve"/>
    </contour>
    <contour>
      <point x="450.164" y="764.396" type="line"/>
      <point x="450.164" y="1205.73" type="line"/>
      <point x="361.896" y="1191.61"/>
      <point x="251.562" y="1075.98"/>
      <point x="251.562" y="988.595" type="qcurve" smooth="yes"/>
      <point x="251.562" y="826.183"/>
      <point x="450.164" y="764.396" type="qcurve"/>
    </contour>
    <contour>
      <point x="757.334" y="358.366" type="line"/>
      <point x="757.334" y="457.225"/>
      <point x="698.195" y="513.716" type="qcurve"/>
      <point x="652.296" y="555.202"/>
      <point x="543.727" y="591.392" type="qcurve"/>
      <point x="543.727" y="106.804" type="line"/>
      <point x="639.939" y="119.161"/>
      <point x="757.334" y="258.623"/>
      <point x="757.334" y="358.366" type="qcurve"/>
    </contour>
  </outline>
</glyph>
<glyph name="percent" format="2">
  <advance width="1607"/>
  <unicode hex="0025"/>
  <outline>
    <contour>
      <point x="1497.02" y="294.813" type="line"/>
      <point x="1497.02" y="151.82"/>
      <point x="1428.17" y="58.2565" type="qcurve" smooth="yes"/>
      <point x="1352.26" y="-46.7817"/>
      <point x="1214.56" y="-46.7817" type="qcurve" smooth="yes"/>
      <point x="1075.98" y="-46.7817"/>
      <point x="1003.6" y="63.5525" type="qcurve" smooth="yes"/>
      <point x="941.813" y="155.351"/>
      <point x="941.813" y="303.64" type="qcurve" smooth="yes"/>
      <point x="941.813" y="443.102"/>
      <point x="1007.13" y="533.135" type="qcurve" smooth="yes"/>
      <point x="1081.28" y="636.408"/>
      <point x="1214.56" y="636.408" type="qcurve" smooth="yes"/>
      <point x="1355.79" y="636.408"/>
      <point x="1429.93" y="531.37" type="qcurve"/>
      <point x="1497.02" y="441.337"/>
      <point x="1497.02" y="294.813" type="qcurve"/>
    </contour>
    <contour>
      <point x="1218.09" y="1316.07" type="line"/>
      <point x="513.716" y="-46.7817" type="line"/>
      <point x="381.315" y="-46.7817" type="line"/>
      <point x="1090.1" y="1316.07" type="line"/>
    </contour>
    <contour>
      <point x="657.592" y="974.472" type="line"/>
      <point x="657.592" y="831.479"/>
      <point x="591.392" y="737.915" type="qcurve" smooth="yes"/>
      <point x="515.482" y="632.877"/>
      <point x="377.784" y="632.877" type="qcurve" smooth="yes"/>
      <point x="238.322" y="632.877"/>
      <point x="165.943" y="741.446" type="qcurve" smooth="yes"/>
      <point x="105.038" y="835.01"/>
      <point x="105.038" y="983.299" type="qcurve" smooth="yes"/>
      <point x="105.038" y="1122.76"/>
      <point x="170.356" y="1212.79" type="qcurve" smooth="yes"/>
      <point x="243.618" y="1316.07"/>
      <point x="376.019" y="1316.07" type="qcurve" smooth="yes"/>
      <point x="517.247" y="1316.07"/>
      <point x="593.157" y="1211.03" type="qcurve" smooth="yes"/>
      <point x="657.592" y="1121"/>
      <point x="657.592" y="974.472" type="qcurve"/>
    </contour>
    <contour>
      <point x="1357.55" y="300.109" type="line"/>
      <point x="1357.55" y="527.839"/>
      <point x="1218.09" y="527.839" type="qcurve" smooth="yes"/>
      <point x="1081.28" y="527.839"/>
      <point x="1081.28" y="287.752" type="qcurve" smooth="yes"/>
      <point x="1081.28" y="61.7872"/>
      <point x="1218.09" y="61.7872" type="qcurve" smooth="yes"/>
      <point x="1357.55" y="61.7872"/>
      <point x="1357.55" y="300.109" type="qcurve"/>
    </contour>
    <contour>
      <point x="520.778" y="979.768" type="line"/>
      <point x="520.778" y="1205.73"/>
      <point x="381.315" y="1205.73" type="qcurve" smooth="yes"/>
      <point x="243.618" y="1205.73"/>
      <point x="243.618" y="967.411" type="qcurve" smooth="yes"/>
      <point x="243.618" y="741.446"/>
      <point x="381.315" y="741.446" type="qcurve" smooth="yes"/>
      <point x="520.778" y="741.446"/>
      <point x="520.778" y="979.768" type="qcurve"/>
    </contour>
  </outline>
</glyph>
<glyph name="parenleft" format="2">
  <advance width="602"/>
  <unicode hex="0028"/>
  <outline>
    <contour>
      <point x="536.666" y="-379.55" type="line"/>
      <point x="422.801" y="-379.55" type="line"/>
      <point x="110.334" y="14.1228"/>
      <point x="110.334" y="467.817" type="qcurve" smooth="yes"/>
      <point x="110.334" y="898.562"/>
      <point x="422.801" y="1316.07" type="qcurve"/>
      <point x="536.666" y="1316.07" type="line"/>
      <point x="429.862" y="1133.35"/>
      <point x="396.321" y="1053.91" type="qcurve" smooth="yes"/>
      <point x="272.746" y="775.87"/>
      <point x="272.746" y="467.817" type="qcurve" smooth="yes"/>
      <point x="272.746" y="43.251"/>
      <point x="536.666" y="-379.55" type="qcurve"/>
    </contour>
  </outline>
</glyph>
<glyph name="parenright" format="2">
  <advance width="602"/>
  <unicode hex="0029"/>
  <outline>
    <contour>
      <point x="536.666" y="467.817" type="line"/>
      <point x="536.666" y="17.6535"/>
      <point x="224.199" y="-379.55" type="qcurve"/>
      <point x="110.334" y="-379.55" type="line"/>
      <point x="374.254" y="43.251"/>
      <point x="374.254" y="467.817" type="qcurve" smooth="yes"/>
      <point x="374.254" y="774.105"/>
      <point x="251.562" y="1052.15" type="qcurve" smooth="yes"/>
      <point x="215.372" y="1133.35"/>
      <point x="110.334" y="1316.07" type="qcurve"/>
      <point x="224.199" y="1316.07" type="line"/>
      <point x="536.666" y="898.562"/>
      <point x="536.666" y="467.817" type="qcurve"/>
    </contour>
  </outline>
</glyph>
<glyph name="plus" format="2">
  <advance width="1056"/>
  <unicode hex="002B"/>
  <outline>
    <contour>
      <point x="954.171" y="564.029" type="line"/>
      <point x="601.984" y="564.029" type="line"/>
      <point x="601.984" y="210.076" type="line"/>
      <point x="451.929" y="210.076" type="line"/>
      <point x="451.929" y="564.029" type="line"/>
      <point x="101.508" y="564.029" type="line"/>
      <point x="101.508" y="712.318" type="line"/>
      <point x="451.929" y="712.318" type="line"/>
      <point x="451.929" y="1064.5" type="line"/>
      <point x="601.984" y="1064.5" type="line"/>
      <point x="601.984" y="712.318" type="line"/>
      <point x="954.171" y="712.318" type="line"/>
    </contour>
  </outline>
</glyph>
<glyph name="zero" format="2">
  <advance width="1005"/>
  <unicode hex="0030"/>
  <outline>
    <contour>
      <point x="917.981" y="638.173" type="line"/>
      <point x="917.981" y="208.311"/>
      <point x="731.737" y="53.8431" type="qcurve" smooth="yes"/>
      <point x="639.939" y="-22.0669"/>
      <point x="496.945" y="-22.0669" type="qcurve" smooth="yes"/>
      <point x="75.91" y="-22.0669"/>
      <point x="75.91" y="638.173" type="qcurve" smooth="yes"/>
      <point x="75.91" y="1069.8"/>
      <point x="262.154" y="1224.27" type="qcurve" smooth="yes"/>
      <point x="355.718" y="1300.18"/>
      <point x="496.945" y="1300.18" type="qcurve" smooth="yes"/>
      <point x="703.491" y="1300.18"/>
      <point x="810.295" y="1136.88" type="qcurve" smooth="yes"/>
      <point x="917.981" y="967.411"/>
      <point x="917.981" y="638.173" type="qcurve"/>
    </contour>
    <contour>
      <point x="755.569" y="638.173" type="line"/>
      <point x="755.569" y="853.546"/>
      <point x="721.145" y="969.176" type="qcurve" smooth="yes"/>
      <point x="662.006" y="1167.78"/>
      <point x="495.18" y="1167.78" type="qcurve" smooth="yes"/>
      <point x="332.768" y="1167.78"/>
      <point x="272.746" y="969.176" type="qcurve" smooth="yes"/>
      <point x="238.322" y="851.78"/>
      <point x="238.322" y="638.173" type="qcurve" smooth="yes"/>
      <point x="238.322" y="424.566"/>
      <point x="272.746" y="308.936" type="qcurve" smooth="yes"/>
      <point x="332.768" y="108.569"/>
      <point x="496.945" y="108.569" type="qcurve" smooth="yes"/>
      <point x="755.569" y="108.569"/>
      <point x="755.569" y="638.173" type="qcurve"/>
    </contour>
  </outline>
</glyph>
<glyph name="one" format="2">
  <advance width="1005"/>
  <unicode hex="0031"/>
  <outline>
    <contour>
      <point x="674.363" y="0" type="line"/>
      <point x="515.482" y="0" type="line"/>
      <point x="515.482" y="1012.43" type="line"/>
      <point x="386.611" y="891.501"/>
      <point x="196.836" y="820.887" type="qcurve"/>
      <point x="196.836" y="974.472" type="line"/>
      <point x="475.761" y="1104.23"/>
      <point x="571.09" y="1300.18" type="qcurve"/>
      <point x="674.363" y="1300.18" type="line"/>
    </contour>
  </outline>
</glyph>
<glyph name="two" format="2">
  <advance width="1005"/>
  <unicode hex="0032"/>
  <outline>
    <contour>
      <point x="909.154" y="0" type="line"/>
      <point x="53.8431" y="0" type="line"/>
      <point x="50.3124" y="132.401"/>
      <point x="177.418" y="281.573" type="qcurve" smooth="yes"/>
      <point x="249.797" y="367.192"/>
      <point x="384.846" y="479.292" type="qcurve" smooth="yes"/>
      <point x="545.493" y="609.045"/>
      <point x="610.81" y="681.424" type="qcurve" smooth="yes"/>
      <point x="744.977" y="826.183"/>
      <point x="744.977" y="943.578" type="qcurve" smooth="yes"/>
      <point x="744.977" y="1045.09"/>
      <point x="603.749" y="1167.78"/>
      <point x="500.476" y="1167.78" type="qcurve" smooth="yes"/>
      <point x="383.081" y="1167.78"/>
      <point x="249.797" y="1026.55"/>
      <point x="248.031" y="907.389" type="qcurve"/>
      <point x="84.7368" y="925.925" type="line"/>
      <point x="101.508" y="1107.76"/>
      <point x="319.528" y="1300.18"/>
      <point x="504.007" y="1300.18" type="qcurve" smooth="yes"/>
      <point x="676.128" y="1300.18"/>
      <point x="788.228" y="1207.5" type="qcurve" smooth="yes"/>
      <point x="907.389" y="1107.76"/>
      <point x="907.389" y="940.048" type="qcurve" smooth="yes"/>
      <point x="907.389" y="784.697"/>
      <point x="771.457" y="629.347" type="qcurve" smooth="yes"/>
      <point x="695.547" y="543.727"/>
      <point x="526.074" y="401.617" type="qcurve" smooth="yes"/>
      <point x="406.913" y="301.875"/>
      <point x="390.142" y="287.752" type="qcurve"/>
      <point x="312.467" y="215.372"/>
      <point x="274.512" y="151.82" type="qcurve"/>
      <point x="909.154" y="151.82" type="line"/>
    </contour>
  </outline>
</glyph>
<glyph name="three" format="2">
  <advance width="1005"/>
  <unicode hex="0033"/>
  <outline>
    <contour>
      <point x="924.16" y="381.315" type="line"/>
      <point x="924.16" y="203.898"/>
      <point x="669.067" y="-23.8322"/>
      <point x="488.119" y="-23.8322" type="qcurve" smooth="yes"/>
      <point x="319.528" y="-23.8322"/>
      <point x="91.7981" y="175.652"/>
      <point x="75.91" y="341.595" type="qcurve"/>
      <point x="234.791" y="363.662" type="line"/>
      <point x="285.986" y="108.569"/>
      <point x="488.119" y="108.569" type="qcurve" smooth="yes"/>
      <point x="601.984" y="108.569"/>
      <point x="753.804" y="263.92"/>
      <point x="753.804" y="377.784" type="qcurve" smooth="yes"/>
      <point x="753.804" y="489.884"/>
      <point x="610.81" y="631.112"/>
      <point x="500.476" y="631.112" type="qcurve" smooth="yes"/>
      <point x="455.46" y="631.112"/>
      <point x="388.377" y="612.576" type="qcurve"/>
      <point x="406.913" y="752.038" type="line"/>
      <point x="422.801" y="750.273"/>
      <point x="431.628" y="750.273" type="qcurve" smooth="yes"/>
      <point x="541.962" y="750.273"/>
      <point x="614.341" y="802.351" type="qcurve" smooth="yes"/>
      <point x="695.547" y="860.607"/>
      <point x="695.547" y="967.411" type="qcurve" smooth="yes"/>
      <point x="695.547" y="1057.44"/>
      <point x="576.386" y="1167.78"/>
      <point x="484.588" y="1167.78" type="qcurve" smooth="yes"/>
      <point x="285.986" y="1167.78"/>
      <point x="251.562" y="936.517" type="qcurve"/>
      <point x="91.7981" y="963.88" type="line"/>
      <point x="120.926" y="1121"/>
      <point x="323.941" y="1300.18"/>
      <point x="481.057" y="1300.18" type="qcurve" smooth="yes"/>
      <point x="581.682" y="1300.18"/>
      <point x="669.067" y="1257.81" type="qcurve" smooth="yes"/>
      <point x="762.63" y="1211.03"/>
      <point x="860.607" y="1052.15"/>
      <point x="860.607" y="963.88" type="qcurve" smooth="yes"/>
      <point x="860.607" y="782.932"/>
      <point x="681.424" y="701.726" type="qcurve"/>
      <point x="798.82" y="674.363"/>
      <point x="924.16" y="504.007"/>
      <point x="924.16" y="381.315" type="qcurve"/>
    </contour>
  </outline>
</glyph>
<glyph name="four" format="2">
  <advance width="1005"/>
  <unicode hex="0034"/>
  <outline>
    <contour>
      <point x="917.981" y="308.936" type="line"/>
      <point x="743.212" y="308.936" type="line"/>
      <point x="743.212" y="0" type="line"/>
      <point x="584.33" y="0" type="line"/>
      <point x="584.33" y="308.936" type="line"/>
      <point x="23.8322" y="308.936" type="line"/>
      <point x="23.8322" y="455.46" type="line"/>
      <point x="612.576" y="1294" type="line"/>
      <point x="743.211" y="1294" type="line"/>
      <point x="743.211" y="455.46" type="line"/>
      <point x="917.981" y="455.46" type="line"/>
    </contour>
    <contour>
      <point x="584.33" y="455.46" type="line"/>
      <point x="584.33" y="1039.79" type="line"/>
      <point x="179.183" y="455.46" type="line"/>
    </contour>
  </outline>
</glyph>
<glyph name="seven" format="2">
  <advance width="1005"/>
  <unicode hex="0037"/>
  <outline>
    <contour>
      <point x="924.16" y="1153.65" type="line"/>
      <point x="784.697" y="1005.37"/>
      <point x="663.771" y="779.401" type="qcurve" smooth="yes"/>
      <point x="551.671" y="567.559"/>
      <point x="489.884" y="355.718" type="qcurve" smooth="yes"/>
      <point x="443.102" y="189.775"/>
      <point x="429.862" y="0" type="qcurve"/>
      <point x="265.685" y="0" type="line"/>
      <point x="269.216" y="182.714"/>
      <point x="336.299" y="405.147" type="qcurve" smooth="yes"/>
      <point x="398.086" y="609.045"/>
      <point x="491.649" y="786.463" type="qcurve" smooth="yes"/>
      <point x="598.453" y="986.83"/>
      <point x="719.379" y="1124.53" type="qcurve"/>
      <point x="84.7367" y="1124.53" type="line"/>
      <point x="84.7367" y="1278.11" type="line"/>
      <point x="924.16" y="1278.11" type="line"/>
    </contour>
  </outline>
</glyph>
<glyph name="eight" format="2">
  <advance width="1005"/>
  <unicode hex="0038"/>
  <outline>
    <contour>
      <point x="925.925" y="370.723" type="qcurve" smooth="yes"/>
      <point x="925.925" y="191.54"/>
      <point x="679.659" y="-22.067"/>
      <point x="498.711" y="-22.067" type="qcurve"/>
      <point x="316.409" y="-23.6054"/>
      <point x="196.836" y="82.971" type="qcurve" smooth="yes"/>
      <point x="72.7722" y="193.55"/>
      <point x="74.145" y="374.254" type="qcurve"/>
      <point x="74.145" y="638.173"/>
      <point x="319.528" y="701.726" type="qcurve"/>
      <point x="124.457" y="774.105"/>
      <point x="124.457" y="965.645" type="qcurve"/>
      <point x="125.622" y="1117.83"/>
      <point x="236.557" y="1211.03" type="qcurve" smooth="yes"/>
      <point x="341.013" y="1298.79"/>
      <point x="496.945" y="1300.18" type="qcurve" smooth="yes"/>
      <point x="652.87" y="1298.78"/>
      <point x="759.1" y="1209.26" type="qcurve" smooth="yes"/>
      <point x="871.792" y="1114.29"/>
      <point x="872.965" y="962.115" type="qcurve"/>
      <point x="872.965" y="774.105"/>
      <point x="681.424" y="701.726" type="qcurve"/>
      <point x="925.925" y="622.285"/>
    </contour>
    <contour>
      <point x="710.553" y="962.115" type="qcurve" smooth="yes"/>
      <point x="710.553" y="1050.38"/>
      <point x="587.861" y="1167.78"/>
      <point x="498.711" y="1167.78" type="qcurve" smooth="yes"/>
      <point x="412.209" y="1167.78"/>
      <point x="287.752" y="1057.44"/>
      <point x="287.752" y="970.941" type="qcurve" smooth="yes"/>
      <point x="287.752" y="876.495"/>
      <point x="406.913" y="762.63"/>
      <point x="500.476" y="762.63" type="qcurve" smooth="yes"/>
      <point x="589.626" y="762.63"/>
      <point x="710.553" y="874.73"/>
    </contour>
    <contour>
      <point x="762.63" y="368.958" type="qcurve" smooth="yes"/>
      <point x="762.63" y="482.823"/>
      <point x="610.81" y="632.877"/>
      <point x="495.18" y="632.877" type="qcurve" smooth="yes"/>
      <point x="383.08" y="632.877"/>
      <point x="236.557" y="486.353"/>
      <point x="236.557" y="374.254" type="qcurve" smooth="yes"/>
      <point x="236.557" y="213.607"/>
      <point x="365.427" y="142.993" type="qcurve" smooth="yes"/>
      <point x="428.097" y="108.569"/>
      <point x="500.476" y="108.569" type="qcurve" smooth="yes"/>
      <point x="614.341" y="108.569"/>
      <point x="762.63" y="255.093"/>
    </contour>
  </outline>
</glyph>
<glyph name="nine" format="2">
  <advance width="1005"/>
  <unicode hex="0039"/>
  <outline>
    <contour>
      <point x="925.925" y="674.363" type="line"/>
      <point x="925.925" y="210.076"/>
      <point x="712.318" y="53.8431" type="qcurve" smooth="yes"/>
      <point x="605.514" y="-22.0669"/>
      <point x="462.521" y="-22.0669" type="qcurve" smooth="yes"/>
      <point x="308.936" y="-22.0669"/>
      <point x="117.396" y="146.524"/>
      <point x="99.7422" y="300.109" type="qcurve"/>
      <point x="251.562" y="312.467" type="line"/>
      <point x="289.517" y="108.569"/>
      <point x="466.052" y="108.569" type="qcurve" smooth="yes"/>
      <point x="607.28" y="108.569"/>
      <point x="684.955" y="231.261" type="qcurve" smooth="yes"/>
      <point x="767.926" y="363.662"/>
      <point x="767.926" y="576.386" type="qcurve" smooth="yes"/>
      <point x="767.926" y="587.861"/>
      <point x="766.161" y="609.045" type="qcurve"/>
      <point x="717.614" y="529.604"/>
      <point x="551.671" y="439.572"/>
      <point x="457.225" y="439.572" type="qcurve" smooth="yes"/>
      <point x="284.221" y="439.572"/>
      <point x="177.418" y="565.794" type="qcurve" smooth="yes"/>
      <point x="75.91" y="684.955"/>
      <point x="75.91" y="862.372" type="qcurve" smooth="yes"/>
      <point x="75.91" y="1050.38"/>
      <point x="184.479" y="1171.31" type="qcurve" smooth="yes"/>
      <point x="296.579" y="1300.18"/>
      <point x="482.823" y="1300.18" type="qcurve" smooth="yes"/>
      <point x="612.576" y="1300.18"/>
      <point x="819.122" y="1158.95"/>
      <point x="871.199" y="1038.02" type="qcurve" smooth="yes"/>
      <point x="925.925" y="910.92"/>
      <point x="925.925" y="674.363" type="qcurve"/>
    </contour>
    <contour>
      <point x="750.273" y="869.434" type="line"/>
      <point x="750.273" y="990.36"/>
      <point x="686.72" y="1075.98" type="qcurve" smooth="yes"/>
      <point x="617.872" y="1167.78"/>
      <point x="500.476" y="1167.78" type="qcurve" smooth="yes"/>
      <point x="381.315" y="1167.78"/>
      <point x="307.171" y="1069.8" type="qcurve" smooth="yes"/>
      <point x="238.322" y="979.768"/>
      <point x="238.322" y="857.076" type="qcurve" smooth="yes"/>
      <point x="238.322" y="739.681"/>
      <point x="307.171" y="662.006" type="qcurve" smooth="yes"/>
      <point x="381.315" y="578.151"/>
      <point x="496.945" y="578.151" type="qcurve" smooth="yes"/>
      <point x="617.872" y="578.151"/>
      <point x="686.72" y="665.536" type="qcurve" smooth="yes"/>
      <point x="750.273" y="744.977"/>
      <point x="750.273" y="869.434" type="qcurve"/>
    </contour>
  </outline>
</glyph>
<glyph name="less" format="2">
  <advance width="1056"/>
  <unicode hex="003C"/>
  <outline>
    <contour>
      <point x="955.936" y="198.602" type="line"/>
      <point x="99.7421" y="565.794" type="line"/>
      <point x="99.7421" y="714.083" type="line"/>
      <point x="955.936" y="1075.98" type="line"/>
      <point x="955.936" y="917.981" type="line"/>
      <point x="276.277" y="639.939" type="line"/>
      <point x="955.936" y="358.366" type="line"/>
    </contour>
  </outline>
</glyph>
<glyph name="question" format="2">
  <advance width="1005"/>
  <unicode hex="003F"/>
  <outline>
    <contour>
      <point x="914.45" y="963.88" type="line"/>
      <point x="914.45" y="864.138"/>
      <point x="855.311" y="777.636" type="qcurve" smooth="yes"/>
      <point x="815.591" y="717.614"/>
      <point x="719.379" y="632.877" type="qcurve" smooth="yes"/>
      <point x="657.592" y="578.151"/>
      <point x="636.408" y="555.202" type="qcurve"/>
      <point x="596.688" y="507.538"/>
      <point x="581.682" y="455.46" type="qcurve"/>
      <point x="571.09" y="413.974"/>
      <point x="569.325" y="317.763" type="qcurve"/>
      <point x="415.74" y="317.763" type="line"/>
      <point x="415.74" y="350.422"/>
      <point x="415.74" y="367.192" type="qcurve" smooth="yes"/>
      <point x="415.74" y="524.308"/>
      <point x="504.007" y="631.112" type="qcurve"/>
      <point x="527.839" y="657.592"/>
      <point x="622.285" y="743.211" type="qcurve" smooth="yes"/>
      <point x="701.726" y="813.825"/>
      <point x="752.038" y="902.093"/>
      <point x="752.038" y="952.405" type="qcurve" smooth="yes"/>
      <point x="752.038" y="1052.15"/>
      <point x="601.984" y="1185.43"/>
      <point x="500.476" y="1185.43" type="qcurve" smooth="yes"/>
      <point x="284.221" y="1185.43"/>
      <point x="241.853" y="924.16" type="qcurve"/>
      <point x="79.4407" y="941.813" type="line"/>
      <point x="101.508" y="1122.76"/>
      <point x="317.763" y="1316.07"/>
      <point x="498.711" y="1316.07" type="qcurve" smooth="yes"/>
      <point x="669.067" y="1316.07"/>
      <point x="786.463" y="1226.03" type="qcurve" smooth="yes"/>
      <point x="914.45" y="1128.06"/>
      <point x="914.45" y="963.88" type="qcurve"/>
    </contour>
    <contour>
      <point x="587.861" y="0" type="line"/>
      <point x="406.913" y="0" type="line"/>
      <point x="406.913" y="180.948" type="line"/>
      <point x="587.861" y="180.948" type="line"/>
    </contour>
  </outline>
</glyph>
<glyph name="A" format="2">
  <advance width="1206"/>
  <unicode hex="0041"/>
  <outline>
    <contour>
      <point x="1208" y="0" type="line"/>
      <point x="1014" y="0" type="line"/>
      <point x="862" y="392" type="line"/>
      <point x="322" y="392" type="line"/>
      <point x="179" y="0" type="line"/>
      <point x="-2" y="0" type="line"/>
      <point x="493" y="1294" type="line"/>
      <point x="678" y="1294" type="line"/>
    </contour>
    <contour>
      <point x="810" y="531" type="line"/>
      <point x="674" y="890" type="line" smooth="yes"/>
      <point x="611" y="1056"/>
      <point x="582" y="1159" type="qcurve"/>
      <point x="557" y="1028"/>
      <point x="514" y="911" type="qcurve" smooth="yes"/>
      <point x="371" y="531" type="line"/>
    </contour>
  </outline>
</glyph>
<glyph name="B" format="2">
  <advance width="1206"/>
  <unicode hex="0042"/>
  <outline>
    <contour>
      <point x="1110" y="376" type="line"/>
      <point x="1110" y="186"/>
      <point x="976" y="85" type="qcurve" smooth="yes"/>
      <point x="862" y="0"/>
      <point x="626" y="0" type="qcurve" smooth="yes"/>
      <point x="132" y="0" type="line"/>
      <point x="132" y="1294" type="line"/>
      <point x="618" y="1294" type="line" smooth="yes"/>
      <point x="897" y="1294"/>
      <point x="996" y="1133" type="qcurve" smooth="yes"/>
      <point x="1047" y="1052"/>
      <point x="1047" y="964" type="qcurve" smooth="yes"/>
      <point x="1047" y="778"/>
      <point x="866" y="688" type="qcurve"/>
      <point x="980" y="654"/>
      <point x="1110" y="492"/>
      <point x="1110" y="376" type="qcurve"/>
    </contour>
    <contour>
      <point x="878" y="942" type="line"/>
      <point x="878" y="1087"/>
      <point x="759" y="1123" type="qcurve" smooth="yes"/>
      <point x="702" y="1140"/>
      <point x="562" y="1140" type="qcurve" smooth="yes"/>
      <point x="304" y="1140" type="line"/>
      <point x="304" y="750" type="line"/>
      <point x="584" y="750" type="line" smooth="yes"/>
      <point x="696" y="750"/>
      <point x="747" y="764" type="qcurve"/>
      <point x="878" y="804"/>
      <point x="878" y="942" type="qcurve"/>
    </contour>
    <contour>
      <point x="933" y="376" type="line"/>
      <point x="933" y="530"/>
      <point x="792" y="576" type="qcurve" smooth="yes"/>
      <point x="726" y="598"/>
      <point x="602" y="598" type="qcurve" smooth="yes"/>
      <point x="304" y="598" type="line"/>
      <point x="304" y="152" type="line"/>
      <point x="626" y="152" type="line" smooth="yes"/>
      <point x="709" y="152"/>
      <point x="743" y="159" type="qcurve" smooth="yes"/>
      <point x="861" y="181"/>
      <point x="906" y="266" type="qcurve"/>
      <point x="933" y="312"/>
      <point x="933" y="376" type="qcurve"/>
    </contour>
  </outline>
</glyph>
<glyph name="C" format="2">
  <advance width="1305"/>
  <unicode hex="0043"/>
  <outline>
    <contour>
      <point x="1235" y="410" type="line"/>
      <point x="1182" y="206"/>
      <point x="907" y="-22"/>
      <point x="698" y="-22" type="qcurve" smooth="yes"/>
      <point x="298" y="-22"/>
      <point x="159" y="309" type="qcurve" smooth="yes"/>
      <point x="90" y="472"/>
      <point x="90" y="656" type="qcurve" smooth="yes"/>
      <point x="90" y="1076"/>
      <point x="387" y="1238" type="qcurve" smooth="yes"/>
      <point x="530" y="1316"/>
      <point x="702" y="1316" type="qcurve" smooth="yes"/>
      <point x="893" y="1316"/>
      <point x="1159" y="1121"/>
      <point x="1211" y="940" type="qcurve"/>
      <point x="1043" y="900" type="line"/>
      <point x="958" y="1170"/>
      <point x="698" y="1170" type="qcurve" smooth="yes"/>
      <point x="557" y="1170"/>
      <point x="457" y="1104" type="qcurve" smooth="yes"/>
      <point x="350" y="1036"/>
      <point x="307" y="906" type="qcurve" smooth="yes"/>
      <point x="266" y="786"/>
      <point x="266" y="658" type="qcurve" smooth="yes"/>
      <point x="266" y="304"/>
      <point x="464" y="186" type="qcurve" smooth="yes"/>
      <point x="566" y="124"/>
      <point x="683" y="124" type="qcurve" smooth="yes"/>
      <point x="992" y="124"/>
      <point x="1063" y="454" type="qcurve"/>
    </contour>
  </outline>
</glyph>
<glyph name="D" format="2">
  <advance width="1305"/>
  <unicode hex="0044"/>
  <outline>
    <contour>
      <point x="1209" y="654" type="line"/>
      <point x="1209" y="374"/>
      <point x="1087" y="204" type="qcurve" smooth="yes"/>
      <point x="985" y="64"/>
      <point x="814" y="22" type="qcurve" smooth="yes"/>
      <point x="723" y="0"/>
      <point x="606" y="0" type="qcurve" smooth="yes"/>
      <point x="139" y="0" type="line"/>
      <point x="139" y="1294" type="line"/>
      <point x="586" y="1294" type="line" smooth="yes"/>
      <point x="736" y="1294"/>
      <point x="816" y="1276" type="qcurve" smooth="yes"/>
      <point x="1061" y="1218"/>
      <point x="1159" y="962" type="qcurve" smooth="yes"/>
      <point x="1209" y="828"/>
      <point x="1209" y="654" type="qcurve"/>
    </contour>
    <contour>
      <point x="1032" y="656" type="line"/>
      <point x="1032" y="1027"/>
      <point x="804" y="1116" type="qcurve"/>
      <point x="736" y="1140"/>
      <point x="582" y="1140" type="qcurve" smooth="yes"/>
      <point x="311" y="1140" type="line"/>
      <point x="311" y="152" type="line"/>
      <point x="588" y="152" type="line" smooth="yes"/>
      <point x="814" y="152"/>
      <point x="904" y="244" type="qcurve" smooth="yes"/>
      <point x="1032" y="372"/>
      <point x="1032" y="656" type="qcurve"/>
    </contour>
  </outline>
</glyph>
<glyph name="F" format="2">
  <advance width="1104"/>
  <unicode hex="0046"/>
  <outline>
    <contour>
      <point x="1021.25" y="1140.41" type="line"/>
      <point x="319.528" y="1140.41" type="line"/>
      <point x="319.528" y="741.446" type="line"/>
      <point x="927.69" y="741.446" type="line"/>
      <point x="927.69" y="587.861" type="line"/>
      <point x="319.528" y="587.861" type="line"/>
      <point x="319.528" y="0" type="line"/>
      <point x="148.289" y="0" type="line"/>
      <point x="148.289" y="1294" type="line"/>
      <point x="1021.25" y="1294" type="line"/>
    </contour>
  </outline>
</glyph>
<glyph name="G" format="2">
  <advance width="1406"/>
  <unicode hex="0047"/>
  <outline>
    <contour>
      <point x="1292.23" y="180.948" type="line"/>
      <point x="1039.79" y="-22.0668"/>
      <point x="757.334" y="-22.0668" type="qcurve" smooth="yes"/>
      <point x="569.325" y="-22.0668"/>
      <point x="419.27" y="53.8431" type="qcurve" smooth="yes"/>
      <point x="256.858" y="137.697"/>
      <point x="175.652" y="296.578" type="qcurve" smooth="yes"/>
      <point x="96.2115" y="450.164"/>
      <point x="96.2115" y="639.939" type="qcurve" smooth="yes"/>
      <point x="96.2115" y="827.948"/>
      <point x="170.356" y="981.534" type="qcurve" smooth="yes"/>
      <point x="251.562" y="1155.42"/>
      <point x="551.671" y="1316.07"/>
      <point x="744.977" y="1316.07" type="qcurve" smooth="yes"/>
      <point x="1039.79" y="1316.07"/>
      <point x="1174.84" y="1143.95" type="qcurve" smooth="yes"/>
      <point x="1240.16" y="1062.74"/>
      <point x="1274.58" y="932.986" type="qcurve"/>
      <point x="1119.23" y="889.735" type="line"/>
      <point x="1064.5" y="1075.98"/>
      <point x="924.16" y="1135.12" type="qcurve" smooth="yes"/>
      <point x="842.071" y="1169.54"/>
      <point x="744.977" y="1169.54" type="qcurve" smooth="yes"/>
      <point x="520.778" y="1169.54"/>
      <point x="403.382" y="1039.79" type="qcurve" smooth="yes"/>
      <point x="272.746" y="895.031"/>
      <point x="272.746" y="650.531" type="qcurve" smooth="yes"/>
      <point x="272.746" y="303.64"/>
      <point x="505.772" y="188.01" type="qcurve" smooth="yes"/>
      <point x="619.637" y="132.401"/>
      <point x="748.508" y="132.401" type="qcurve" smooth="yes"/>
      <point x="842.071" y="132.401"/>
      <point x="1057.44" y="205.663"/>
      <point x="1126.29" y="265.685" type="qcurve"/>
      <point x="1126.29" y="507.538" type="line"/>
      <point x="744.977" y="507.538" type="line"/>
      <point x="744.977" y="660.24" type="line"/>
      <point x="1292.23" y="660.24" type="line"/>
    </contour>
  </outline>
</glyph>
<glyph name="H" format="2">
  <advance width="1305"/>
  <unicode hex="0048"/>
  <outline>
    <contour>
      <point x="1161" y="0" type="line"/>
      <point x="989" y="0" type="line"/>
      <point x="989" y="609" type="line"/>
      <point x="316" y="609" type="line"/>
      <point x="316" y="0" type="line"/>
      <point x="145" y="0" type="line"/>
      <point x="145" y="1294" type="line"/>
      <point x="316" y="1294" type="line"/>
      <point x="316" y="763" type="line"/>
      <point x="989" y="763" type="line"/>
      <point x="989" y="1294" type="line"/>
      <point x="1161" y="1294" type="line"/>
    </contour>
  </outline>
</glyph>
<glyph name="I" format="2">
  <advance width="502"/>
  <unicode hex="0049"/>
  <outline>
    <contour>
      <point x="340" y="0" type="line"/>
      <point x="168" y="0" type="line"/>
      <point x="168" y="1294" type="line"/>
      <point x="340" y="1294" type="line"/>
    </contour>
  </outline>
</glyph>
<glyph name="J" format="2">
  <advance width="904"/>
  <unicode hex="004A"/>
  <outline>
    <contour>
      <point x="762.63" y="412.209" type="line" smooth="yes"/>
      <point x="762.63" y="113.865"/>
      <point x="600.218" y="25.598" type="qcurve" smooth="yes"/>
      <point x="515.482" y="-22.067"/>
      <point x="399.851" y="-22.067" type="qcurve" smooth="yes"/>
      <point x="45.016" y="-22.067"/>
      <point x="52.078" y="367.192" type="qcurve"/>
      <point x="205.663" y="388.377" type="line"/>
      <point x="212.83" y="268.032"/>
      <point x="246.266" y="210.076" type="qcurve" smooth="yes"/>
      <point x="292.279" y="130.32"/>
      <point x="399.851" y="129.753" type="qcurve"/>
      <point x="536.666" y="129.753"/>
      <point x="574.621" y="240.087" type="qcurve" smooth="yes"/>
      <point x="593.157" y="291.282"/>
      <point x="593.157" y="403.382" type="qcurve" smooth="yes"/>
      <point x="593.157" y="1294" type="line"/>
      <point x="762.63" y="1294" type="line"/>
    </contour>
  </outline>
</glyph>
<glyph name="K" format="2">
  <advance width="1206"/>
  <unicode hex="004B"/>
  <outline>
    <contour>
      <point x="1202.2" y="0" type="line"/>
      <point x="976.237" y="0" type="line"/>
      <point x="515.482" y="654.061" type="line"/>
      <point x="303.64" y="448.398" type="line"/>
      <point x="303.64" y="0" type="line"/>
      <point x="132.401" y="0" type="line"/>
      <point x="132.401" y="1294" type="line"/>
      <point x="303.64" y="1294" type="line"/>
      <point x="303.64" y="652.296" type="line"/>
      <point x="945.344" y="1294" type="line"/>
      <point x="1178.37" y="1294" type="line"/>
      <point x="636.408" y="769.692" type="line"/>
    </contour>
  </outline>
</glyph>
<glyph name="L" format="2">
  <advance width="1005"/>
  <unicode hex="004C"/>
  <outline>
    <contour>
      <point x="942" y="0" type="line"/>
      <point x="132" y="0" type="line"/>
      <point x="132" y="1294" type="line"/>
      <point x="304" y="1294" type="line"/>
      <point x="304" y="152" type="line"/>
      <point x="942" y="152" type="line"/>
    </contour>
  </outline>
</glyph>
<glyph name="N" format="2">
  <advance width="1305"/>
  <unicode hex="004E"/>
  <outline>
    <contour>
      <point x="1157.19" y="0" type="line"/>
      <point x="981.534" y="0" type="line"/>
      <point x="301.875" y="1017.72" type="line"/>
      <point x="301.875" y="0" type="line"/>
      <point x="137.697" y="0" type="line"/>
      <point x="137.697" y="1294" type="line"/>
      <point x="312.467" y="1294" type="line"/>
      <point x="992.126" y="278.042" type="line"/>
      <point x="992.126" y="1294" type="line"/>
      <point x="1157.19" y="1294" type="line"/>
    </contour>
  </outline>
</glyph>
<glyph name="O" format="2">
  <advance width="1406"/>
  <unicode hex="004F"/>
  <outline>
    <contour>
      <point x="1325" y="645" type="line"/>
      <point x="1325" y="457"/>
      <point x="1253" y="307" type="qcurve" smooth="yes"/>
      <point x="1173" y="141"/>
      <point x="1019" y="58" type="qcurve" smooth="yes"/>
      <point x="875" y="-22"/>
      <point x="707" y="-22" type="qcurve" smooth="yes"/>
      <point x="528" y="-22"/>
      <point x="238" y="150"/>
      <point x="161" y="307" type="qcurve" smooth="yes"/>
      <point x="87" y="459"/>
      <point x="87" y="631" type="qcurve" smooth="yes"/>
      <point x="87" y="931"/>
      <point x="244" y="1117" type="qcurve" smooth="yes"/>
      <point x="412" y="1318"/>
      <point x="707" y="1318" type="qcurve" smooth="yes"/>
      <point x="884" y="1318"/>
      <point x="1173" y="1147"/>
      <point x="1325" y="839"/>
      <point x="1325" y="645" type="qcurve"/>
    </contour>
    <contour>
      <point x="1147" y="645" type="line"/>
      <point x="1147" y="973"/>
      <point x="938" y="1104" type="qcurve" smooth="yes"/>
      <point x="835" y="1170"/>
      <point x="709" y="1170" type="qcurve" smooth="yes"/>
      <point x="479" y="1170"/>
      <point x="365" y="1007" type="qcurve" smooth="yes"/>
      <point x="264" y="866"/>
      <point x="264" y="628" type="qcurve" smooth="yes"/>
      <point x="264" y="414"/>
      <point x="376" y="275" type="qcurve" smooth="yes"/>
      <point x="497" y="124"/>
      <point x="705" y="124" type="qcurve" smooth="yes"/>
      <point x="922" y="124"/>
      <point x="1042" y="280" type="qcurve" smooth="yes"/>
      <point x="1147" y="423"/>
      <point x="1147" y="645" type="qcurve"/>
    </contour>
  </outline>
</glyph>
<glyph name="Q" format="2">
  <advance width="1406"/>
  <unicode hex="0051"/>
  <outline>
    <contour>
      <point x="1289" y="-102" type="line"/>
      <point x="1150" y="-50"/>
      <point x="1012" y="58" type="qcurve"/>
      <point x="868" y="-22"/>
      <point x="694" y="-22" type="qcurve" smooth="yes"/>
      <point x="519" y="-22"/>
      <point x="233" y="147"/>
      <point x="78" y="454"/>
      <point x="78" y="647" type="qcurve" smooth="yes"/>
      <point x="78" y="831"/>
      <point x="148" y="983" type="qcurve" smooth="yes"/>
      <point x="228" y="1150"/>
      <point x="521" y="1318"/>
      <point x="698" y="1318" type="qcurve" smooth="yes"/>
      <point x="875" y="1318"/>
      <point x="1162" y="1150"/>
      <point x="1316" y="840"/>
      <point x="1316" y="647" type="qcurve" smooth="yes"/>
      <point x="1316" y="327"/>
      <point x="1121" y="139" type="qcurve"/>
      <point x="1240" y="56"/>
      <point x="1340" y="18" type="qcurve"/>
    </contour>
    <contour>
      <point x="1139" y="647" type="qcurve"/>
      <point x="1139" y="973"/>
      <point x="929" y="1104" type="qcurve" smooth="yes"/>
      <point x="826" y="1170"/>
      <point x="698" y="1170" type="qcurve" smooth="yes"/>
      <point x="478" y="1170"/>
      <point x="360" y="1014" type="qcurve" smooth="yes"/>
      <point x="255" y="875"/>
      <point x="255" y="647" type="qcurve" smooth="yes"/>
      <point x="255" y="421"/>
      <point x="362" y="280" type="qcurve" smooth="yes"/>
      <point x="479" y="124"/>
      <point x="698" y="124" type="qcurve" smooth="yes"/>
      <point x="790" y="124"/>
      <point x="871" y="159" type="qcurve"/>
      <point x="790" y="212"/>
      <point x="702" y="233" type="qcurve"/>
      <point x="743" y="358" type="line"/>
      <point x="892" y="316"/>
      <point x="987" y="233" type="qcurve"/>
      <point x="1139" y="372"/>
    </contour>
  </outline>
</glyph>
<glyph name="R" format="2">
  <advance width="1305"/>
  <unicode hex="0052"/>
  <outline>
    <contour>
      <point x="1281.64" y="0" type="line"/>
      <point x="1066.27" y="0" type="line"/>
      <point x="896.797" y="269.216" type="line" smooth="yes"/>
      <point x="838.54" y="360.131"/>
      <point x="800.585" y="410.443" type="qcurve" smooth="yes"/>
      <point x="731.737" y="504.007"/>
      <point x="684.955" y="533.135" type="qcurve"/>
      <point x="645.235" y="560.498"/>
      <point x="607.28" y="567.559" type="qcurve"/>
      <point x="579.917" y="574.621"/>
      <point x="511.951" y="574.621" type="qcurve" smooth="yes"/>
      <point x="312.467" y="574.621" type="line"/>
      <point x="312.467" y="0" type="line"/>
      <point x="142.993" y="0" type="line"/>
      <point x="142.993" y="1294" type="line"/>
      <point x="715.849" y="1294" type="line" smooth="yes"/>
      <point x="865.903" y="1294"/>
      <point x="945.344" y="1271.05" type="qcurve" smooth="yes"/>
      <point x="1060.97" y="1236.63"/>
      <point x="1122.76" y="1135.12" type="qcurve" smooth="yes"/>
      <point x="1176.6" y="1048.62"/>
      <point x="1176.6" y="941.813" type="qcurve" smooth="yes"/>
      <point x="1176.6" y="638.173"/>
      <point x="812.06" y="589.626" type="qcurve"/>
      <point x="880.026" y="555.202"/>
      <point x="914.45" y="524.308" type="qcurve" smooth="yes"/>
      <point x="992.126" y="453.694"/>
      <point x="1057.44" y="352.187" type="qcurve" smooth="yes"/>
    </contour>
    <contour>
      <point x="1000.07" y="941.813" type="line"/>
      <point x="1000.07" y="1151.89"/>
      <point x="722.91" y="1151.89" type="qcurve" smooth="yes"/>
      <point x="312.467" y="1151.89" type="line"/>
      <point x="312.467" y="722.91" type="line"/>
      <point x="681.424" y="722.91" type="line" smooth="yes"/>
      <point x="900.327" y="722.91"/>
      <point x="965.645" y="824.418" type="qcurve" smooth="yes"/>
      <point x="1000.07" y="878.261"/>
      <point x="1000.07" y="941.813" type="qcurve"/>
    </contour>
  </outline>
</glyph>
<glyph name="S" format="2">
  <advance width="1206"/>
  <unicode hex="0053"/>
  <outline>
    <contour>
      <point x="1112.17" y="365.427" type="line"/>
      <point x="1112.17" y="255.093"/>
      <point x="985.064" y="75.91"/>
      <point x="881.791" y="29.1282" type="qcurve" smooth="yes"/>
      <point x="771.457" y="-22.0668"/>
      <point x="632.877" y="-22.0668" type="qcurve" smooth="yes"/>
      <point x="287.752" y="-22.0668"/>
      <point x="151.82" y="182.714" type="qcurve" smooth="yes"/>
      <point x="84.7367" y="285.986"/>
      <point x="81.206" y="415.739" type="qcurve"/>
      <point x="241.853" y="429.862" type="line"/>
      <point x="265.685" y="240.087"/>
      <point x="426.332" y="170.356" type="qcurve" smooth="yes"/>
      <point x="515.482" y="132.401"/>
      <point x="625.816" y="132.401" type="qcurve" smooth="yes"/>
      <point x="831.479" y="132.401"/>
      <point x="909.154" y="240.087" type="qcurve" smooth="yes"/>
      <point x="945.344" y="291.282"/>
      <point x="945.344" y="350.422" type="qcurve" smooth="yes"/>
      <point x="945.344" y="475.761"/>
      <point x="793.524" y="533.135" type="qcurve" smooth="yes"/>
      <point x="733.502" y="556.967"/>
      <point x="551.671" y="600.218" type="qcurve" smooth="yes"/>
      <point x="393.673" y="636.408"/>
      <point x="314.232" y="677.894" type="qcurve" smooth="yes"/>
      <point x="129.753" y="775.87"/>
      <point x="129.753" y="959.467" type="qcurve" smooth="yes"/>
      <point x="129.753" y="1064.5"/>
      <point x="249.797" y="1231.33"/>
      <point x="348.656" y="1272.82" type="qcurve" smooth="yes"/>
      <point x="455.46" y="1316.07"/>
      <point x="586.095" y="1316.07" type="qcurve" smooth="yes"/>
      <point x="889.735" y="1316.07"/>
      <point x="1008.9" y="1133.35" type="qcurve" smooth="yes"/>
      <point x="1068.04" y="1043.32"/>
      <point x="1071.57" y="929.456" type="qcurve"/>
      <point x="907.389" y="916.216" type="line"/>
      <point x="881.791" y="1166.01"/>
      <point x="593.157" y="1166.01" type="qcurve" smooth="yes"/>
      <point x="475.761" y="1166.01"/>
      <point x="398.086" y="1126.29" type="qcurve"/>
      <point x="296.578" y="1077.74"/>
      <point x="296.578" y="970.941" type="qcurve" smooth="yes"/>
      <point x="296.578" y="871.199"/>
      <point x="406.913" y="819.121" type="qcurve" smooth="yes"/>
      <point x="453.694" y="797.055"/>
      <point x="603.749" y="764.396" type="qcurve"/>
      <point x="813.825" y="715.849"/>
      <point x="891.501" y="681.424" type="qcurve" smooth="yes"/>
      <point x="1112.17" y="579.917"/>
      <point x="1112.17" y="365.427" type="qcurve"/>
    </contour>
  </outline>
</glyph>
<glyph name="U" format="2">
  <advance width="1305"/>
  <unicode hex="0055"/>
  <outline>
    <contour>
      <point x="1160.72" y="545.493" type="line" smooth="yes"/>
      <point x="1160.72" y="368.958"/>
      <point x="1126.29" y="265.685" type="qcurve" smooth="yes"/>
      <point x="1081.28" y="126.222"/>
      <point x="955.936" y="50.3124" type="qcurve" smooth="yes"/>
      <point x="840.306" y="-22.0668"/>
      <point x="654.061" y="-22.0668" type="qcurve" smooth="yes"/>
      <point x="293.048" y="-22.0668"/>
      <point x="191.54" y="222.434" type="qcurve" smooth="yes"/>
      <point x="142.993" y="339.83"/>
      <point x="142.993" y="545.493" type="qcurve" smooth="yes"/>
      <point x="142.993" y="1294" type="line"/>
      <point x="312.467" y="1294" type="line"/>
      <point x="312.467" y="548.14" type="line" smooth="yes"/>
      <point x="312.467" y="408.678"/>
      <point x="332.768" y="338.064" type="qcurve" smooth="yes"/>
      <point x="361.896" y="225.964"/>
      <point x="451.929" y="175.652" type="qcurve" smooth="yes"/>
      <point x="527.839" y="132.401"/>
      <point x="639.939" y="132.401" type="qcurve" smooth="yes"/>
      <point x="845.602" y="132.401"/>
      <point x="924.16" y="238.322" type="qcurve" smooth="yes"/>
      <point x="988.595" y="327.472"/>
      <point x="988.595" y="548.14" type="qcurve" smooth="yes"/>
      <point x="988.595" y="1294" type="line"/>
      <point x="1160.72" y="1294" type="line"/>
    </contour>
  </outline>
</glyph>
<glyph name="V" format="2">
  <advance width="1206"/>
  <unicode hex="0056"/>
  <outline>
    <contour>
      <point x="1191.61" y="1294" type="line"/>
      <point x="684.955" y="0" type="line"/>
      <point x="510.186" y="0" type="line"/>
      <point x="7.06136" y="1294" type="line"/>
      <point x="193.306" y="1294" type="line"/>
      <point x="529.604" y="353.952" type="line" smooth="yes"/>
      <point x="571.09" y="238.322"/>
      <point x="598.453" y="142.993" type="qcurve"/>
      <point x="627.581" y="243.618"/>
      <point x="667.302" y="353.952" type="qcurve" smooth="yes"/>
      <point x="1017.72" y="1294" type="line"/>
    </contour>
  </outline>
</glyph>
<glyph name="X" format="2">
  <advance width="1206"/>
  <unicode hex="0058"/>
  <outline>
    <contour>
      <point x="1195.14" y="0" type="line"/>
      <point x="981.534" y="0" type="line"/>
      <point x="655.827" y="460.756" type="line"/>
      <point x="634.643" y="493.415"/>
      <point x="600.218" y="548.141" type="qcurve"/>
      <point x="553.437" y="472.231"/>
      <point x="538.431" y="451.929" type="qcurve" smooth="yes"/>
      <point x="213.607" y="0" type="line"/>
      <point x="7.06143" y="0" type="line"/>
      <point x="507.538" y="674.363" type="line"/>
      <point x="67.0833" y="1294" type="line"/>
      <point x="270.981" y="1294" type="line"/>
      <point x="505.772" y="962.115" type="line" smooth="yes"/>
      <point x="579.917" y="857.076"/>
      <point x="609.045" y="802.351" type="qcurve"/>
      <point x="648.765" y="867.668"/>
      <point x="712.318" y="950.64" type="qcurve" smooth="yes"/>
      <point x="972.707" y="1294" type="line"/>
      <point x="1158.95" y="1294" type="line"/>
      <point x="705.257" y="683.19" type="line"/>
    </contour>
  </outline>
</glyph>
<glyph name="Y" format="2">
  <advance width="1206"/>
  <unicode hex="0059"/>
  <outline>
    <contour>
      <point x="1191.61" y="1294" type="line"/>
      <point x="676.128" y="548.14" type="line"/>
      <point x="676.128" y="0" type="line"/>
      <point x="504.007" y="0" type="line"/>
      <point x="504.007" y="548.141" type="line"/>
      <point x="5.29599" y="1294" type="line"/>
      <point x="213.607" y="1294" type="line"/>
      <point x="467.817" y="903.858" type="line" smooth="yes"/>
      <point x="533.135" y="804.116"/>
      <point x="600.218" y="684.955" type="qcurve"/>
      <point x="663.771" y="795.289"/>
      <point x="741.446" y="912.685" type="qcurve" smooth="yes"/>
      <point x="992.126" y="1294" type="line"/>
    </contour>
  </outline>
</glyph>
<glyph name="Z" format="2">
  <advance width="1104"/>
  <unicode hex="005A"/>
  <outline>
    <contour>
      <point x="1059.21" y="0" type="line"/>
      <point x="36.1896" y="0" type="line"/>
      <point x="36.1896" y="158.881" type="line"/>
      <point x="699.96" y="986.83" type="line" smooth="yes"/>
      <point x="769.692" y="1075.98"/>
      <point x="833.244" y="1140.41" type="qcurve"/>
      <point x="112.1" y="1140.41" type="line"/>
      <point x="112.1" y="1294" type="line"/>
      <point x="1038.02" y="1294" type="line"/>
      <point x="1038.02" y="1140.41" type="line"/>
      <point x="233.026" y="151.82" type="line"/>
      <point x="1059.21" y="151.82" type="line"/>
    </contour>
  </outline>
</glyph>
<glyph name="bracketright" format="2">
  <advance width="502"/>
  <unicode hex="005D"/>
  <outline>
    <contour>
      <point x="384.846" y="-360.131" type="line"/>
      <point x="34.4243" y="-360.131" type="line"/>
      <point x="34.4243" y="-227.73" type="line"/>
      <point x="225.965" y="-227.73" type="line"/>
      <point x="225.965" y="1162.48" type="line"/>
      <point x="34.4243" y="1162.48" type="line"/>
      <point x="34.4243" y="1294" type="line"/>
      <point x="384.846" y="1294" type="line"/>
    </contour>
  </outline>
</glyph>
<glyph name="asciicircum" format="2">
  <advance width="848"/>
  <unicode hex="005E"/>
  <outline>
    <contour>
      <point x="800.585" y="609.045" type="line"/>
      <point x="639.939" y="609.045" type="line"/>
      <point x="422.801" y="1135.12" type="line"/>
      <point x="211.842" y="609.045" type="line"/>
      <point x="46.7817" y="609.045" type="line"/>
      <point x="360.131" y="1316.07" type="line"/>
      <point x="488.119" y="1316.07" type="line"/>
    </contour>
  </outline>
</glyph>
<glyph name="grave" format="2">
  <advance width="602"/>
  <unicode hex="0060"/>
  <outline>
    <contour>
      <point x="410.443" y="1053.91" type="line"/>
      <point x="281.573" y="1053.91" type="line"/>
      <point x="77.6753" y="1301.94" type="line"/>
      <point x="291.282" y="1301.94" type="line"/>
    </contour>
  </outline>
</glyph>
<glyph name="a" format="2">
  <advance width="1005"/>
  <unicode hex="0061"/>
  <outline>
    <contour>
      <point x="762.63" y="0" type="line"/>
      <point x="737.915" y="48.547"/>
      <point x="729.971" y="115.63" type="qcurve"/>
      <point x="569.325" y="-22.067"/>
      <point x="384.846" y="-22.067" type="qcurve" smooth="yes"/>
      <point x="248.813" y="-21.0285"/>
      <point x="162.412" y="43.251" type="qcurve" smooth="yes"/>
      <point x="66.0884" y="114.912"/>
      <point x="65.318" y="248.031" type="qcurve" smooth="yes"/>
      <point x="65.318" y="386.611"/>
      <point x="179.183" y="464.287" type="qcurve" smooth="yes"/>
      <point x="229.108" y="500.093"/>
      <point x="293.048" y="517.247" type="qcurve" smooth="yes"/>
      <point x="337.714" y="529.23"/>
      <point x="434.276" y="540.196" type="qcurve" smooth="yes"/>
      <point x="627.581" y="564.029"/>
      <point x="717.614" y="594.922" type="qcurve"/>
      <point x="717.614" y="627.581"/>
      <point x="717.614" y="636.408" type="qcurve" smooth="yes"/>
      <point x="717.614" y="827.948"/>
      <point x="491.649" y="827.948" type="qcurve" smooth="yes"/>
      <point x="384.846" y="827.948"/>
      <point x="274.512" y="750.273"/>
      <point x="248.031" y="648.765" type="qcurve"/>
      <point x="91.798" y="670.832" type="line"/>
      <point x="134.166" y="864.138"/>
      <point x="301.875" y="925.925" type="qcurve" smooth="yes"/>
      <point x="393.673" y="957.701"/>
      <point x="515.482" y="957.701" type="qcurve" smooth="yes"/>
      <point x="739.681" y="957.701"/>
      <point x="820.887" y="858.842" type="qcurve" smooth="yes"/>
      <point x="856.424" y="815.461"/>
      <point x="869.434" y="752.038" type="qcurve" smooth="yes"/>
      <point x="877.61" y="712.179"/>
      <point x="878.261" y="603.749" type="qcurve" smooth="yes"/>
      <point x="878.261" y="391.907" type="line" smooth="yes"/>
      <point x="877.221" y="205.625"/>
      <point x="878.261" y="191.54" type="qcurve" smooth="yes"/>
      <point x="886.933" y="74.0639"/>
      <point x="929.456" y="0" type="qcurve"/>
    </contour>
    <contour>
      <point x="717.614" y="469.583" type="line"/>
      <point x="631.112" y="436.041"/>
      <point x="457.225" y="410.443" type="qcurve" smooth="yes"/>
      <point x="379.821" y="399.049"/>
      <point x="346.891" y="388.377" type="qcurve" smooth="yes"/>
      <point x="284.477" y="368.151"/>
      <point x="256.858" y="327.472" type="qcurve" smooth="yes"/>
      <point x="234.791" y="293.048"/>
      <point x="234.791" y="251.562" type="qcurve" smooth="yes"/>
      <point x="234.791" y="177.417"/>
      <point x="294.813" y="137.697" type="qcurve" smooth="yes"/>
      <point x="345.126" y="103.273"/>
      <point x="422.801" y="103.273" type="qcurve" smooth="yes"/>
      <point x="619.637" y="103.273"/>
      <point x="692.016" y="253.327" type="qcurve" smooth="yes"/>
      <point x="717.614" y="307.171"/>
      <point x="717.614" y="412.209" type="qcurve" smooth="yes"/>
    </contour>
  </outline>
</glyph>
<glyph name="b" format="2">
  <advance width="1005"/>
  <unicode hex="0062"/>
  <outline>
    <contour>
      <point x="931.221" y="482.823" type="line"/>
      <point x="931.221" y="278.042"/>
      <point x="833.244" y="137.697" type="qcurve" smooth="yes"/>
      <point x="722.91" y="-22.0668"/>
      <point x="526.074" y="-22.0668" type="qcurve" smooth="yes"/>
      <point x="360.131" y="-22.0668"/>
      <point x="265.685" y="117.396" type="qcurve"/>
      <point x="265.685" y="0" type="line"/>
      <point x="117.396" y="0" type="line"/>
      <point x="117.396" y="1294" type="line"/>
      <point x="276.277" y="1294" type="line"/>
      <point x="276.277" y="831.479" type="line"/>
      <point x="377.784" y="957.701"/>
      <point x="533.135" y="957.701" type="qcurve" smooth="yes"/>
      <point x="719.379" y="957.701"/>
      <point x="931.221" y="690.251"/>
      <point x="931.221" y="482.823" type="qcurve"/>
    </contour>
    <contour>
      <point x="767.926" y="469.583" type="line"/>
      <point x="767.926" y="612.576"/>
      <point x="717.614" y="708.787" type="qcurve" smooth="yes"/>
      <point x="652.296" y="827.948"/>
      <point x="520.778" y="827.948" type="qcurve" smooth="yes"/>
      <point x="390.142" y="827.948"/>
      <point x="322.176" y="710.553" type="qcurve" smooth="yes"/>
      <point x="263.92" y="612.576"/>
      <point x="263.92" y="475.761" type="qcurve" smooth="yes"/>
      <point x="263.92" y="307.171"/>
      <point x="308.936" y="231.261" type="qcurve"/>
      <point x="384.846" y="110.334"/>
      <point x="513.716" y="110.334" type="qcurve" smooth="yes"/>
      <point x="643.469" y="110.334"/>
      <point x="712.318" y="229.495" type="qcurve" smooth="yes"/>
      <point x="767.926" y="329.237"/>
      <point x="767.926" y="469.583" type="qcurve"/>
    </contour>
  </outline>
</glyph>
<glyph name="c" format="2">
  <advance width="904"/>
  <unicode hex="0063"/>
  <outline>
    <contour>
      <point x="887.97" y="323.941" type="line"/>
      <point x="862.372" y="164.177"/>
      <point x="654.061" y="-22.0669"/>
      <point x="496.945" y="-22.0669" type="qcurve" smooth="yes"/>
      <point x="287.752" y="-22.0669"/>
      <point x="173.887" y="119.161" type="qcurve" smooth="yes"/>
      <point x="70.6139" y="249.797"/>
      <point x="70.6139" y="464.287" type="qcurve" smooth="yes"/>
      <point x="70.6139" y="788.228"/>
      <point x="274.512" y="902.093" type="qcurve" smooth="yes"/>
      <point x="376.019" y="957.701"/>
      <point x="496.945" y="957.701" type="qcurve" smooth="yes"/>
      <point x="647" y="957.701"/>
      <point x="843.836" y="807.647"/>
      <point x="871.199" y="662.005" type="qcurve"/>
      <point x="717.614" y="638.173" type="line"/>
      <point x="672.598" y="827.948"/>
      <point x="504.007" y="827.948" type="qcurve" smooth="yes"/>
      <point x="233.026" y="827.948"/>
      <point x="233.026" y="469.583" type="qcurve" smooth="yes"/>
      <point x="233.026" y="110.334"/>
      <point x="495.18" y="110.334" type="qcurve" smooth="yes"/>
      <point x="698.195" y="110.334"/>
      <point x="729.971" y="343.36" type="qcurve"/>
    </contour>
  </outline>
</glyph>
<glyph name="d" format="2">
  <advance width="1005"/>
  <unicode hex="0064"/>
  <outline>
    <contour>
      <point x="875" y="0" type="line"/>
      <point x="726" y="0" type="line"/>
      <point x="726" y="117" type="line"/>
      <point x="638" y="-22"/>
      <point x="464" y="-22" type="qcurve" smooth="yes"/>
      <point x="349" y="-22"/>
      <point x="162" y="105"/>
      <point x="62" y="324"/>
      <point x="62" y="468" type="qcurve" smooth="yes"/>
      <point x="62" y="776"/>
      <point x="250" y="899" type="qcurve" smooth="yes"/>
      <point x="342" y="958"/>
      <point x="457" y="958" type="qcurve" smooth="yes"/>
      <point x="624" y="958"/>
      <point x="716" y="830" type="qcurve"/>
      <point x="716" y="1294" type="line"/>
      <point x="875" y="1294" type="line"/>
    </contour>
    <contour>
      <point x="730" y="454" type="qcurve" smooth="yes"/>
      <point x="730" y="606"/>
      <point x="678" y="703" type="qcurve" smooth="yes"/>
      <point x="611" y="828"/>
      <point x="474" y="828" type="qcurve" smooth="yes"/>
      <point x="340" y="828"/>
      <point x="275" y="707" type="qcurve" smooth="yes"/>
      <point x="226" y="614"/>
      <point x="226" y="468" type="qcurve" smooth="yes"/>
      <point x="226" y="326"/>
      <point x="280" y="229" type="qcurve" smooth="yes"/>
      <point x="349" y="110"/>
      <point x="481" y="110" type="qcurve" smooth="yes"/>
      <point x="611" y="110"/>
      <point x="676" y="222" type="qcurve" smooth="yes"/>
      <point x="730" y="314"/>
    </contour>
  </outline>
</glyph>
<glyph name="e" format="2">
  <advance width="1005"/>
  <unicode hex="0065"/>
  <outline>
    <contour>
      <point x="931.221" y="469.583" type="line"/>
      <point x="931.221" y="455.46"/>
      <point x="929.456" y="428.097" type="qcurve"/>
      <point x="229.495" y="428.097" type="line"/>
      <point x="238.322" y="291.282"/>
      <point x="305.405" y="205.663" type="qcurve" smooth="yes"/>
      <point x="381.315" y="110.334"/>
      <point x="513.716" y="110.334" type="qcurve" smooth="yes"/>
      <point x="692.016" y="110.334"/>
      <point x="760.865" y="301.875" type="qcurve"/>
      <point x="925.925" y="281.573" type="line"/>
      <point x="843.836" y="-22.0668"/>
      <point x="513.716" y="-22.0668" type="qcurve" smooth="yes"/>
      <point x="296.578" y="-22.0668"/>
      <point x="179.183" y="113.865" type="qcurve" smooth="yes"/>
      <point x="67.0832" y="241.853"/>
      <point x="67.0832" y="460.756" type="qcurve" smooth="yes"/>
      <point x="67.0832" y="677.894"/>
      <point x="175.652" y="813.825" type="qcurve" smooth="yes"/>
      <point x="293.048" y="957.701"/>
      <point x="504.007" y="957.701" type="qcurve" smooth="yes"/>
      <point x="710.553" y="957.701"/>
      <point x="824.418" y="815.591" type="qcurve" smooth="yes"/>
      <point x="931.221" y="683.19"/>
      <point x="931.221" y="469.583" type="qcurve"/>
    </contour>
    <contour>
      <point x="762.63" y="558.733" type="line"/>
      <point x="752.038" y="676.128"/>
      <point x="703.491" y="736.15" type="qcurve" smooth="yes"/>
      <point x="627.581" y="827.948"/>
      <point x="505.772" y="827.948" type="qcurve" smooth="yes"/>
      <point x="390.142" y="827.948"/>
      <point x="248.031" y="676.128"/>
      <point x="238.322" y="558.733" type="qcurve"/>
    </contour>
  </outline>
</glyph>
<glyph name="g" format="2">
  <advance width="1005"/>
  <unicode hex="0067"/>
  <outline>
    <contour>
      <point x="884" y="126" type="line" smooth="yes"/>
      <point x="884" y="-49"/>
      <point x="859" y="-132" type="qcurve" smooth="yes"/>
      <point x="819" y="-262"/>
      <point x="698" y="-327" type="qcurve" smooth="yes"/>
      <point x="602" y="-380"/>
      <point x="461" y="-380" type="qcurve" smooth="yes"/>
      <point x="297" y="-380"/>
      <point x="200" y="-312" type="qcurve" smooth="yes"/>
      <point x="87" y="-233"/>
      <point x="90" y="-78" type="qcurve"/>
      <point x="244" y="-102" type="line"/>
      <point x="264" y="-250"/>
      <point x="459" y="-250" type="qcurve" smooth="yes"/>
      <point x="667" y="-250"/>
      <point x="712" y="-81" type="qcurve"/>
      <point x="723" y="-34"/>
      <point x="723" y="123" type="qcurve"/>
      <point x="618" y="0"/>
      <point x="463" y="0" type="qcurve" smooth="yes"/>
      <point x="271" y="0"/>
      <point x="159" y="145" type="qcurve" smooth="yes"/>
      <point x="58" y="275"/>
      <point x="58" y="474" type="qcurve" smooth="yes"/>
      <point x="58" y="770"/>
      <point x="248" y="897" type="qcurve" smooth="yes"/>
      <point x="340" y="958"/>
      <point x="464" y="958" type="qcurve" smooth="yes"/>
      <point x="631" y="958"/>
      <point x="738" y="824" type="qcurve"/>
      <point x="738" y="938" type="line"/>
      <point x="884" y="938" type="line"/>
    </contour>
    <contour>
      <point x="736" y="481" type="line"/>
      <point x="736" y="620"/>
      <point x="678" y="714" type="qcurve" smooth="yes"/>
      <point x="607" y="828"/>
      <point x="476" y="828" type="qcurve" smooth="yes"/>
      <point x="345" y="828"/>
      <point x="278" y="716" type="qcurve" smooth="yes"/>
      <point x="222" y="624"/>
      <point x="222" y="486" type="qcurve" smooth="yes"/>
      <point x="222" y="338"/>
      <point x="275" y="246" type="qcurve" smooth="yes"/>
      <point x="342" y="132"/>
      <point x="479" y="132" type="qcurve" smooth="yes"/>
      <point x="614" y="132"/>
      <point x="681" y="244" type="qcurve" smooth="yes"/>
      <point x="736" y="335"/>
      <point x="736" y="481" type="qcurve"/>
    </contour>
  </outline>
</glyph>
<glyph name="i" format="2">
  <advance width="402"/>
  <unicode hex="0069"/>
  <outline>
    <contour>
      <point x="278" y="1112" type="line"/>
      <point x="119" y="1112" type="line"/>
      <point x="119" y="1294" type="line"/>
      <point x="278" y="1294" type="line"/>
    </contour>
    <contour>
      <point x="278" y="0" type="line"/>
      <point x="119" y="0" type="line"/>
      <point x="119" y="938" type="line"/>
      <point x="278" y="938" type="line"/>
    </contour>
  </outline>
</glyph>
<glyph name="j" format="2">
  <advance width="402"/>
  <unicode hex="006A"/>
  <outline>
    <contour>
      <point x="276.277" y="1109.52" type="line"/>
      <point x="117.396" y="1109.52" type="line"/>
      <point x="117.396" y="1294" type="line"/>
      <point x="276.277" y="1294" type="line"/>
    </contour>
    <contour>
      <point x="276.277" y="-50.312" type="line" smooth="yes"/>
      <point x="276.277" y="-224.199"/>
      <point x="231.261" y="-293.048" type="qcurve" smooth="yes"/>
      <point x="173.887" y="-379.55"/>
      <point x="41.486" y="-379.55" type="qcurve" smooth="yes"/>
      <point x="-23.832" y="-379.55"/>
      <point x="-82.971" y="-363.662" type="qcurve"/>
      <point x="-52.078" y="-227.73" type="line"/>
      <point x="-5.29599" y="-240.087"/>
      <point x="22.067" y="-240.087" type="qcurve" smooth="yes"/>
      <point x="90.033" y="-240.087"/>
      <point x="110.334" y="-173.887" type="qcurve"/>
      <point x="117.396" y="-141.228"/>
      <point x="117.396" y="-46.782" type="qcurve" smooth="yes"/>
      <point x="117.396" y="938.282" type="line"/>
      <point x="276.277" y="938.282" type="line"/>
    </contour>
  </outline>
</glyph>
<glyph name="k" format="2">
  <advance width="904"/>
  <unicode hex="006B"/>
  <outline>
    <contour>
      <point x="896.797" y="0" type="line"/>
      <point x="701.726" y="0" type="line"/>
      <point x="390.142" y="479.292" type="line"/>
      <point x="278.042" y="372.488" type="line"/>
      <point x="278.042" y="0" type="line"/>
      <point x="119.161" y="0" type="line"/>
      <point x="119.161" y="1294" type="line"/>
      <point x="278.042" y="1294" type="line"/>
      <point x="278.042" y="556.967" type="line"/>
      <point x="654.061" y="938.282" type="line"/>
      <point x="860.607" y="938.282" type="line"/>
      <point x="502.242" y="589.626" type="line"/>
    </contour>
  </outline>
</glyph>
<glyph name="l" format="2">
  <advance width="402"/>
  <unicode hex="006C"/>
  <outline>
    <contour>
      <point x="274.512" y="0" type="line"/>
      <point x="115.63" y="0" type="line"/>
      <point x="115.63" y="1294" type="line"/>
      <point x="274.512" y="1294" type="line"/>
    </contour>
  </outline>
</glyph>
<glyph name="m" format="2">
  <advance width="1506"/>
  <unicode hex="006D"/>
  <outline>
    <contour>
      <point x="1390.21" y="0" type="line"/>
      <point x="1231.33" y="0" type="line"/>
      <point x="1231.33" y="591.392" type="line" smooth="yes"/>
      <point x="1231.33" y="669.067"/>
      <point x="1221.62" y="705.257" type="qcurve"/>
      <point x="1207.5" y="764.396"/>
      <point x="1160.72" y="795.289" type="qcurve"/>
      <point x="1119.23" y="820.887"/>
      <point x="1064.5" y="820.887" type="qcurve" smooth="yes"/>
      <point x="947.109" y="820.887"/>
      <point x="887.97" y="739.681" type="qcurve" smooth="yes"/>
      <point x="835.01" y="667.302"/>
      <point x="835.01" y="543.727" type="qcurve" smooth="yes"/>
      <point x="835.01" y="0" type="line"/>
      <point x="676.128" y="0" type="line"/>
      <point x="676.128" y="609.045" type="line" smooth="yes"/>
      <point x="676.128" y="820.887"/>
      <point x="510.186" y="820.887" type="qcurve" smooth="yes"/>
      <point x="355.718" y="820.887"/>
      <point x="303.64" y="681.424" type="qcurve" smooth="yes"/>
      <point x="278.042" y="614.341"/>
      <point x="278.042" y="486.353" type="qcurve" smooth="yes"/>
      <point x="278.042" y="0" type="line"/>
      <point x="119.161" y="0" type="line"/>
      <point x="119.161" y="938.282" type="line"/>
      <point x="262.154" y="938.282" type="line"/>
      <point x="262.154" y="805.881" type="line"/>
      <point x="360.131" y="957.701"/>
      <point x="545.493" y="957.701" type="qcurve" smooth="yes"/>
      <point x="752.038" y="957.701"/>
      <point x="810.295" y="793.524" type="qcurve"/>
      <point x="921.512" y="957.701"/>
      <point x="1098.93" y="957.701" type="qcurve" smooth="yes"/>
      <point x="1390.21" y="957.701"/>
      <point x="1390.21" y="643.469" type="qcurve" smooth="yes"/>
    </contour>
  </outline>
</glyph>
<glyph name="n" format="2">
  <advance width="1005"/>
  <unicode hex="006E"/>
  <outline>
    <contour>
      <point x="880" y="0" type="line"/>
      <point x="721" y="0" type="line"/>
      <point x="721" y="569" type="line" smooth="yes"/>
      <point x="721" y="741"/>
      <point x="638" y="792" type="qcurve" smooth="yes"/>
      <point x="591" y="821"/>
      <point x="528" y="821" type="qcurve" smooth="yes"/>
      <point x="278" y="821"/>
      <point x="278" y="512" type="qcurve" smooth="yes"/>
      <point x="278" y="0" type="line"/>
      <point x="119" y="0" type="line"/>
      <point x="119" y="938" type="line"/>
      <point x="262" y="938" type="line"/>
      <point x="262" y="804" type="line"/>
      <point x="365" y="958"/>
      <point x="560" y="958" type="qcurve" smooth="yes"/>
      <point x="743" y="958"/>
      <point x="823" y="848" type="qcurve" smooth="yes"/>
      <point x="859" y="799"/>
      <point x="871" y="730" type="qcurve"/>
      <point x="880" y="687"/>
      <point x="880" y="576" type="qcurve" smooth="yes"/>
    </contour>
  </outline>
</glyph>
<glyph name="o" format="2">
  <advance width="1005"/>
  <unicode hex="006F"/>
  <outline>
    <contour>
      <point x="938" y="483" type="line"/>
      <point x="938" y="154"/>
      <point x="726" y="36" type="qcurve" smooth="yes"/>
      <point x="622" y="-22"/>
      <point x="499" y="-22" type="qcurve" smooth="yes"/>
      <point x="286" y="-22"/>
      <point x="168" y="119" type="qcurve" smooth="yes"/>
      <point x="60" y="250"/>
      <point x="60" y="468" type="qcurve" smooth="yes"/>
      <point x="60" y="687"/>
      <point x="170" y="819" type="qcurve" smooth="yes"/>
      <point x="286" y="958"/>
      <point x="499" y="958" type="qcurve" smooth="yes"/>
      <point x="707" y="958"/>
      <point x="826" y="823" type="qcurve" smooth="yes"/>
      <point x="938" y="692"/>
      <point x="938" y="483" type="qcurve"/>
    </contour>
    <contour>
      <point x="776" y="474" type="line"/>
      <point x="776" y="620"/>
      <point x="712" y="716" type="qcurve" smooth="yes"/>
      <point x="638" y="828"/>
      <point x="499" y="828" type="qcurve" smooth="yes"/>
      <point x="358" y="828"/>
      <point x="284" y="714" type="qcurve" smooth="yes"/>
      <point x="224" y="620"/>
      <point x="224" y="468" type="qcurve" smooth="yes"/>
      <point x="224" y="318"/>
      <point x="284" y="222" type="qcurve"/>
      <point x="358" y="110"/>
      <point x="499" y="110" type="qcurve" smooth="yes"/>
      <point x="643" y="110"/>
      <point x="716" y="226" type="qcurve" smooth="yes"/>
      <point x="776" y="322"/>
      <point x="776" y="474" type="qcurve"/>
    </contour>
  </outline>
</glyph>
<glyph name="p" format="2">
  <advance width="1005"/>
  <unicode hex="0070"/>
  <outline>
    <contour>
      <point x="932.986" y="475.761" type="line"/>
      <point x="932.986" y="165.943"/>
      <point x="731.737" y="39.7203" type="qcurve" smooth="yes"/>
      <point x="632.877" y="-22.0668"/>
      <point x="524.308" y="-22.0668" type="qcurve" smooth="yes"/>
      <point x="372.488" y="-22.0668"/>
      <point x="278.042" y="97.9768" type="qcurve"/>
      <point x="278.042" y="-360.131" type="line"/>
      <point x="119.161" y="-360.131" type="line"/>
      <point x="119.161" y="938.282" type="line"/>
      <point x="263.919" y="938.282" type="line"/>
      <point x="263.919" y="815.591" type="line"/>
      <point x="367.192" y="957.701"/>
      <point x="534.9" y="957.701" type="qcurve" smooth="yes"/>
      <point x="788.228" y="957.701"/>
      <point x="886.205" y="722.91" type="qcurve" smooth="yes"/>
      <point x="932.986" y="609.045"/>
      <point x="932.986" y="475.761" type="qcurve"/>
    </contour>
    <contour>
      <point x="769.692" y="477.527" type="line"/>
      <point x="769.692" y="616.106"/>
      <point x="717.614" y="714.083" type="qcurve" smooth="yes"/>
      <point x="650.531" y="833.244"/>
      <point x="520.778" y="833.244" type="qcurve" smooth="yes"/>
      <point x="390.142" y="833.244"/>
      <point x="319.528" y="707.022" type="qcurve" smooth="yes"/>
      <point x="263.919" y="603.749"/>
      <point x="263.919" y="462.521" type="qcurve" smooth="yes"/>
      <point x="263.919" y="319.528"/>
      <point x="315.997" y="225.965" type="qcurve" smooth="yes"/>
      <point x="381.315" y="110.334"/>
      <point x="513.716" y="110.334" type="qcurve" smooth="yes"/>
      <point x="648.765" y="110.334"/>
      <point x="715.849" y="231.261" type="qcurve" smooth="yes"/>
      <point x="769.692" y="329.237"/>
      <point x="769.692" y="477.527" type="qcurve"/>
    </contour>
  </outline>
</glyph>
<glyph name="q" format="2">
  <advance width="1005"/>
  <unicode hex="0071"/>
  <outline>
    <contour>
      <point x="874.73" y="-360.131" type="line"/>
      <point x="715.849" y="-360.131" type="line"/>
      <point x="715.849" y="99.7422" type="line"/>
      <point x="631.112" y="-22.0668"/>
      <point x="472.231" y="-22.0668" type="qcurve" smooth="yes"/>
      <point x="278.042" y="-22.0668"/>
      <point x="164.177" y="135.932" type="qcurve" smooth="yes"/>
      <point x="63.5525" y="276.277"/>
      <point x="63.5525" y="477.527" type="qcurve" smooth="yes"/>
      <point x="63.5525" y="782.932"/>
      <point x="255.093" y="900.328" type="qcurve" smooth="yes"/>
      <point x="346.891" y="957.701"/>
      <point x="458.99" y="957.701" type="qcurve" smooth="yes"/>
      <point x="632.877" y="957.701"/>
      <point x="731.737" y="812.06" type="qcurve"/>
      <point x="731.737" y="938.283" type="line"/>
      <point x="874.73" y="938.283" type="line"/>
    </contour>
    <contour>
      <point x="731.737" y="457.225" type="line"/>
      <point x="731.737" y="601.984"/>
      <point x="677.894" y="705.257" type="qcurve" smooth="yes"/>
      <point x="607.28" y="833.244"/>
      <point x="473.996" y="833.244" type="qcurve" smooth="yes"/>
      <point x="341.595" y="833.244"/>
      <point x="276.277" y="712.318" type="qcurve" smooth="yes"/>
      <point x="225.965" y="616.106"/>
      <point x="225.965" y="472.231" type="qcurve" smooth="yes"/>
      <point x="225.965" y="327.472"/>
      <point x="281.573" y="229.495" type="qcurve" smooth="yes"/>
      <point x="350.422" y="110.334"/>
      <point x="484.588" y="110.334" type="qcurve" smooth="yes"/>
      <point x="612.576" y="110.334"/>
      <point x="679.659" y="224.199" type="qcurve"/>
      <point x="731.737" y="317.763"/>
      <point x="731.737" y="457.225" type="qcurve"/>
    </contour>
  </outline>
</glyph>
<glyph name="t" format="2">
  <advance width="502"/>
  <unicode hex="0074"/>
  <outline>
    <contour>
      <point x="490" y="2" type="line"/>
      <point x="421" y="-12"/>
      <point x="369" y="-12" type="qcurve" smooth="yes"/>
      <point x="212" y="-12"/>
      <point x="168" y="87" type="qcurve" smooth="yes"/>
      <point x="148" y="132"/>
      <point x="148" y="275" type="qcurve" smooth="yes"/>
      <point x="148" y="814" type="line"/>
      <point x="33" y="814" type="line"/>
      <point x="33" y="938" type="line"/>
      <point x="148" y="938" type="line"/>
      <point x="148" y="1170" type="line"/>
      <point x="305" y="1266" type="line"/>
      <point x="305" y="938" type="line"/>
      <point x="466" y="938" type="line"/>
      <point x="466" y="814" type="line"/>
      <point x="305" y="814" type="line"/>
      <point x="305" y="266" type="line" smooth="yes"/>
      <point x="305" y="197"/>
      <point x="318" y="172" type="qcurve" smooth="yes"/>
      <point x="336" y="136"/>
      <point x="396" y="136" type="qcurve" smooth="yes"/>
      <point x="423" y="136"/>
      <point x="466" y="143" type="qcurve"/>
    </contour>
  </outline>
</glyph>
<glyph name="u" format="2">
  <advance width="1005"/>
  <unicode hex="0075"/>
  <outline>
    <contour>
      <point x="874.73" y="0" type="line"/>
      <point x="733.502" y="0" type="line"/>
      <point x="733.502" y="137.697" type="line"/>
      <point x="624.05" y="-22.067"/>
      <point x="436.041" y="-22.067" type="qcurve" smooth="yes"/>
      <point x="361.896" y="-22.067"/>
      <point x="293.048" y="5.296" type="qcurve" smooth="yes"/>
      <point x="213.095" y="35.8164"/>
      <point x="173.887" y="90.033" type="qcurve" smooth="yes"/>
      <point x="138.39" y="138.987"/>
      <point x="124.457" y="208.311" type="qcurve" smooth="yes"/>
      <point x="115.076" y="254.985"/>
      <point x="115.63" y="355.718" type="qcurve" smooth="yes"/>
      <point x="115.63" y="938.282" type="line"/>
      <point x="274.512" y="938.282" type="line"/>
      <point x="274.512" y="417.505" type="line" smooth="yes"/>
      <point x="274.512" y="291.282"/>
      <point x="284.221" y="249.797" type="qcurve" smooth="yes"/>
      <point x="315.997" y="115.63"/>
      <point x="467.817" y="115.63" type="qcurve" smooth="yes"/>
      <point x="538.431" y="115.63"/>
      <point x="665.536" y="188.01"/>
      <point x="715.849" y="314.232"/>
      <point x="715.849" y="436.041" type="qcurve" smooth="yes"/>
      <point x="715.849" y="938.282" type="line"/>
      <point x="874.73" y="938.282" type="line"/>
    </contour>
  </outline>
</glyph>
<glyph name="v" format="2">
  <advance width="904"/>
  <unicode hex="0076"/>
  <outline>
    <contour>
      <point x="881.791" y="938.282" type="line"/>
      <point x="527.839" y="0" type="line"/>
      <point x="379.55" y="0" type="line"/>
      <point x="23.8322" y="938.282" type="line"/>
      <point x="189.775" y="938.282" type="line"/>
      <point x="391.907" y="376.019" type="line" smooth="yes"/>
      <point x="424.566" y="284.221"/>
      <point x="451.929" y="188.01" type="qcurve"/>
      <point x="473.996" y="260.389"/>
      <point x="511.951" y="365.427" type="qcurve" smooth="yes"/>
      <point x="719.379" y="938.282" type="line"/>
    </contour>
  </outline>
</glyph>
<glyph name="x" format="2">
  <advance width="904"/>
  <unicode hex="0078"/>
  <outline>
    <contour>
      <point x="892" y="0" type="line"/>
      <point x="696" y="0" type="line"/>
      <point x="452" y="371" type="line"/>
      <point x="206" y="0" type="line"/>
      <point x="12" y="0" type="line"/>
      <point x="356" y="488" type="line"/>
      <point x="38" y="938" type="line"/>
      <point x="237" y="938" type="line"/>
      <point x="381" y="718" type="line" smooth="yes"/>
      <point x="418" y="662"/>
      <point x="447" y="613" type="qcurve"/>
      <point x="478" y="658"/>
      <point x="519" y="716" type="qcurve" smooth="yes"/>
      <point x="676" y="938" type="line"/>
      <point x="866" y="938" type="line"/>
      <point x="542" y="495" type="line"/>
    </contour>
  </outline>
</glyph>
<glyph name="y" format="2">
  <advance width="904"/>
  <unicode hex="0079"/>
  <outline>
    <contour>
      <point x="887.97" y="938.282" type="line"/>
      <point x="531.37" y="-15.8881" type="line" smooth="yes"/>
      <point x="473.996" y="-172.121"/>
      <point x="443.102" y="-227.73" type="qcurve" smooth="yes"/>
      <point x="360.131" y="-379.55"/>
      <point x="215.372" y="-379.55" type="qcurve" smooth="yes"/>
      <point x="167.708" y="-379.55"/>
      <point x="112.1" y="-361.896" type="qcurve"/>
      <point x="93.5634" y="-211.842" type="line"/>
      <point x="146.524" y="-225.965"/>
      <point x="186.244" y="-225.965" type="qcurve" smooth="yes"/>
      <point x="279.808" y="-225.965"/>
      <point x="322.176" y="-158.881" type="qcurve" smooth="yes"/>
      <point x="338.064" y="-134.166"/>
      <point x="370.723" y="-39.7203" type="qcurve" smooth="yes"/>
      <point x="377.784" y="-20.3015"/>
      <point x="384.846" y="-1.76534" type="qcurve"/>
      <point x="29.1283" y="938.282" type="line"/>
      <point x="200.367" y="938.282" type="line"/>
      <point x="396.321" y="393.673" type="line" smooth="yes"/>
      <point x="436.041" y="281.573"/>
      <point x="462.521" y="177.417" type="qcurve"/>
      <point x="491.649" y="289.517"/>
      <point x="527.839" y="390.142" type="qcurve" smooth="yes"/>
      <point x="728.206" y="938.282" type="line"/>
    </contour>
  </outline>
</glyph>
<glyph name="z" format="2">
  <advance width="904"/>
  <unicode hex="007A"/>
  <outline>
    <contour>
      <point x="866" y="0" type="line"/>
      <point x="36" y="0" type="line"/>
      <point x="36" y="128" type="line"/>
      <point x="633" y="814" type="line"/>
      <point x="530" y="808"/>
      <point x="452" y="808" type="qcurve" smooth="yes"/>
      <point x="71" y="808" type="line"/>
      <point x="71" y="938" type="line"/>
      <point x="837" y="938" type="line"/>
      <point x="837" y="831" type="line"/>
      <point x="231" y="128" type="line"/>
      <point x="338" y="138"/>
      <point x="432" y="138" type="qcurve" smooth="yes"/>
      <point x="866" y="138" type="line"/>
    </contour>
  </outline>
</glyph>
<glyph name="braceleft" format="2">
  <advance width="604"/>
  <unicode hex="007B"/>
  <outline>
    <contour>
      <point x="562.263" y="-379.55" type="line"/>
      <point x="511.951" y="-379.55" type="line" smooth="yes"/>
      <point x="425.931" y="-380.771"/>
      <point x="386.611" y="-367.192" type="qcurve" smooth="yes"/>
      <point x="265.538" y="-325.391"/>
      <point x="243.618" y="-186.244" type="qcurve" smooth="yes"/>
      <point x="236.837" y="-143.201"/>
      <point x="238.322" y="139.462"/>
      <point x="227.73" y="208.311" type="qcurve" smooth="yes"/>
      <point x="212.443" y="318.5"/>
      <point x="160.647" y="360.131" type="qcurve" smooth="yes"/>
      <point x="117.986" y="394.42"/>
      <point x="50.312" y="396.321" type="qcurve"/>
      <point x="50.312" y="540.196" type="line"/>
      <point x="189.392" y="543.404"/>
      <point x="218.903" y="672.598" type="qcurve" smooth="yes"/>
      <point x="236.217" y="733.238"/>
      <point x="233.026" y="880.026" type="qcurve" smooth="yes"/>
      <point x="229.496" y="947.7"/>
      <point x="238.322" y="1075.98" type="qcurve" smooth="yes"/>
      <point x="251.543" y="1268.14"/>
      <point x="403.382" y="1307.24" type="qcurve" smooth="yes"/>
      <point x="434.276" y="1316.07"/>
      <point x="511.951" y="1316.07" type="qcurve" smooth="yes"/>
      <point x="562.263" y="1316.07" type="line"/>
      <point x="562.263" y="1176.6" type="line"/>
      <point x="533.135" y="1176.6" type="line" smooth="yes"/>
      <point x="436.554" y="1176.23"/>
      <point x="406.913" y="1135.12" type="qcurve" smooth="yes"/>
      <point x="381.823" y="1100.32"/>
      <point x="381.315" y="995.656" type="qcurve" smooth="yes"/>
      <point x="381.315" y="762.63"/>
      <point x="372.488" y="705.256" type="qcurve" smooth="yes"/>
      <point x="358.366" y="612.576"/>
      <point x="279.808" y="507.537"/>
      <point x="196.836" y="467.817" type="qcurve"/>
      <point x="314.232" y="419.27"/>
      <point x="353.952" y="305.405" type="qcurve" smooth="yes"/>
      <point x="381.315" y="225.964"/>
      <point x="381.315" y="70.614" type="qcurve" smooth="yes"/>
      <point x="381.315" y="-103.273"/>
      <point x="384.846" y="-134.166" type="qcurve" smooth="yes"/>
      <point x="393.009" y="-201.408"/>
      <point x="429.862" y="-224.199" type="qcurve" smooth="yes"/>
      <point x="460.125" y="-242.914"/>
      <point x="533.135" y="-241.853" type="qcurve" smooth="yes"/>
      <point x="562.263" y="-241.853" type="line"/>
    </contour>
  </outline>
</glyph>
<glyph name="bar" format="2">
  <advance width="470"/>
  <unicode hex="007C"/>
  <outline>
    <contour>
      <point x="303.64" y="-379.55" type="line"/>
      <point x="165.943" y="-379.55" type="line"/>
      <point x="165.943" y="1316.07" type="line"/>
      <point x="303.64" y="1316.07" type="line"/>
    </contour>
  </outline>
</glyph>
<glyph name="braceright" format="2">
  <advance width="604"/>
  <unicode hex="007D"/>
  <outline>
    <contour>
      <point x="553.437" y="396.321" type="line"/>
      <point x="415.739" y="391.907"/>
      <point x="384.846" y="263.92" type="qcurve" smooth="yes"/>
      <point x="368.958" y="195.071"/>
      <point x="368.958" y="65.318" type="qcurve"/>
      <point x="370.007" y="-93.6558"/>
      <point x="365.427" y="-139.463" type="qcurve" smooth="yes"/>
      <point x="346.372" y="-330.053"/>
      <point x="200.367" y="-370.723" type="qcurve" smooth="yes"/>
      <point x="166.133" y="-380.259"/>
      <point x="90.033" y="-379.55" type="qcurve"/>
      <point x="41.486" y="-379.55" type="line"/>
      <point x="41.486" y="-241.853" type="line"/>
      <point x="68.849" y="-241.853" type="line" smooth="yes"/>
      <point x="165.943" y="-241.853"/>
      <point x="196.836" y="-198.602" type="qcurve" smooth="yes"/>
      <point x="220.668" y="-165.943"/>
      <point x="220.668" y="-60.022" type="qcurve"/>
      <point x="219.49" y="162.567"/>
      <point x="227.73" y="220.668" type="qcurve" smooth="yes"/>
      <point x="253.917" y="405.318"/>
      <point x="405.147" y="467.817" type="qcurve"/>
      <point x="287.752" y="524.308"/>
      <point x="248.031" y="631.112" type="qcurve" smooth="yes"/>
      <point x="220.668" y="707.022"/>
      <point x="220.668" y="865.903" type="qcurve"/>
      <point x="221.584" y="1031.94"/>
      <point x="217.138" y="1071.57" type="qcurve" smooth="yes"/>
      <point x="209.555" y="1139.34"/>
      <point x="172.121" y="1160.72" type="qcurve" smooth="yes"/>
      <point x="143.314" y="1177.18"/>
      <point x="68.849" y="1176.6" type="qcurve"/>
      <point x="41.486" y="1176.6" type="line"/>
      <point x="41.486" y="1316.07" type="line"/>
      <point x="90.033" y="1316.07" type="line" smooth="yes"/>
      <point x="175.652" y="1316.07"/>
      <point x="217.138" y="1301.94" type="qcurve" smooth="yes"/>
      <point x="336.299" y="1259.58"/>
      <point x="358.366" y="1121" type="qcurve" smooth="yes"/>
      <point x="368.111" y="1055.69"/>
      <point x="367.192" y="896.797" type="qcurve" smooth="yes"/>
      <point x="366.345" y="750.275"/>
      <point x="384.846" y="672.598" type="qcurve" smooth="yes"/>
      <point x="415.739" y="543.727"/>
      <point x="553.437" y="540.196" type="qcurve"/>
    </contour>
  </outline>
</glyph>
<glyph name="quoteright" format="2">
  <advance width="316"/>
  <unicode hex="2019"/>
  <outline>
    <contour>
      <point x="260.389" y="1077.74" type="curve" smooth="yes"/>
      <point x="233.026" y="988.595"/>
      <point x="146.524" y="903.858"/>
      <point x="72.379" y="835.01" type="curve"/>
      <point x="19.419" y="835.01" type="line"/>
      <point x="38.838" y="915.333"/>
      <point x="68.849" y="995.656"/>
      <point x="79.441" y="1077.74" type="curve" smooth="yes"/>
      <point x="88.267" y="1148.36"/>
      <point x="97.094" y="1222.5"/>
      <point x="79.441" y="1294" type="curve"/>
      <point x="260.389" y="1294" type="line"/>
      <point x="278.042" y="1222.5"/>
      <point x="281.573" y="1145.71"/>
    </contour>
  </outline>
</glyph>
<glyph name="uniE000" format="2">
  <advance width="1072"/>
  <unicode hex="E000"/>
  <outline>
    <contour>
      <point x="1068.04" y="361.896" type="line"/>
      <point x="1068.04" y="189.775"/>
      <point x="974.472" y="61.7872" type="qcurve" smooth="yes"/>
      <point x="871.199" y="-81.206"/>
      <point x="707.022" y="-81.206" type="qcurve" smooth="yes"/>
      <point x="558.733" y="-81.206"/>
      <point x="467.817" y="25.5975" type="qcurve" smooth="yes"/>
      <point x="383.081" y="124.457"/>
      <point x="383.081" y="274.512" type="qcurve" smooth="yes"/>
      <point x="383.081" y="396.321"/>
      <point x="475.761" y="496.945" type="qcurve" smooth="yes"/>
      <point x="555.202" y="581.682"/>
      <point x="679.659" y="632.877" type="qcurve"/>
      <point x="634.643" y="641.704"/>
      <point x="584.33" y="641.704" type="qcurve" smooth="yes"/>
      <point x="548.141" y="641.704"/>
      <point x="500.476" y="686.72"/>
      <point x="500.476" y="722.91" type="qcurve" smooth="yes"/>
      <point x="500.476" y="759.1"/>
      <point x="548.141" y="804.116"/>
      <point x="584.33" y="804.116" type="qcurve" smooth="yes"/>
      <point x="795.289" y="804.116"/>
      <point x="878.261" y="925.925" type="qcurve"/>
      <point x="905.624" y="962.115"/>
      <point x="905.624" y="995.656" type="qcurve" smooth="yes"/>
      <point x="905.624" y="1028.32"/>
      <point x="878.261" y="1064.5" type="qcurve"/>
      <point x="795.289" y="1185.43"/>
      <point x="584.33" y="1185.43" type="qcurve" smooth="yes"/>
      <point x="434.276" y="1185.43"/>
      <point x="312.467" y="1109.52" type="qcurve" smooth="yes"/>
      <point x="284.221" y="1091.87"/>
      <point x="262.154" y="1091.87" type="qcurve" smooth="yes"/>
      <point x="229.495" y="1091.87"/>
      <point x="180.948" y="1143.95"/>
      <point x="180.948" y="1176.6" type="qcurve" smooth="yes"/>
      <point x="180.948" y="1209.26"/>
      <point x="213.607" y="1240.16" type="qcurve"/>
      <point x="270.981" y="1290.47"/>
      <point x="388.377" y="1321.36" type="qcurve" smooth="yes"/>
      <point x="491.649" y="1348.73"/>
      <point x="584.33" y="1348.73" type="qcurve" smooth="yes"/>
      <point x="760.865" y="1348.73"/>
      <point x="902.093" y="1262.22" type="qcurve" smooth="yes"/>
      <point x="1068.04" y="1160.72"/>
      <point x="1068.04" y="995.656" type="qcurve" smooth="yes"/>
      <point x="1068.04" y="822.652"/>
      <point x="887.97" y="719.379" type="qcurve"/>
      <point x="1068.04" y="603.749"/>
      <point x="1068.04" y="361.896" type="qcurve"/>
    </contour>
    <contour>
      <point x="905.624" y="361.896" type="line"/>
      <point x="905.624" y="450.164"/>
      <point x="865.903" y="513.716" type="qcurve"/>
      <point x="759.1" y="500.476"/>
      <point x="663.771" y="441.337" type="qcurve" smooth="yes"/>
      <point x="545.493" y="368.958"/>
      <point x="545.493" y="274.512" type="qcurve" smooth="yes"/>
      <point x="545.493" y="193.306"/>
      <point x="584.33" y="141.228" type="qcurve" smooth="yes"/>
      <point x="627.581" y="81.206"/>
      <point x="707.022" y="81.206" type="qcurve" smooth="yes"/>
      <point x="800.585" y="81.206"/>
      <point x="857.076" y="179.183" type="qcurve" smooth="yes"/>
      <point x="905.624" y="260.389"/>
      <point x="905.624" y="361.896" type="qcurve"/>
    </contour>
  </outline>
</glyph>
<glyph name="uniE003" format="2">
  <advance width="1294"/>
  <unicode hex="E003"/>
  <outline>
    <contour>
      <point x="1294" y="361.896" type="line"/>
      <point x="1294" y="189.775"/>
      <point x="1200.44" y="61.7872" type="qcurve" smooth="yes"/>
      <point x="1097.16" y="-81.206"/>
      <point x="932.986" y="-81.206" type="qcurve" smooth="yes"/>
      <point x="817.356" y="-81.206"/>
      <point x="733.502" y="-12.3574" type="qcurve" smooth="yes"/>
      <point x="655.827" y="50.3124"/>
      <point x="625.816" y="157.116" type="qcurve"/>
      <point x="379.55" y="157.116" type="line"/>
      <point x="399.851" y="141.228"/>
      <point x="422.801" y="129.753" type="qcurve"/>
      <point x="475.761" y="110.334"/>
      <point x="475.761" y="58.2565" type="qcurve" smooth="yes"/>
      <point x="475.761" y="25.5975"/>
      <point x="429.862" y="-27.3629"/>
      <point x="396.321" y="-27.3629" type="qcurve" smooth="yes"/>
      <point x="379.55" y="-27.3629"/>
      <point x="363.662" y="-20.3015" type="qcurve"/>
      <point x="281.573" y="10.5921"/>
      <point x="180.948" y="151.82"/>
      <point x="180.948" y="238.322" type="qcurve" smooth="yes"/>
      <point x="180.948" y="327.472"/>
      <point x="281.573" y="466.052"/>
      <point x="363.662" y="498.711" type="qcurve"/>
      <point x="379.55" y="505.772"/>
      <point x="396.321" y="505.772" type="qcurve" smooth="yes"/>
      <point x="429.862" y="505.772"/>
      <point x="475.761" y="453.694"/>
      <point x="475.761" y="421.035" type="qcurve" smooth="yes"/>
      <point x="475.761" y="368.958"/>
      <point x="422.801" y="346.891" type="qcurve"/>
      <point x="399.851" y="338.064"/>
      <point x="379.55" y="319.528" type="qcurve"/>
      <point x="612.576" y="319.528" type="line"/>
      <point x="643.469" y="526.074"/>
      <point x="905.624" y="632.877" type="qcurve"/>
      <point x="860.607" y="641.704"/>
      <point x="812.06" y="641.704" type="qcurve" smooth="yes"/>
      <point x="726.441" y="641.704"/>
      <point x="726.441" y="722.91" type="qcurve" smooth="yes"/>
      <point x="726.441" y="804.116"/>
      <point x="812.06" y="804.116" type="qcurve" smooth="yes"/>
      <point x="1021.25" y="804.116"/>
      <point x="1105.99" y="925.925" type="qcurve"/>
      <point x="1131.59" y="959.467"/>
      <point x="1131.59" y="995.656" type="qcurve" smooth="yes"/>
      <point x="1131.59" y="1028.32"/>
      <point x="1105.99" y="1064.5" type="qcurve" smooth="yes"/>
      <point x="1021.25" y="1185.43"/>
      <point x="812.06" y="1185.43" type="qcurve" smooth="yes"/>
      <point x="654.061" y="1185.43"/>
      <point x="538.431" y="1109.52" type="qcurve" smooth="yes"/>
      <point x="511.951" y="1091.87"/>
      <point x="489.884" y="1091.87" type="qcurve" smooth="yes"/>
      <point x="455.46" y="1091.87"/>
      <point x="406.913" y="1143.95"/>
      <point x="406.913" y="1176.6" type="qcurve" smooth="yes"/>
      <point x="406.913" y="1211.03"/>
      <point x="441.337" y="1240.16" type="qcurve" smooth="yes"/>
      <point x="498.711" y="1290.47"/>
      <point x="616.106" y="1321.36" type="qcurve" smooth="yes"/>
      <point x="717.614" y="1348.73"/>
      <point x="812.06" y="1348.73" type="qcurve" smooth="yes"/>
      <point x="988.595" y="1348.73"/>
      <point x="1129.82" y="1262.22" type="qcurve" smooth="yes"/>
      <point x="1294" y="1160.72"/>
      <point x="1294" y="995.656" type="qcurve" smooth="yes"/>
      <point x="1294" y="822.652"/>
      <point x="1115.7" y="719.379" type="qcurve"/>
      <point x="1294" y="603.749"/>
      <point x="1294" y="361.896" type="qcurve"/>
    </contour>
    <contour>
      <point x="1131.59" y="361.896" type="line"/>
      <point x="1131.59" y="450.164"/>
      <point x="1091.87" y="513.716" type="qcurve"/>
      <point x="979.768" y="498.711"/>
      <point x="883.557" y="437.806" type="qcurve" smooth="yes"/>
      <point x="771.457" y="365.427"/>
      <point x="771.457" y="274.512" type="qcurve" smooth="yes"/>
      <point x="771.457" y="193.306"/>
      <point x="810.295" y="141.228" type="qcurve" smooth="yes"/>
      <point x="853.546" y="81.206"/>
      <point x="932.986" y="81.206" type="qcurve" smooth="yes"/>
      <point x="1026.55" y="81.206"/>
      <point x="1083.04" y="179.183" type="qcurve" smooth="yes"/>
      <point x="1131.59" y="260.389"/>
      <point x="1131.59" y="361.896" type="qcurve"/>
    </contour>
  </outline>
</glyph>
<glyph name="uniE004" format="2">
  <advance width="1666"/>
  <unicode hex="E004"/>
  <outline>
    <contour>
      <point x="1525.86" y="132.401" type="qcurve" smooth="yes"/>
      <point x="1525.86" y="105.038"/>
      <point x="1502.03" y="77.675" type="qcurve" smooth="yes"/>
      <point x="1429.65" y="-7.061"/>
      <point x="1310.49" y="-7.061" type="qcurve" smooth="yes"/>
      <point x="1225.75" y="-7.061"/>
      <point x="1088.06" y="91.798"/>
      <point x="1062.46" y="172.121" type="qcurve"/>
      <point x="993.61" y="172.121" type="line"/>
      <point x="950.36" y="60.022"/>
      <point x="869.154" y="-7.061" type="qcurve" smooth="yes"/>
      <point x="780.887" y="-81.206"/>
      <point x="667.022" y="-81.206" type="qcurve" smooth="yes"/>
      <point x="518.733" y="-81.206"/>
      <point x="427.817" y="25.598" type="qcurve" smooth="yes"/>
      <point x="343.081" y="124.457"/>
      <point x="343.081" y="274.512" type="qcurve" smooth="yes"/>
      <point x="343.081" y="396.321"/>
      <point x="435.761" y="496.945" type="qcurve" smooth="yes"/>
      <point x="515.202" y="581.682"/>
      <point x="639.659" y="632.877" type="qcurve"/>
      <point x="594.643" y="641.704"/>
      <point x="544.33" y="641.704" type="qcurve" smooth="yes"/>
      <point x="460.476" y="641.704"/>
      <point x="460.476" y="722.91" type="qcurve" smooth="yes"/>
      <point x="460.476" y="804.116"/>
      <point x="544.33" y="804.116" type="qcurve" smooth="yes"/>
      <point x="744.697" y="804.116"/>
      <point x="832.965" y="916.216" type="qcurve" smooth="yes"/>
      <point x="865.624" y="955.936"/>
      <point x="865.624" y="995.656" type="qcurve" smooth="yes"/>
      <point x="865.624" y="1033.61"/>
      <point x="832.965" y="1074.21" type="qcurve" smooth="yes"/>
      <point x="744.697" y="1185.43"/>
      <point x="544.33" y="1185.43" type="qcurve" smooth="yes"/>
      <point x="386.332" y="1185.43"/>
      <point x="272.467" y="1109.52" type="qcurve" smooth="yes"/>
      <point x="245.986" y="1091.87"/>
      <point x="222.154" y="1091.87" type="qcurve" smooth="yes"/>
      <point x="189.495" y="1091.87"/>
      <point x="140.948" y="1143.95"/>
      <point x="140.948" y="1176.6" type="qcurve" smooth="yes"/>
      <point x="140.247" y="1211.84"/>
      <point x="173.607" y="1240.16" type="qcurve" smooth="yes"/>
      <point x="233.826" y="1291.29"/>
      <point x="350.142" y="1321.36" type="qcurve" smooth="yes"/>
      <point x="449.884" y="1348.73"/>
      <point x="544.33" y="1348.73" type="qcurve" smooth="yes"/>
      <point x="720.865" y="1348.73"/>
      <point x="862.093" y="1262.22" type="qcurve" smooth="yes"/>
      <point x="1028.04" y="1160.72"/>
      <point x="1028.04" y="995.656" type="qcurve" smooth="yes"/>
      <point x="1028.04" y="822.652"/>
      <point x="847.97" y="719.379" type="qcurve"/>
      <point x="1039.51" y="594.922"/>
      <point x="1026.27" y="334.533" type="qcurve"/>
      <point x="1062.46" y="334.533" type="line"/>
      <point x="1088.06" y="413.974"/>
      <point x="1225.75" y="513.716"/>
      <point x="1310.49" y="513.716" type="qcurve" smooth="yes"/>
      <point x="1391.7" y="513.716"/>
      <point x="1391.7" y="431.628" type="qcurve" smooth="yes"/>
      <point x="1391.7" y="350.422"/>
      <point x="1310.49" y="350.422" type="qcurve" smooth="yes"/>
      <point x="1269.01" y="350.422"/>
      <point x="1212.51" y="293.048"/>
      <point x="1212.51" y="253.327" type="qcurve" smooth="yes"/>
      <point x="1212.51" y="213.607"/>
      <point x="1269.01" y="155.351"/>
      <point x="1310.49" y="155.351" type="qcurve" smooth="yes"/>
      <point x="1346.68" y="155.351"/>
      <point x="1413.76" y="215.372"/>
      <point x="1440.24" y="215.372" type="qcurve" smooth="yes"/>
      <point x="1472.9" y="215.372"/>
      <point x="1525.86" y="165.943"/>
    </contour>
    <contour>
      <point x="865.624" y="450.164"/>
      <point x="825.903" y="513.716" type="qcurve"/>
      <point x="717.334" y="498.711"/>
      <point x="622.005" y="441.337" type="qcurve" smooth="yes"/>
      <point x="505.493" y="368.958"/>
      <point x="505.493" y="274.512" type="qcurve" smooth="yes"/>
      <point x="505.493" y="193.306"/>
      <point x="544.33" y="141.228" type="qcurve" smooth="yes"/>
      <point x="587.581" y="81.206"/>
      <point x="667.022" y="81.206" type="qcurve" smooth="yes"/>
      <point x="760.585" y="81.206"/>
      <point x="817.076" y="179.183" type="qcurve" smooth="yes"/>
      <point x="865.624" y="260.389"/>
      <point x="865.624" y="361.896" type="qcurve" smooth="yes"/>
    </contour>
  </outline>
</glyph>
<glyph name="uniE005" format="2">
  <advance width="1581"/>
  <unicode hex="E005"/>
  <outline>
    <contour>
      <point x="1440.24" y="1086.57" type="qcurve" smooth="yes"/>
      <point x="1440.24" y="1059.21"/>
      <point x="1417.29" y="1031.85" type="qcurve" smooth="yes"/>
      <point x="1344.92" y="947.109"/>
      <point x="1225.75" y="947.109" type="qcurve" smooth="yes"/>
      <point x="1102.18" y="947.109"/>
      <point x="1022.74" y="1043.32" type="qcurve"/>
      <point x="1028.04" y="1019.49"/>
      <point x="1028.04" y="995.656" type="qcurve" smooth="yes"/>
      <point x="1028.04" y="822.652"/>
      <point x="847.97" y="719.379" type="qcurve"/>
      <point x="1028.04" y="603.749"/>
      <point x="1028.04" y="361.896" type="qcurve" smooth="yes"/>
      <point x="1028.04" y="189.775"/>
      <point x="934.472" y="61.7869" type="qcurve" smooth="yes"/>
      <point x="831.199" y="-81.2061"/>
      <point x="667.022" y="-81.2061" type="qcurve" smooth="yes"/>
      <point x="518.733" y="-81.2061"/>
      <point x="427.817" y="25.5969" type="qcurve" smooth="yes"/>
      <point x="343.081" y="124.457"/>
      <point x="343.081" y="274.512" type="qcurve" smooth="yes"/>
      <point x="343.081" y="396.321"/>
      <point x="435.761" y="496.945" type="qcurve" smooth="yes"/>
      <point x="515.202" y="581.682"/>
      <point x="639.659" y="632.877" type="qcurve"/>
      <point x="594.643" y="641.704"/>
      <point x="544.33" y="641.704" type="qcurve" smooth="yes"/>
      <point x="508.141" y="641.704"/>
      <point x="460.476" y="686.72"/>
      <point x="460.476" y="722.91" type="qcurve" smooth="yes"/>
      <point x="460.476" y="759.1"/>
      <point x="508.141" y="804.116"/>
      <point x="544.33" y="804.116" type="qcurve" smooth="yes"/>
      <point x="753.878" y="805.089"/>
      <point x="838.261" y="925.925" type="qcurve" smooth="yes"/>
      <point x="864.237" y="963.123"/>
      <point x="865.624" y="995.656" type="qcurve" smooth="yes"/>
      <point x="864.331" y="1027.38"/>
      <point x="838.261" y="1064.5" type="qcurve" smooth="yes"/>
      <point x="753.975" y="1184.52"/>
      <point x="544.33" y="1185.43" type="qcurve" smooth="yes"/>
      <point x="394.276" y="1185.43"/>
      <point x="272.467" y="1109.52" type="qcurve" smooth="yes"/>
      <point x="244.221" y="1091.87"/>
      <point x="222.154" y="1091.87" type="qcurve" smooth="yes"/>
      <point x="189.495" y="1091.87"/>
      <point x="140.948" y="1143.95"/>
      <point x="140.948" y="1176.6" type="qcurve" smooth="yes"/>
      <point x="140.222" y="1210.05"/>
      <point x="173.607" y="1240.16" type="qcurve" smooth="yes"/>
      <point x="230.27" y="1291.27"/>
      <point x="348.377" y="1321.36" type="qcurve" smooth="yes"/>
      <point x="451.649" y="1348.73"/>
      <point x="544.33" y="1348.73" type="qcurve" smooth="yes"/>
      <point x="663.491" y="1348.73"/>
      <point x="777.356" y="1305.47" type="qcurve" smooth="yes"/>
      <point x="901.813" y="1256.05"/>
      <point x="967.13" y="1169.54" type="qcurve"/>
      <point x="965.37" y="1189.84"/>
      <point x="965.37" y="1207.5" type="qcurve" smooth="yes"/>
      <point x="965.37" y="1314.3"/>
      <point x="1117.19" y="1467.89"/>
      <point x="1225.75" y="1467.89" type="qcurve" smooth="yes"/>
      <point x="1306.96" y="1467.89"/>
      <point x="1306.96" y="1386.68" type="qcurve" smooth="yes"/>
      <point x="1306.96" y="1305.47"/>
      <point x="1225.75" y="1305.47" type="qcurve" smooth="yes"/>
      <point x="1186.03" y="1305.47"/>
      <point x="1127.78" y="1247.22"/>
      <point x="1127.78" y="1207.5" type="qcurve" smooth="yes"/>
      <point x="1127.78" y="1167.78"/>
      <point x="1186.03" y="1109.52"/>
      <point x="1225.75" y="1109.52" type="qcurve" smooth="yes"/>
      <point x="1261.94" y="1109.52"/>
      <point x="1328.14" y="1169.54"/>
      <point x="1355.51" y="1169.54" type="qcurve" smooth="yes"/>
      <point x="1389.93" y="1169.54"/>
      <point x="1440.24" y="1121"/>
    </contour>
    <contour>
      <point x="865.624" y="361.896" type="qcurve" smooth="yes"/>
      <point x="865.624" y="450.164"/>
      <point x="825.903" y="513.716" type="qcurve"/>
      <point x="719.1" y="500.476"/>
      <point x="623.771" y="441.337" type="qcurve" smooth="yes"/>
      <point x="505.493" y="368.958"/>
      <point x="505.493" y="274.512" type="qcurve" smooth="yes"/>
      <point x="505.493" y="193.306"/>
      <point x="544.33" y="141.228" type="qcurve" smooth="yes"/>
      <point x="587.581" y="81.206"/>
      <point x="667.022" y="81.206" type="qcurve" smooth="yes"/>
      <point x="760.585" y="81.206"/>
      <point x="817.076" y="179.183" type="qcurve" smooth="yes"/>
      <point x="865.624" y="260.389"/>
    </contour>
  </outline>
</glyph>
<glyph name="uniE006" format="2">
  <advance width="1343"/>
  <unicode hex="E006"/>
  <outline>
    <contour>
      <point x="1343.43" y="361.896" type="line"/>
      <point x="1343.43" y="189.775"/>
      <point x="1248.98" y="61.7872" type="qcurve" smooth="yes"/>
      <point x="1145.71" y="-81.206"/>
      <point x="981.533" y="-81.206" type="qcurve" smooth="yes"/>
      <point x="833.244" y="-81.206"/>
      <point x="743.212" y="25.5975" type="qcurve" smooth="yes"/>
      <point x="657.592" y="124.457"/>
      <point x="657.592" y="274.512" type="qcurve" smooth="yes"/>
      <point x="657.592" y="396.321"/>
      <point x="750.273" y="496.945" type="qcurve" smooth="yes"/>
      <point x="829.714" y="581.682"/>
      <point x="954.171" y="632.877" type="qcurve"/>
      <point x="909.154" y="641.704"/>
      <point x="860.607" y="641.704" type="qcurve" smooth="yes"/>
      <point x="824.418" y="641.704"/>
      <point x="775.87" y="686.72"/>
      <point x="775.87" y="722.91" type="qcurve" smooth="yes"/>
      <point x="775.87" y="759.1"/>
      <point x="824.418" y="804.116"/>
      <point x="860.607" y="804.116" type="qcurve" smooth="yes"/>
      <point x="1068.04" y="804.116"/>
      <point x="1151.89" y="919.746" type="qcurve" smooth="yes"/>
      <point x="1180.14" y="959.467"/>
      <point x="1180.14" y="995.656" type="qcurve" smooth="yes"/>
      <point x="1180.14" y="1028.32"/>
      <point x="1151.89" y="1069.8" type="qcurve"/>
      <point x="1068.04" y="1185.43"/>
      <point x="812.06" y="1185.43" type="qcurve" smooth="yes"/>
      <point x="728.206" y="1185.43"/>
      <point x="643.469" y="1171.31" type="qcurve" smooth="yes"/>
      <point x="553.437" y="1157.19"/>
      <point x="472.231" y="1128.06" type="qcurve" smooth="yes"/>
      <point x="343.36" y="1081.28"/>
      <point x="343.36" y="1026.55" type="qcurve" smooth="yes"/>
      <point x="343.36" y="986.83"/>
      <point x="401.617" y="929.456"/>
      <point x="477.527" y="929.456"/>
      <point x="522.543" y="883.557"/>
      <point x="522.543" y="848.25" type="qcurve" smooth="yes"/>
      <point x="522.543" y="813.825"/>
      <point x="477.527" y="766.161"/>
      <point x="441.337" y="766.161" type="qcurve" smooth="yes"/>
      <point x="334.533" y="766.161"/>
      <point x="180.948" y="919.746"/>
      <point x="180.948" y="1026.55" type="qcurve" smooth="yes"/>
      <point x="180.948" y="1147.48"/>
      <point x="317.763" y="1233.1" type="qcurve" smooth="yes"/>
      <point x="419.27" y="1295.77"/>
      <point x="562.263" y="1326.66" type="qcurve" smooth="yes"/>
      <point x="674.363" y="1350.49"/>
      <point x="791.759" y="1350.49" type="qcurve" smooth="yes"/>
      <point x="1001.83" y="1350.49"/>
      <point x="1150.12" y="1276.35" type="qcurve" smooth="yes"/>
      <point x="1343.43" y="1181.9"/>
      <point x="1343.43" y="995.656" type="qcurve" smooth="yes"/>
      <point x="1343.43" y="822.652"/>
      <point x="1164.25" y="719.379" type="qcurve"/>
      <point x="1343.43" y="603.749"/>
      <point x="1343.43" y="361.896" type="qcurve"/>
    </contour>
    <contour>
      <point x="1180.14" y="361.896" type="line"/>
      <point x="1180.14" y="450.164"/>
      <point x="1140.41" y="513.716" type="qcurve"/>
      <point x="1033.61" y="500.476"/>
      <point x="938.282" y="441.337" type="qcurve" smooth="yes"/>
      <point x="820.887" y="368.958"/>
      <point x="820.887" y="274.512" type="qcurve" smooth="yes"/>
      <point x="820.887" y="193.306"/>
      <point x="858.842" y="141.228" type="qcurve" smooth="yes"/>
      <point x="902.093" y="81.206"/>
      <point x="981.533" y="81.206" type="qcurve" smooth="yes"/>
      <point x="1075.98" y="81.206"/>
      <point x="1131.59" y="179.183" type="qcurve" smooth="yes"/>
      <point x="1180.14" y="260.389"/>
      <point x="1180.14" y="361.896" type="qcurve"/>
    </contour>
  </outline>
</glyph>
<glyph name="uniE008" format="2">
  <advance width="1307"/>
  <unicode hex="E008"/>
  <outline>
    <contour>
      <point x="1307.24" y="361.896" type="line"/>
      <point x="1307.24" y="189.775"/>
      <point x="1212.79" y="61.7872" type="qcurve" smooth="yes"/>
      <point x="1109.52" y="-81.206"/>
      <point x="945.344" y="-81.206" type="qcurve" smooth="yes"/>
      <point x="829.714" y="-81.206"/>
      <point x="660.24" y="58.2565"/>
      <point x="632.877" y="173.887" type="qcurve"/>
      <point x="601.984" y="103.273"/>
      <point x="472.231" y="20.3015"/>
      <point x="396.321" y="20.3015" type="qcurve" smooth="yes"/>
      <point x="272.746" y="20.3015"/>
      <point x="202.132" y="105.038" type="qcurve"/>
      <point x="180.948" y="132.401"/>
      <point x="180.948" y="158.881" type="qcurve" smooth="yes"/>
      <point x="180.948" y="191.54"/>
      <point x="231.261" y="241.853"/>
      <point x="263.92" y="241.853" type="qcurve" smooth="yes"/>
      <point x="293.048" y="241.853"/>
      <point x="360.131" y="182.714"/>
      <point x="396.321" y="182.714" type="qcurve" smooth="yes"/>
      <point x="436.041" y="182.714"/>
      <point x="493.415" y="238.322"/>
      <point x="493.415" y="279.808" type="qcurve" smooth="yes"/>
      <point x="493.415" y="319.528"/>
      <point x="436.041" y="377.784"/>
      <point x="396.321" y="377.784" type="qcurve" smooth="yes"/>
      <point x="314.232" y="377.784"/>
      <point x="314.232" y="458.99" type="qcurve" smooth="yes"/>
      <point x="314.232" y="540.196"/>
      <point x="396.321" y="540.196" type="qcurve" smooth="yes"/>
      <point x="477.527" y="540.196"/>
      <point x="609.045" y="448.398"/>
      <point x="638.173" y="374.254" type="qcurve"/>
      <point x="698.195" y="541.962"/>
      <point x="917.981" y="632.877" type="qcurve"/>
      <point x="872.965" y="641.704"/>
      <point x="824.418" y="641.704" type="qcurve" smooth="yes"/>
      <point x="739.681" y="641.704"/>
      <point x="739.681" y="722.91" type="qcurve" smooth="yes"/>
      <point x="739.681" y="804.116"/>
      <point x="824.418" y="804.116" type="qcurve" smooth="yes"/>
      <point x="1031.85" y="804.116"/>
      <point x="1119.23" y="924.16" type="qcurve" smooth="yes"/>
      <point x="1143.95" y="959.467"/>
      <point x="1143.95" y="995.656" type="qcurve" smooth="yes"/>
      <point x="1143.95" y="1030.08"/>
      <point x="1119.23" y="1066.27" type="qcurve"/>
      <point x="1031.85" y="1185.43"/>
      <point x="824.418" y="1185.43" type="qcurve" smooth="yes"/>
      <point x="667.302" y="1185.43"/>
      <point x="551.671" y="1109.52" type="qcurve" smooth="yes"/>
      <point x="524.308" y="1091.87"/>
      <point x="502.242" y="1091.87" type="qcurve" smooth="yes"/>
      <point x="467.817" y="1091.87"/>
      <point x="419.27" y="1143.95"/>
      <point x="419.27" y="1176.6" type="qcurve" smooth="yes"/>
      <point x="419.27" y="1211.03"/>
      <point x="453.694" y="1240.16" type="qcurve" smooth="yes"/>
      <point x="513.716" y="1292.23"/>
      <point x="629.347" y="1321.36" type="qcurve" smooth="yes"/>
      <point x="729.971" y="1348.73"/>
      <point x="824.418" y="1348.73" type="qcurve" smooth="yes"/>
      <point x="1001.83" y="1348.73"/>
      <point x="1142.18" y="1262.22" type="qcurve" smooth="yes"/>
      <point x="1307.24" y="1160.72"/>
      <point x="1307.24" y="995.656" type="qcurve" smooth="yes"/>
      <point x="1307.24" y="822.652"/>
      <point x="1128.06" y="719.379" type="qcurve"/>
      <point x="1307.24" y="603.749"/>
      <point x="1307.24" y="361.896" type="qcurve"/>
    </contour>
    <contour>
      <point x="1143.95" y="361.896" type="line"/>
      <point x="1143.95" y="450.164"/>
      <point x="1104.23" y="513.716" type="qcurve"/>
      <point x="995.656" y="498.711"/>
      <point x="902.093" y="441.337" type="qcurve" smooth="yes"/>
      <point x="784.697" y="368.958"/>
      <point x="784.697" y="274.512" type="qcurve" smooth="yes"/>
      <point x="784.697" y="193.306"/>
      <point x="822.652" y="141.228" type="qcurve" smooth="yes"/>
      <point x="865.903" y="81.206"/>
      <point x="945.344" y="81.206" type="qcurve" smooth="yes"/>
      <point x="1039.79" y="81.206"/>
      <point x="1095.4" y="179.183" type="qcurve" smooth="yes"/>
      <point x="1143.95" y="260.389"/>
      <point x="1143.95" y="361.896" type="qcurve"/>
    </contour>
  </outline>
</glyph>
<glyph name="uniE009" format="2">
  <advance width="1473"/>
  <unicode hex="E009"/>
  <outline>
    <contour>
      <point x="1473.18" y="74.1446" type="line"/>
      <point x="1473.18" y="-15.8881"/>
      <point x="1330.19" y="-135.932"/>
      <point x="1236.63" y="-135.932" type="qcurve" smooth="yes"/>
      <point x="1164.25" y="-135.932"/>
      <point x="1112.17" y="-110.334" type="qcurve" smooth="yes"/>
      <point x="1043.32" y="-75.91"/>
      <point x="1043.32" y="-10.5921" type="qcurve" smooth="yes"/>
      <point x="1043.32" y="20.3015"/>
      <point x="1081.28" y="63.5525"/>
      <point x="1112.17" y="63.5525" type="qcurve" smooth="yes"/>
      <point x="1131.59" y="63.5525"/>
      <point x="1209.26" y="27.3629"/>
      <point x="1234.86" y="27.3629" type="qcurve" smooth="yes"/>
      <point x="1259.58" y="27.3629"/>
      <point x="1310.77" y="52.0778"/>
      <point x="1310.77" y="74.1446" type="qcurve" smooth="yes"/>
      <point x="1310.77" y="88.2674"/>
      <point x="1250.75" y="122.692"/>
      <point x="1236.63" y="122.692" type="qcurve" smooth="yes"/>
      <point x="1124.53" y="122.692"/>
      <point x="1046.85" y="213.607" type="qcurve"/>
      <point x="1010.66" y="84.7367"/>
      <point x="925.925" y="5.29604" type="qcurve" smooth="yes"/>
      <point x="831.479" y="-81.206"/>
      <point x="707.022" y="-81.206" type="qcurve" smooth="yes"/>
      <point x="558.733" y="-81.206"/>
      <point x="467.817" y="25.5975" type="qcurve" smooth="yes"/>
      <point x="383.081" y="124.457"/>
      <point x="383.081" y="274.512" type="qcurve" smooth="yes"/>
      <point x="383.081" y="396.321"/>
      <point x="475.761" y="496.945" type="qcurve" smooth="yes"/>
      <point x="555.202" y="581.682"/>
      <point x="679.659" y="632.877" type="qcurve"/>
      <point x="634.643" y="641.704"/>
      <point x="584.33" y="641.704" type="qcurve" smooth="yes"/>
      <point x="548.141" y="641.704"/>
      <point x="500.476" y="686.72"/>
      <point x="500.476" y="722.91" type="qcurve" smooth="yes"/>
      <point x="500.476" y="759.1"/>
      <point x="548.141" y="804.116"/>
      <point x="584.33" y="804.116" type="qcurve" smooth="yes"/>
      <point x="795.289" y="804.116"/>
      <point x="878.261" y="925.925" type="qcurve"/>
      <point x="905.624" y="962.115"/>
      <point x="905.624" y="995.656" type="qcurve" smooth="yes"/>
      <point x="905.624" y="1028.32"/>
      <point x="878.261" y="1064.5" type="qcurve"/>
      <point x="795.289" y="1185.43"/>
      <point x="584.33" y="1185.43" type="qcurve" smooth="yes"/>
      <point x="434.276" y="1185.43"/>
      <point x="312.467" y="1109.52" type="qcurve" smooth="yes"/>
      <point x="284.221" y="1091.87"/>
      <point x="262.154" y="1091.87" type="qcurve" smooth="yes"/>
      <point x="229.495" y="1091.87"/>
      <point x="180.948" y="1143.95"/>
      <point x="180.948" y="1176.6" type="qcurve" smooth="yes"/>
      <point x="180.948" y="1209.26"/>
      <point x="213.607" y="1240.16" type="qcurve"/>
      <point x="270.981" y="1290.47"/>
      <point x="388.377" y="1321.36" type="qcurve" smooth="yes"/>
      <point x="491.649" y="1348.73"/>
      <point x="584.33" y="1348.73" type="qcurve" smooth="yes"/>
      <point x="760.865" y="1348.73"/>
      <point x="902.093" y="1262.22" type="qcurve" smooth="yes"/>
      <point x="1068.04" y="1160.72"/>
      <point x="1068.04" y="995.656" type="qcurve" smooth="yes"/>
      <point x="1068.04" y="822.652"/>
      <point x="887.97" y="719.379" type="qcurve"/>
      <point x="1023.02" y="632.877"/>
      <point x="1057.44" y="472.231" type="qcurve"/>
      <point x="1128.06" y="541.962"/>
      <point x="1234.86" y="541.962" type="qcurve" smooth="yes"/>
      <point x="1411.4" y="541.962"/>
      <point x="1411.4" y="439.572" type="qcurve" smooth="yes"/>
      <point x="1411.4" y="406.913"/>
      <point x="1366.38" y="358.366"/>
      <point x="1333.72" y="358.366" type="qcurve" smooth="yes"/>
      <point x="1317.83" y="358.366"/>
      <point x="1254.28" y="379.55"/>
      <point x="1236.63" y="379.55" type="qcurve" smooth="yes"/>
      <point x="1212.79" y="379.55"/>
      <point x="1189.84" y="368.958" type="qcurve"/>
      <point x="1160.72" y="353.952"/>
      <point x="1160.72" y="332.768" type="qcurve" smooth="yes"/>
      <point x="1160.72" y="317.763"/>
      <point x="1219.86" y="285.986"/>
      <point x="1236.63" y="285.986" type="qcurve" smooth="yes"/>
      <point x="1321.36" y="285.986"/>
      <point x="1473.18" y="158.881"/>
      <point x="1473.18" y="74.1446" type="qcurve"/>
    </contour>
    <contour>
      <point x="905.624" y="361.896" type="line"/>
      <point x="905.624" y="450.164"/>
      <point x="865.903" y="513.716" type="qcurve"/>
      <point x="759.1" y="500.476"/>
      <point x="663.771" y="441.337" type="qcurve" smooth="yes"/>
      <point x="545.493" y="368.958"/>
      <point x="545.493" y="274.512" type="qcurve" smooth="yes"/>
      <point x="545.493" y="193.306"/>
      <point x="584.33" y="141.228" type="qcurve" smooth="yes"/>
      <point x="627.581" y="81.206"/>
      <point x="707.022" y="81.206" type="qcurve" smooth="yes"/>
      <point x="800.585" y="81.206"/>
      <point x="857.076" y="179.183" type="qcurve" smooth="yes"/>
      <point x="905.624" y="260.389"/>
      <point x="905.624" y="361.896" type="qcurve"/>
    </contour>
  </outline>
</glyph>
<glyph name="uniE00A" format="2">
  <advance width="1637"/>
  <unicode hex="E00A"/>
  <outline>
    <contour>
      <point x="1637.36" y="1041.56" type="line"/>
      <point x="1637.36" y="924.16"/>
      <point x="1488.19" y="724.675"/>
      <point x="1373.44" y="684.955" type="qcurve"/>
      <point x="1355.79" y="679.659"/>
      <point x="1341.66" y="679.659" type="qcurve" smooth="yes"/>
      <point x="1309.01" y="679.659"/>
      <point x="1263.99" y="729.971"/>
      <point x="1263.99" y="764.396" type="qcurve" smooth="yes"/>
      <point x="1263.99" y="810.295"/>
      <point x="1316.07" y="836.775" type="qcurve" smooth="yes"/>
      <point x="1474.95" y="917.981"/>
      <point x="1474.95" y="1041.56" type="qcurve" smooth="yes"/>
      <point x="1474.95" y="1131.59"/>
      <point x="1391.98" y="1164.25" type="qcurve" smooth="yes"/>
      <point x="1339.9" y="1185.43"/>
      <point x="1229.56" y="1185.43" type="qcurve" smooth="yes"/>
      <point x="1203.97" y="1185.43"/>
      <point x="1142.18" y="1153.65"/>
      <point x="1142.18" y="1129.82" type="qcurve" smooth="yes"/>
      <point x="1142.18" y="1084.81"/>
      <point x="1229.56" y="1084.81" type="qcurve" smooth="yes"/>
      <point x="1310.77" y="1084.81"/>
      <point x="1310.77" y="1003.6" type="qcurve" smooth="yes"/>
      <point x="1310.77" y="921.512"/>
      <point x="1229.56" y="921.512" type="qcurve" smooth="yes"/>
      <point x="1122.76" y="921.512"/>
      <point x="1057.44" y="969.176" type="qcurve"/>
      <point x="1043.32" y="813.825"/>
      <point x="878.261" y="719.379" type="qcurve"/>
      <point x="1057.44" y="603.749"/>
      <point x="1057.44" y="361.896" type="qcurve" smooth="yes"/>
      <point x="1057.44" y="189.775"/>
      <point x="965.645" y="61.7872" type="qcurve" smooth="yes"/>
      <point x="862.372" y="-81.206"/>
      <point x="698.195" y="-81.206" type="qcurve" smooth="yes"/>
      <point x="549.906" y="-81.206"/>
      <point x="458.99" y="25.5975" type="qcurve" smooth="yes"/>
      <point x="374.254" y="124.457"/>
      <point x="374.254" y="274.512" type="qcurve" smooth="yes"/>
      <point x="374.254" y="396.321"/>
      <point x="466.052" y="496.945" type="qcurve" smooth="yes"/>
      <point x="545.493" y="581.682"/>
      <point x="670.832" y="632.877" type="qcurve"/>
      <point x="625.816" y="641.704"/>
      <point x="574.621" y="641.704" type="qcurve" smooth="yes"/>
      <point x="489.884" y="641.704"/>
      <point x="489.884" y="722.91" type="qcurve" smooth="yes"/>
      <point x="489.884" y="804.116"/>
      <point x="574.621" y="804.116" type="qcurve" smooth="yes"/>
      <point x="775.87" y="804.116"/>
      <point x="864.138" y="917.981" type="qcurve" smooth="yes"/>
      <point x="895.031" y="957.701"/>
      <point x="895.031" y="995.656" type="qcurve" smooth="yes"/>
      <point x="895.031" y="1031.85"/>
      <point x="864.138" y="1071.57" type="qcurve" smooth="yes"/>
      <point x="775.87" y="1185.43"/>
      <point x="574.621" y="1185.43" type="qcurve" smooth="yes"/>
      <point x="417.505" y="1185.43"/>
      <point x="303.64" y="1109.52" type="qcurve"/>
      <point x="274.512" y="1091.87"/>
      <point x="253.327" y="1091.87" type="qcurve" smooth="yes"/>
      <point x="220.668" y="1091.87"/>
      <point x="172.121" y="1143.95"/>
      <point x="172.121" y="1176.6" type="qcurve" smooth="yes"/>
      <point x="172.121" y="1211.03"/>
      <point x="203.898" y="1240.16" type="qcurve"/>
      <point x="265.685" y="1292.23"/>
      <point x="381.315" y="1321.36" type="qcurve"/>
      <point x="481.057" y="1348.73"/>
      <point x="574.621" y="1348.73" type="qcurve" smooth="yes"/>
      <point x="692.016" y="1348.73"/>
      <point x="798.82" y="1309.01" type="qcurve" smooth="yes"/>
      <point x="917.981" y="1263.99"/>
      <point x="986.83" y="1181.9" type="qcurve"/>
      <point x="1008.9" y="1256.05"/>
      <point x="1150.12" y="1348.73"/>
      <point x="1229.56" y="1348.73" type="qcurve" smooth="yes"/>
      <point x="1637.36" y="1348.73"/>
      <point x="1637.36" y="1041.56" type="qcurve"/>
    </contour>
    <contour>
      <point x="895.031" y="361.896" type="line"/>
      <point x="895.031" y="450.164"/>
      <point x="855.311" y="513.716" type="qcurve"/>
      <point x="748.508" y="498.711"/>
      <point x="652.296" y="441.337" type="qcurve" smooth="yes"/>
      <point x="536.666" y="368.958"/>
      <point x="536.666" y="274.512" type="qcurve" smooth="yes"/>
      <point x="536.666" y="193.306"/>
      <point x="574.621" y="141.228" type="qcurve" smooth="yes"/>
      <point x="617.872" y="81.206"/>
      <point x="698.195" y="81.206" type="qcurve" smooth="yes"/>
      <point x="791.759" y="81.206"/>
      <point x="848.25" y="179.183" type="qcurve" smooth="yes"/>
      <point x="895.031" y="260.389"/>
      <point x="895.031" y="361.896" type="qcurve"/>
    </contour>
  </outline>
</glyph>
<glyph name="uniE00B" format="2">
  <advance width="1530"/>
  <unicode hex="E00B"/>
  <outline>
    <contour>
      <point x="1389.93" y="314.232" type="qcurve" smooth="yes"/>
      <point x="1389.93" y="103.273"/>
      <point x="1227.52" y="-55.609" type="qcurve" smooth="yes"/>
      <point x="1200.16" y="-82.971"/>
      <point x="1169.26" y="-82.971" type="qcurve" smooth="yes"/>
      <point x="1136.6" y="-82.971"/>
      <point x="1087.16" y="-32.6474"/>
      <point x="1086.29" y="0" type="qcurve" smooth="yes"/>
      <point x="1085.52" y="28.6964"/>
      <point x="1113.65" y="63.553" type="qcurve" smooth="yes"/>
      <point x="1136.8" y="91.413"/>
      <point x="1162.2" y="117.396" type="qcurve"/>
      <point x="1062.46" y="122.692"/>
      <point x="1003.32" y="196.836" type="qcurve"/>
      <point x="963.6" y="75.91"/>
      <point x="879.746" y="0" type="qcurve" smooth="yes"/>
      <point x="787.948" y="-81.206"/>
      <point x="667.022" y="-81.206" type="qcurve" smooth="yes"/>
      <point x="518.733" y="-81.206"/>
      <point x="427.817" y="25.597" type="qcurve" smooth="yes"/>
      <point x="343.081" y="124.457"/>
      <point x="343.081" y="274.512" type="qcurve" smooth="yes"/>
      <point x="343.081" y="396.321"/>
      <point x="435.761" y="496.945" type="qcurve" smooth="yes"/>
      <point x="515.202" y="581.682"/>
      <point x="639.659" y="632.877" type="qcurve"/>
      <point x="594.643" y="641.704"/>
      <point x="544.33" y="641.704" type="qcurve" smooth="yes"/>
      <point x="460.476" y="641.704"/>
      <point x="460.476" y="722.91" type="qcurve" smooth="yes"/>
      <point x="460.476" y="804.116"/>
      <point x="544.33" y="804.116" type="qcurve" smooth="yes"/>
      <point x="748.787" y="805.015"/>
      <point x="836.495" y="921.512" type="qcurve" smooth="yes"/>
      <point x="865.624" y="958.606"/>
      <point x="865.624" y="995.656" type="qcurve" smooth="yes"/>
      <point x="865.625" y="1030.95"/>
      <point x="836.495" y="1068.04" type="qcurve" smooth="yes"/>
      <point x="748.789" y="1184.92"/>
      <point x="544.33" y="1185.43" type="qcurve" smooth="yes"/>
      <point x="386.333" y="1185.82"/>
      <point x="272.467" y="1109.52" type="qcurve" smooth="yes"/>
      <point x="245.986" y="1091.87"/>
      <point x="222.154" y="1091.87" type="qcurve" smooth="yes"/>
      <point x="189.495" y="1091.87"/>
      <point x="140.948" y="1143.95"/>
      <point x="140.948" y="1176.6" type="qcurve" smooth="yes"/>
      <point x="140.948" y="1211.03"/>
      <point x="173.607" y="1240.16" type="qcurve" smooth="yes"/>
      <point x="234.802" y="1291.1"/>
      <point x="350.142" y="1321.36" type="qcurve" smooth="yes"/>
      <point x="450.186" y="1347.61"/>
      <point x="544.33" y="1348.73" type="qcurve" smooth="yes"/>
      <point x="720.865" y="1348.73"/>
      <point x="862.093" y="1262.22" type="qcurve" smooth="yes"/>
      <point x="1028.04" y="1160.72"/>
      <point x="1028.04" y="995.656" type="qcurve" smooth="yes"/>
      <point x="1028.04" y="822.652"/>
      <point x="847.97" y="719.379" type="qcurve"/>
      <point x="991.85" y="627.581"/>
      <point x="1020.97" y="451.929" type="qcurve"/>
      <point x="1084.53" y="513.716"/>
      <point x="1174.56" y="513.716" type="qcurve" smooth="yes"/>
      <point x="1261.94" y="513.716"/>
      <point x="1389.93" y="399.851"/>
    </contour>
    <contour>
      <point x="865.624" y="361.896" type="qcurve" smooth="yes"/>
      <point x="865.624" y="450.164"/>
      <point x="825.903" y="513.716" type="qcurve"/>
      <point x="717.334" y="498.711"/>
      <point x="622.005" y="441.337" type="qcurve" smooth="yes"/>
      <point x="505.493" y="368.958"/>
      <point x="505.493" y="274.512" type="qcurve" smooth="yes"/>
      <point x="505.493" y="193.306"/>
      <point x="544.33" y="141.228" type="qcurve" smooth="yes"/>
      <point x="587.581" y="81.206"/>
      <point x="667.022" y="81.206" type="qcurve" smooth="yes"/>
      <point x="760.585" y="81.206"/>
      <point x="817.076" y="179.183" type="qcurve" smooth="yes"/>
      <point x="865.624" y="260.389"/>
    </contour>
    <contour>
      <point x="1232.82" y="313.645" type="qcurve" smooth="yes"/>
      <point x="1232.82" y="339.243"/>
      <point x="1198.39" y="373.667"/>
      <point x="1174.56" y="373.667" type="qcurve" smooth="yes"/>
      <point x="1149.84" y="373.667"/>
      <point x="1115.42" y="339.243"/>
      <point x="1115.42" y="313.645" type="qcurve" smooth="yes"/>
      <point x="1115.42" y="289.813"/>
      <point x="1149.84" y="255.389"/>
      <point x="1174.56" y="255.389" type="qcurve" smooth="yes"/>
      <point x="1198.39" y="255.389"/>
      <point x="1232.82" y="289.813"/>
    </contour>
  </outline>
</glyph>
<glyph name="uniE00C" format="2">
  <advance width="1066"/>
  <unicode hex="E00C"/>
  <outline>
    <contour>
      <point x="1066.27" y="1050.38" type="line"/>
      <point x="1066.27" y="889.735"/>
      <point x="947.109" y="807.647" type="qcurve"/>
      <point x="1000.07" y="759.1"/>
      <point x="1000.07" y="695.547" type="qcurve" smooth="yes"/>
      <point x="1000.07" y="624.051"/>
      <point x="932.986" y="571.09" type="qcurve"/>
      <point x="1046.85" y="475.761"/>
      <point x="1046.85" y="289.517" type="qcurve" smooth="yes"/>
      <point x="1046.85" y="146.524"/>
      <point x="979.768" y="41.4857" type="qcurve" smooth="yes"/>
      <point x="903.858" y="-81.206"/>
      <point x="769.692" y="-81.206" type="qcurve" smooth="yes"/>
      <point x="654.061" y="-81.206"/>
      <point x="591.392" y="15.8881" type="qcurve" smooth="yes"/>
      <point x="534.9" y="99.7422"/>
      <point x="534.9" y="220.668" type="qcurve" smooth="yes"/>
      <point x="534.9" y="396.321"/>
      <point x="692.016" y="496.945" type="qcurve"/>
      <point x="676.128" y="496.945"/>
      <point x="655.827" y="496.945" type="qcurve" smooth="yes"/>
      <point x="571.09" y="496.945"/>
      <point x="571.09" y="578.151" type="qcurve" smooth="yes"/>
      <point x="571.09" y="660.24"/>
      <point x="655.827" y="660.24" type="qcurve" smooth="yes"/>
      <point x="766.161" y="660.24"/>
      <point x="826.183" y="695.547" type="qcurve"/>
      <point x="766.161" y="731.737"/>
      <point x="655.827" y="731.737" type="qcurve" smooth="yes"/>
      <point x="571.09" y="731.737"/>
      <point x="571.09" y="813.825" type="qcurve" smooth="yes"/>
      <point x="571.09" y="895.031"/>
      <point x="739.681" y="895.031"/>
      <point x="812.06" y="929.456" type="qcurve" smooth="yes"/>
      <point x="903.858" y="972.707"/>
      <point x="903.858" y="1050.38" type="qcurve" smooth="yes"/>
      <point x="903.858" y="1068.04"/>
      <point x="880.026" y="1093.63" type="qcurve"/>
      <point x="789.993" y="1185.43"/>
      <point x="584.33" y="1185.43" type="qcurve" smooth="yes"/>
      <point x="421.035" y="1185.43"/>
      <point x="305.405" y="1124.53" type="qcurve"/>
      <point x="279.808" y="1109.52"/>
      <point x="262.154" y="1109.52" type="qcurve" smooth="yes"/>
      <point x="227.73" y="1109.52"/>
      <point x="180.948" y="1162.48"/>
      <point x="180.948" y="1196.91" type="qcurve" smooth="yes"/>
      <point x="180.948" y="1272.82"/>
      <point x="350.422" y="1316.07" type="qcurve" smooth="yes"/>
      <point x="473.996" y="1348.73"/>
      <point x="584.33" y="1348.73" type="qcurve" smooth="yes"/>
      <point x="752.038" y="1348.73"/>
      <point x="891.501" y="1281.64" type="qcurve" smooth="yes"/>
      <point x="1066.27" y="1198.67"/>
      <point x="1066.27" y="1050.38" type="qcurve"/>
    </contour>
    <contour>
      <point x="883.557" y="289.517" type="line"/>
      <point x="883.557" y="348.656"/>
      <point x="865.903" y="391.907" type="qcurve"/>
      <point x="798.82" y="376.019"/>
      <point x="750.273" y="332.768" type="qcurve" smooth="yes"/>
      <point x="698.195" y="284.221"/>
      <point x="698.195" y="220.668" type="qcurve" smooth="yes"/>
      <point x="698.195" y="81.206"/>
      <point x="769.692" y="81.206" type="qcurve" smooth="yes"/>
      <point x="827.948" y="81.206"/>
      <point x="860.607" y="160.647" type="qcurve" smooth="yes"/>
      <point x="883.557" y="220.668"/>
      <point x="883.557" y="289.517" type="qcurve"/>
    </contour>
  </outline>
</glyph>
<glyph name="uniE00D" format="2">
  <advance width="1087"/>
  <unicode hex="E00D"/>
  <outline>
    <contour>
      <point x="1086.57" y="1050.38" type="line"/>
      <point x="1086.57" y="889.735"/>
      <point x="965.645" y="807.647" type="qcurve"/>
      <point x="1019.49" y="759.1"/>
      <point x="1019.49" y="695.547" type="qcurve" smooth="yes"/>
      <point x="1019.49" y="624.051"/>
      <point x="952.405" y="571.09" type="qcurve"/>
      <point x="1064.5" y="475.761"/>
      <point x="1064.5" y="289.517" type="qcurve" smooth="yes"/>
      <point x="1064.5" y="146.524"/>
      <point x="1000.07" y="41.4857" type="qcurve" smooth="yes"/>
      <point x="921.512" y="-81.206"/>
      <point x="788.228" y="-81.206" type="qcurve" smooth="yes"/>
      <point x="674.363" y="-81.206"/>
      <point x="609.045" y="15.8881" type="qcurve" smooth="yes"/>
      <point x="553.437" y="99.7422"/>
      <point x="553.437" y="220.668" type="qcurve" smooth="yes"/>
      <point x="553.437" y="396.321"/>
      <point x="712.318" y="496.945" type="qcurve"/>
      <point x="693.782" y="496.945"/>
      <point x="676.128" y="496.945" type="qcurve" smooth="yes"/>
      <point x="510.186" y="496.945" type="line"/>
      <point x="482.823" y="417.505"/>
      <point x="345.126" y="317.763"/>
      <point x="262.154" y="317.763" type="qcurve" smooth="yes"/>
      <point x="180.948" y="317.763"/>
      <point x="180.948" y="399.851" type="qcurve" smooth="yes"/>
      <point x="180.948" y="481.057"/>
      <point x="262.154" y="481.057" type="qcurve" smooth="yes"/>
      <point x="301.875" y="481.057"/>
      <point x="360.131" y="538.431"/>
      <point x="360.131" y="578.151" type="qcurve" smooth="yes"/>
      <point x="360.131" y="617.872"/>
      <point x="301.875" y="676.128"/>
      <point x="262.154" y="676.128" type="qcurve" smooth="yes"/>
      <point x="180.948" y="676.128"/>
      <point x="180.948" y="757.334" type="qcurve" smooth="yes"/>
      <point x="180.948" y="838.54"/>
      <point x="262.154" y="838.54" type="qcurve" smooth="yes"/>
      <point x="345.126" y="838.54"/>
      <point x="482.823" y="739.681"/>
      <point x="510.186" y="660.24" type="qcurve"/>
      <point x="676.128" y="660.24" type="line" smooth="yes"/>
      <point x="786.463" y="660.24"/>
      <point x="845.602" y="695.547" type="qcurve"/>
      <point x="784.697" y="731.737"/>
      <point x="676.128" y="731.737" type="qcurve" smooth="yes"/>
      <point x="639.939" y="731.737"/>
      <point x="591.392" y="777.636"/>
      <point x="591.392" y="813.825" type="qcurve" smooth="yes"/>
      <point x="591.392" y="850.015"/>
      <point x="639.939" y="895.031"/>
      <point x="676.128" y="895.031" type="qcurve" smooth="yes"/>
      <point x="760.865" y="895.031"/>
      <point x="833.244" y="929.456" type="qcurve" smooth="yes"/>
      <point x="924.16" y="972.707"/>
      <point x="924.16" y="1050.38" type="qcurve" smooth="yes"/>
      <point x="924.16" y="1068.04"/>
      <point x="898.562" y="1093.63" type="qcurve"/>
      <point x="812.06" y="1185.43"/>
      <point x="603.749" y="1185.43" type="qcurve" smooth="yes"/>
      <point x="446.633" y="1185.43"/>
      <point x="325.707" y="1124.53" type="qcurve"/>
      <point x="298.344" y="1109.52"/>
      <point x="279.808" y="1109.52" type="qcurve" smooth="yes"/>
      <point x="248.031" y="1109.52"/>
      <point x="198.602" y="1162.48"/>
      <point x="198.602" y="1196.91" type="qcurve" smooth="yes"/>
      <point x="198.602" y="1272.82"/>
      <point x="368.958" y="1316.07" type="qcurve" smooth="yes"/>
      <point x="491.649" y="1348.73"/>
      <point x="603.749" y="1348.73" type="qcurve" smooth="yes"/>
      <point x="771.457" y="1348.73"/>
      <point x="910.92" y="1281.64" type="qcurve" smooth="yes"/>
      <point x="1086.57" y="1198.67"/>
      <point x="1086.57" y="1050.38" type="qcurve"/>
    </contour>
    <contour>
      <point x="902.093" y="289.517" type="line"/>
      <point x="902.093" y="348.656"/>
      <point x="883.557" y="391.907" type="qcurve"/>
      <point x="817.356" y="376.019"/>
      <point x="769.692" y="332.768" type="qcurve" smooth="yes"/>
      <point x="715.849" y="284.221"/>
      <point x="715.849" y="220.668" type="qcurve" smooth="yes"/>
      <point x="715.849" y="81.206"/>
      <point x="788.228" y="81.206" type="qcurve" smooth="yes"/>
      <point x="845.602" y="81.206"/>
      <point x="878.261" y="160.647" type="qcurve" smooth="yes"/>
      <point x="902.093" y="218.903"/>
      <point x="902.093" y="289.517" type="qcurve"/>
    </contour>
  </outline>
</glyph>
<glyph name="uniE010" format="2">
  <advance width="1591"/>
  <unicode hex="E010"/>
  <outline>
    <contour>
      <point x="1590.58" y="58.2565" type="line"/>
      <point x="1590.58" y="29.1282"/>
      <point x="1569.39" y="3.5307" type="qcurve" smooth="yes"/>
      <point x="1497.02" y="-82.9714"/>
      <point x="1376.09" y="-82.9714" type="qcurve" smooth="yes"/>
      <point x="1292.23" y="-82.9714"/>
      <point x="1158.95" y="12.3574"/>
      <point x="1129.82" y="90.0327" type="qcurve"/>
      <point x="1014.19" y="112.1" type="line"/>
      <point x="943.579" y="-81.206"/>
      <point x="769.692" y="-81.206" type="qcurve" smooth="yes"/>
      <point x="654.061" y="-81.206"/>
      <point x="591.392" y="15.8881" type="qcurve" smooth="yes"/>
      <point x="534.9" y="99.7422"/>
      <point x="534.9" y="220.668" type="qcurve" smooth="yes"/>
      <point x="534.9" y="396.321"/>
      <point x="692.016" y="496.945" type="qcurve"/>
      <point x="674.363" y="496.945"/>
      <point x="655.827" y="496.945" type="qcurve" smooth="yes"/>
      <point x="619.637" y="496.945"/>
      <point x="571.09" y="541.962"/>
      <point x="571.09" y="578.151" type="qcurve" smooth="yes"/>
      <point x="571.09" y="614.341"/>
      <point x="619.637" y="660.24"/>
      <point x="655.827" y="660.24" type="qcurve" smooth="yes"/>
      <point x="766.161" y="660.24"/>
      <point x="826.183" y="695.547" type="qcurve"/>
      <point x="766.161" y="731.737"/>
      <point x="655.827" y="731.737" type="qcurve" smooth="yes"/>
      <point x="619.637" y="731.737"/>
      <point x="571.09" y="777.636"/>
      <point x="571.09" y="813.825" type="qcurve" smooth="yes"/>
      <point x="571.09" y="850.015"/>
      <point x="619.637" y="895.031"/>
      <point x="655.827" y="895.031" type="qcurve" smooth="yes"/>
      <point x="743.212" y="895.031"/>
      <point x="815.591" y="929.456" type="qcurve" smooth="yes"/>
      <point x="903.858" y="972.707"/>
      <point x="903.858" y="1050.38" type="qcurve" smooth="yes"/>
      <point x="903.858" y="1068.04"/>
      <point x="880.026" y="1093.63" type="qcurve" smooth="yes"/>
      <point x="791.759" y="1185.43"/>
      <point x="584.33" y="1185.43" type="qcurve" smooth="yes"/>
      <point x="428.097" y="1185.43"/>
      <point x="305.405" y="1124.53" type="qcurve"/>
      <point x="278.042" y="1109.52"/>
      <point x="262.154" y="1109.52" type="qcurve" smooth="yes"/>
      <point x="227.73" y="1109.52"/>
      <point x="180.948" y="1162.48"/>
      <point x="180.948" y="1196.91" type="qcurve" smooth="yes"/>
      <point x="180.948" y="1272.82"/>
      <point x="350.422" y="1316.07" type="qcurve" smooth="yes"/>
      <point x="472.231" y="1348.73"/>
      <point x="584.33" y="1348.73" type="qcurve" smooth="yes"/>
      <point x="753.804" y="1348.73"/>
      <point x="891.501" y="1281.64" type="qcurve" smooth="yes"/>
      <point x="1066.27" y="1198.67"/>
      <point x="1066.27" y="1050.38" type="qcurve" smooth="yes"/>
      <point x="1066.27" y="889.735"/>
      <point x="947.109" y="807.647" type="qcurve"/>
      <point x="1000.07" y="759.1"/>
      <point x="1000.07" y="695.547" type="qcurve" smooth="yes"/>
      <point x="1000.07" y="624.051"/>
      <point x="932.986" y="571.09" type="qcurve"/>
      <point x="1052.15" y="469.583"/>
      <point x="1046.85" y="272.746" type="qcurve"/>
      <point x="1128.06" y="256.858" type="line"/>
      <point x="1153.65" y="336.299"/>
      <point x="1290.47" y="437.806"/>
      <point x="1376.09" y="437.806" type="qcurve" smooth="yes"/>
      <point x="1457.29" y="437.806"/>
      <point x="1457.29" y="355.718" type="qcurve" smooth="yes"/>
      <point x="1457.29" y="274.512"/>
      <point x="1376.09" y="274.512" type="qcurve" smooth="yes"/>
      <point x="1335.49" y="274.512"/>
      <point x="1278.11" y="217.138"/>
      <point x="1278.11" y="177.417" type="qcurve" smooth="yes"/>
      <point x="1278.11" y="137.697"/>
      <point x="1335.49" y="79.4407"/>
      <point x="1376.09" y="79.4407" type="qcurve" smooth="yes"/>
      <point x="1411.4" y="79.4407"/>
      <point x="1478.48" y="141.228"/>
      <point x="1507.61" y="141.228" type="qcurve" smooth="yes"/>
      <point x="1540.27" y="141.228"/>
      <point x="1590.58" y="90.0327"/>
      <point x="1590.58" y="58.2565" type="qcurve"/>
    </contour>
    <contour>
      <point x="883.557" y="289.517" type="line"/>
      <point x="883.557" y="348.656"/>
      <point x="865.903" y="391.907" type="qcurve"/>
      <point x="798.82" y="376.019"/>
      <point x="750.273" y="332.768" type="qcurve" smooth="yes"/>
      <point x="698.195" y="284.221"/>
      <point x="698.195" y="220.668" type="qcurve" smooth="yes"/>
      <point x="698.195" y="81.206"/>
      <point x="769.692" y="81.206" type="qcurve" smooth="yes"/>
      <point x="827.948" y="81.206"/>
      <point x="858.842" y="160.647" type="qcurve"/>
      <point x="883.557" y="218.903"/>
      <point x="883.557" y="289.517" type="qcurve"/>
    </contour>
  </outline>
</glyph>
<glyph name="uniE011" format="2">
  <advance width="1508"/>
  <unicode hex="E011"/>
  <outline>
    <contour>
      <point x="1507.61" y="967.411" type="line"/>
      <point x="1507.61" y="940.048"/>
      <point x="1485.54" y="912.685" type="qcurve"/>
      <point x="1414.04" y="827.948"/>
      <point x="1292.23" y="827.948" type="qcurve" smooth="yes"/>
      <point x="1218.09" y="827.948"/>
      <point x="1091.87" y="907.389"/>
      <point x="1059.21" y="976.237" type="qcurve"/>
      <point x="1031.85" y="865.903"/>
      <point x="947.109" y="807.647" type="qcurve"/>
      <point x="1000.07" y="759.1"/>
      <point x="1000.07" y="695.547" type="qcurve" smooth="yes"/>
      <point x="1000.07" y="624.051"/>
      <point x="932.986" y="571.09" type="qcurve"/>
      <point x="1046.85" y="475.761"/>
      <point x="1046.85" y="289.517" type="qcurve" smooth="yes"/>
      <point x="1046.85" y="146.524"/>
      <point x="979.768" y="41.4857" type="qcurve" smooth="yes"/>
      <point x="903.858" y="-81.206"/>
      <point x="769.692" y="-81.206" type="qcurve" smooth="yes"/>
      <point x="654.061" y="-81.206"/>
      <point x="591.392" y="15.8881" type="qcurve" smooth="yes"/>
      <point x="534.9" y="99.7422"/>
      <point x="534.9" y="220.668" type="qcurve" smooth="yes"/>
      <point x="534.9" y="396.321"/>
      <point x="692.016" y="496.945" type="qcurve"/>
      <point x="674.363" y="496.945"/>
      <point x="655.827" y="496.945" type="qcurve" smooth="yes"/>
      <point x="619.637" y="496.945"/>
      <point x="571.09" y="541.962"/>
      <point x="571.09" y="578.151" type="qcurve" smooth="yes"/>
      <point x="571.09" y="614.341"/>
      <point x="619.637" y="660.24"/>
      <point x="655.827" y="660.24" type="qcurve" smooth="yes"/>
      <point x="766.161" y="660.24"/>
      <point x="826.183" y="695.547" type="qcurve"/>
      <point x="766.161" y="731.737"/>
      <point x="655.827" y="731.737" type="qcurve" smooth="yes"/>
      <point x="619.637" y="731.737"/>
      <point x="571.09" y="777.636"/>
      <point x="571.09" y="813.825" type="qcurve" smooth="yes"/>
      <point x="571.09" y="850.015"/>
      <point x="619.637" y="895.031"/>
      <point x="655.827" y="895.031" type="qcurve" smooth="yes"/>
      <point x="743.212" y="895.031"/>
      <point x="815.591" y="929.456" type="qcurve" smooth="yes"/>
      <point x="903.858" y="972.707"/>
      <point x="903.858" y="1050.38" type="qcurve" smooth="yes"/>
      <point x="903.858" y="1068.04"/>
      <point x="880.026" y="1093.63" type="qcurve" smooth="yes"/>
      <point x="791.759" y="1185.43"/>
      <point x="584.33" y="1185.43" type="qcurve" smooth="yes"/>
      <point x="428.097" y="1185.43"/>
      <point x="305.405" y="1124.53" type="qcurve"/>
      <point x="278.042" y="1109.52"/>
      <point x="262.154" y="1109.52" type="qcurve" smooth="yes"/>
      <point x="227.73" y="1109.52"/>
      <point x="180.948" y="1162.48"/>
      <point x="180.948" y="1196.91" type="qcurve" smooth="yes"/>
      <point x="180.948" y="1272.82"/>
      <point x="350.422" y="1316.07" type="qcurve" smooth="yes"/>
      <point x="472.231" y="1348.73"/>
      <point x="584.33" y="1348.73" type="qcurve" smooth="yes"/>
      <point x="717.614" y="1348.73"/>
      <point x="840.306" y="1303.71" type="qcurve" smooth="yes"/>
      <point x="988.595" y="1250.75"/>
      <point x="1041.56" y="1153.65" type="qcurve"/>
      <point x="1062.74" y="1240.16"/>
      <point x="1203.97" y="1348.73"/>
      <point x="1292.23" y="1348.73" type="qcurve" smooth="yes"/>
      <point x="1373.44" y="1348.73"/>
      <point x="1373.44" y="1267.52" type="qcurve" smooth="yes"/>
      <point x="1373.44" y="1185.43"/>
      <point x="1292.23" y="1185.43" type="qcurve" smooth="yes"/>
      <point x="1252.51" y="1185.43"/>
      <point x="1195.14" y="1128.06"/>
      <point x="1195.14" y="1088.34" type="qcurve" smooth="yes"/>
      <point x="1195.14" y="1048.62"/>
      <point x="1252.51" y="990.36"/>
      <point x="1292.23" y="990.36" type="qcurve" smooth="yes"/>
      <point x="1328.42" y="990.36"/>
      <point x="1397.27" y="1050.38"/>
      <point x="1424.64" y="1050.38" type="qcurve" smooth="yes"/>
      <point x="1457.29" y="1050.38"/>
      <point x="1507.61" y="1001.83"/>
      <point x="1507.61" y="967.411" type="qcurve"/>
    </contour>
    <contour>
      <point x="883.557" y="289.517" type="line"/>
      <point x="883.557" y="348.656"/>
      <point x="865.903" y="391.907" type="qcurve"/>
      <point x="798.82" y="376.019"/>
      <point x="750.273" y="332.768" type="qcurve" smooth="yes"/>
      <point x="698.195" y="284.221"/>
      <point x="698.195" y="220.668" type="qcurve" smooth="yes"/>
      <point x="698.195" y="81.206"/>
      <point x="769.692" y="81.206" type="qcurve" smooth="yes"/>
      <point x="827.948" y="81.206"/>
      <point x="858.842" y="160.647" type="qcurve"/>
      <point x="883.557" y="218.903"/>
      <point x="883.557" y="289.517" type="qcurve"/>
    </contour>
  </outline>
</glyph>
<glyph name="uniE012" format="2">
  <advance width="1375"/>
  <unicode hex="E012"/>
  <outline>
    <contour>
      <point x="1212.51" y="289.517" type="qcurve" smooth="yes"/>
      <point x="1212.51" y="146.524"/>
      <point x="1148.08" y="41.486" type="qcurve" smooth="yes"/>
      <point x="1069.52" y="-81.206"/>
      <point x="936.237" y="-81.206" type="qcurve" smooth="yes"/>
      <point x="822.372" y="-81.206"/>
      <point x="757.055" y="15.888" type="qcurve" smooth="yes"/>
      <point x="701.446" y="99.742"/>
      <point x="701.446" y="220.668" type="qcurve" smooth="yes"/>
      <point x="701.446" y="396.321"/>
      <point x="860.327" y="496.945" type="qcurve"/>
      <point x="841.791" y="496.945"/>
      <point x="824.138" y="496.945" type="qcurve" smooth="yes"/>
      <point x="787.948" y="496.945"/>
      <point x="739.401" y="541.962"/>
      <point x="739.401" y="578.151" type="qcurve" smooth="yes"/>
      <point x="739.401" y="614.341"/>
      <point x="787.948" y="660.24"/>
      <point x="824.138" y="660.24" type="qcurve" smooth="yes"/>
      <point x="934.472" y="660.24"/>
      <point x="993.61" y="695.547" type="qcurve"/>
      <point x="932.707" y="731.737"/>
      <point x="824.138" y="731.737" type="qcurve" smooth="yes"/>
      <point x="787.948" y="731.737"/>
      <point x="739.401" y="777.636"/>
      <point x="739.401" y="813.825" type="qcurve" smooth="yes"/>
      <point x="739.401" y="850.015"/>
      <point x="787.948" y="895.031"/>
      <point x="824.138" y="895.031" type="qcurve" smooth="yes"/>
      <point x="908.875" y="895.031"/>
      <point x="981.25" y="929.456" type="qcurve" smooth="yes"/>
      <point x="1072.66" y="972.709"/>
      <point x="1072.17" y="1050.38" type="qcurve" smooth="yes"/>
      <point x="1072.06" y="1067.46"/>
      <point x="1046.57" y="1093.63" type="qcurve" smooth="yes"/>
      <point x="959.461" y="1185.05"/>
      <point x="751.759" y="1185.43" type="qcurve" smooth="yes"/>
      <point x="646.72" y="1185.62"/>
      <point x="494.9" y="1145.71" type="qcurve" smooth="yes"/>
      <point x="303.36" y="1095.4"/>
      <point x="303.36" y="1024.78" type="qcurve" smooth="yes"/>
      <point x="303.36" y="985.064"/>
      <point x="361.617" y="927.69"/>
      <point x="401.337" y="927.69" type="qcurve" smooth="yes"/>
      <point x="435.761" y="927.69"/>
      <point x="482.543" y="881.791"/>
      <point x="482.543" y="845.602" type="qcurve" smooth="yes"/>
      <point x="482.543" y="812.06"/>
      <point x="435.761" y="764.396"/>
      <point x="401.337" y="764.396" type="qcurve" smooth="yes"/>
      <point x="294.533" y="764.396"/>
      <point x="140.948" y="917.981"/>
      <point x="140.948" y="1024.78" type="qcurve" smooth="yes"/>
      <point x="140.948" y="1143.95"/>
      <point x="277.763" y="1231.33" type="qcurve" smooth="yes"/>
      <point x="377.505" y="1294"/>
      <point x="522.263" y="1324.89" type="qcurve" smooth="yes"/>
      <point x="634.363" y="1348.73"/>
      <point x="751.759" y="1348.73" type="qcurve" smooth="yes"/>
      <point x="919.467" y="1348.73"/>
      <point x="1058.93" y="1281.64" type="qcurve" smooth="yes"/>
      <point x="1234.58" y="1198.67"/>
      <point x="1234.58" y="1050.38" type="qcurve" smooth="yes"/>
      <point x="1234.58" y="889.735"/>
      <point x="1113.65" y="807.647" type="qcurve"/>
      <point x="1167.5" y="759.1"/>
      <point x="1167.5" y="695.547" type="qcurve" smooth="yes"/>
      <point x="1167.5" y="624.051"/>
      <point x="1100.41" y="571.09" type="qcurve"/>
      <point x="1212.51" y="475.761"/>
    </contour>
    <contour>
      <point x="1050.1" y="289.517" type="qcurve" smooth="yes"/>
      <point x="1050.1" y="348.656"/>
      <point x="1034.21" y="391.907" type="qcurve"/>
      <point x="965.37" y="376.019"/>
      <point x="917.701" y="332.768" type="qcurve" smooth="yes"/>
      <point x="863.858" y="284.221"/>
      <point x="863.858" y="220.668" type="qcurve" smooth="yes"/>
      <point x="863.858" y="81.206"/>
      <point x="936.237" y="81.206" type="qcurve" smooth="yes"/>
      <point x="996.26" y="81.206"/>
      <point x="1026.27" y="160.647" type="qcurve" smooth="yes"/>
      <point x="1050.1" y="220.668"/>
    </contour>
  </outline>
</glyph>
<glyph name="uniE015" format="2">
  <advance width="1564"/>
  <unicode hex="E015"/>
  <outline>
    <contour>
      <point x="1564.1" y="127.988" type="line"/>
      <point x="1564.1" y="32.6589"/>
      <point x="1483.77" y="-29.1282" type="qcurve" smooth="yes"/>
      <point x="1414.04" y="-81.206"/>
      <point x="1326.66" y="-81.206" type="qcurve" smooth="yes"/>
      <point x="1229.56" y="-81.206"/>
      <point x="1176.6" y="-41.4857" type="qcurve"/>
      <point x="1133.35" y="-7.06139"/>
      <point x="1133.35" y="43.251" type="qcurve" smooth="yes"/>
      <point x="1133.35" y="117.396"/>
      <point x="1202.2" y="117.396" type="qcurve" smooth="yes"/>
      <point x="1224.27" y="117.396"/>
      <point x="1248.98" y="105.038" type="qcurve"/>
      <point x="1290.47" y="81.206"/>
      <point x="1324.89" y="81.206" type="qcurve" smooth="yes"/>
      <point x="1361.08" y="81.206"/>
      <point x="1400.8" y="113.865"/>
      <point x="1400.8" y="127.988" type="qcurve" smooth="yes"/>
      <point x="1400.8" y="135.932"/>
      <point x="1354.02" y="177.417"/>
      <point x="1324.89" y="177.417" type="qcurve" smooth="yes"/>
      <point x="1250.75" y="177.417"/>
      <point x="1178.37" y="227.73" type="qcurve" smooth="yes"/>
      <point x="1098.93" y="285.986"/>
      <point x="1090.1" y="367.192" type="qcurve"/>
      <point x="1039.79" y="372.488" type="line"/>
      <point x="1046.85" y="332.768"/>
      <point x="1046.85" y="289.517" type="qcurve" smooth="yes"/>
      <point x="1046.85" y="146.524"/>
      <point x="979.768" y="41.4857" type="qcurve" smooth="yes"/>
      <point x="903.858" y="-81.206"/>
      <point x="769.692" y="-81.206" type="qcurve" smooth="yes"/>
      <point x="654.061" y="-81.206"/>
      <point x="591.392" y="15.8881" type="qcurve" smooth="yes"/>
      <point x="534.9" y="99.7422"/>
      <point x="534.9" y="220.668" type="qcurve" smooth="yes"/>
      <point x="534.9" y="396.321"/>
      <point x="692.016" y="496.945" type="qcurve"/>
      <point x="676.128" y="496.945"/>
      <point x="655.827" y="496.945" type="qcurve" smooth="yes"/>
      <point x="571.09" y="496.945"/>
      <point x="571.09" y="578.151" type="qcurve" smooth="yes"/>
      <point x="571.09" y="660.24"/>
      <point x="655.827" y="660.24" type="qcurve" smooth="yes"/>
      <point x="766.161" y="660.24"/>
      <point x="826.183" y="695.547" type="qcurve"/>
      <point x="766.161" y="731.737"/>
      <point x="655.827" y="731.737" type="qcurve" smooth="yes"/>
      <point x="571.09" y="731.737"/>
      <point x="571.09" y="813.825" type="qcurve" smooth="yes"/>
      <point x="571.09" y="895.031"/>
      <point x="739.681" y="895.031"/>
      <point x="812.06" y="929.456" type="qcurve" smooth="yes"/>
      <point x="903.858" y="972.707"/>
      <point x="903.858" y="1050.38" type="qcurve" smooth="yes"/>
      <point x="903.858" y="1068.04"/>
      <point x="880.026" y="1093.63" type="qcurve"/>
      <point x="789.993" y="1185.43"/>
      <point x="584.33" y="1185.43" type="qcurve" smooth="yes"/>
      <point x="421.035" y="1185.43"/>
      <point x="305.405" y="1124.53" type="qcurve"/>
      <point x="279.808" y="1109.52"/>
      <point x="262.154" y="1109.52" type="qcurve" smooth="yes"/>
      <point x="227.73" y="1109.52"/>
      <point x="180.948" y="1162.48"/>
      <point x="180.948" y="1196.91" type="qcurve" smooth="yes"/>
      <point x="180.948" y="1272.82"/>
      <point x="350.422" y="1316.07" type="qcurve" smooth="yes"/>
      <point x="473.996" y="1348.73"/>
      <point x="584.33" y="1348.73" type="qcurve" smooth="yes"/>
      <point x="752.038" y="1348.73"/>
      <point x="891.501" y="1281.64" type="qcurve" smooth="yes"/>
      <point x="1066.27" y="1198.67"/>
      <point x="1066.27" y="1050.38" type="qcurve" smooth="yes"/>
      <point x="1066.27" y="889.735"/>
      <point x="947.109" y="807.647" type="qcurve"/>
      <point x="1000.07" y="759.1"/>
      <point x="1000.07" y="695.547" type="qcurve" smooth="yes"/>
      <point x="1000.07" y="624.051"/>
      <point x="932.986" y="571.09" type="qcurve"/>
      <point x="948.875" y="558.733"/>
      <point x="962.115" y="543.727" type="qcurve"/>
      <point x="1145.71" y="524.308" type="line"/>
      <point x="1218.09" y="596.688"/>
      <point x="1324.89" y="596.688" type="qcurve" smooth="yes"/>
      <point x="1415.81" y="596.688"/>
      <point x="1462.59" y="564.029" type="qcurve" smooth="yes"/>
      <point x="1502.31" y="536.666"/>
      <point x="1502.31" y="493.415" type="qcurve" smooth="yes"/>
      <point x="1502.31" y="460.756"/>
      <point x="1457.29" y="412.209"/>
      <point x="1424.64" y="412.209" type="qcurve" smooth="yes"/>
      <point x="1404.33" y="412.209"/>
      <point x="1361.08" y="434.276"/>
      <point x="1326.66" y="434.276" type="qcurve" smooth="yes"/>
      <point x="1288.7" y="434.276"/>
      <point x="1250.75" y="401.617"/>
      <point x="1250.75" y="386.611" type="qcurve" smooth="yes"/>
      <point x="1250.75" y="379.55"/>
      <point x="1297.53" y="339.829"/>
      <point x="1324.89" y="339.829" type="qcurve" smooth="yes"/>
      <point x="1406.1" y="339.829"/>
      <point x="1480.24" y="281.573" type="qcurve" smooth="yes"/>
      <point x="1564.1" y="218.903"/>
      <point x="1564.1" y="127.988" type="qcurve"/>
    </contour>
    <contour>
      <point x="883.557" y="289.517" type="line"/>
      <point x="883.557" y="348.656"/>
      <point x="865.903" y="391.907" type="qcurve"/>
      <point x="798.82" y="376.019"/>
      <point x="750.273" y="332.768" type="qcurve" smooth="yes"/>
      <point x="698.195" y="284.221"/>
      <point x="698.195" y="220.668" type="qcurve" smooth="yes"/>
      <point x="698.195" y="81.206"/>
      <point x="769.692" y="81.206" type="qcurve" smooth="yes"/>
      <point x="827.948" y="81.206"/>
      <point x="860.607" y="160.647" type="qcurve" smooth="yes"/>
      <point x="883.557" y="220.668"/>
      <point x="883.557" y="289.517" type="qcurve"/>
    </contour>
  </outline>
</glyph>
<glyph name="uniE016" format="2">
  <advance width="1689"/>
  <unicode hex="E016"/>
  <outline>
    <contour>
      <point x="1688.56" y="1041.56" type="line"/>
      <point x="1688.56" y="907.389"/>
      <point x="1595.87" y="804.116" type="qcurve" smooth="yes"/>
      <point x="1526.14" y="724.675"/>
      <point x="1424.64" y="684.955" type="qcurve"/>
      <point x="1407.87" y="679.659"/>
      <point x="1391.98" y="679.659" type="qcurve" smooth="yes"/>
      <point x="1357.55" y="679.659"/>
      <point x="1312.54" y="729.971"/>
      <point x="1312.54" y="764.396" type="qcurve" smooth="yes"/>
      <point x="1312.54" y="817.356"/>
      <point x="1364.61" y="836.775" type="qcurve" smooth="yes"/>
      <point x="1431.7" y="862.372"/>
      <point x="1474.95" y="912.685" type="qcurve"/>
      <point x="1526.14" y="969.176"/>
      <point x="1526.14" y="1041.56" type="qcurve" smooth="yes"/>
      <point x="1526.14" y="1117.47"/>
      <point x="1411.4" y="1185.43"/>
      <point x="1279.88" y="1185.43" type="qcurve" smooth="yes"/>
      <point x="1245.45" y="1185.43"/>
      <point x="1191.61" y="1147.48"/>
      <point x="1191.61" y="1129.82" type="qcurve" smooth="yes"/>
      <point x="1191.61" y="1084.81"/>
      <point x="1278.11" y="1084.81" type="qcurve" smooth="yes"/>
      <point x="1359.32" y="1084.81"/>
      <point x="1359.32" y="1003.6" type="qcurve" smooth="yes"/>
      <point x="1359.32" y="921.512"/>
      <point x="1278.11" y="921.512" type="qcurve" smooth="yes"/>
      <point x="1128.06" y="921.512"/>
      <point x="1064.5" y="1010.66" type="qcurve"/>
      <point x="1048.62" y="876.495"/>
      <point x="947.109" y="807.647" type="qcurve"/>
      <point x="1000.07" y="759.1"/>
      <point x="1000.07" y="695.547" type="qcurve" smooth="yes"/>
      <point x="1000.07" y="624.051"/>
      <point x="932.986" y="571.09" type="qcurve"/>
      <point x="1046.85" y="475.761"/>
      <point x="1046.85" y="289.517" type="qcurve" smooth="yes"/>
      <point x="1046.85" y="146.524"/>
      <point x="979.768" y="41.4857" type="qcurve" smooth="yes"/>
      <point x="903.858" y="-81.206"/>
      <point x="769.692" y="-81.206" type="qcurve" smooth="yes"/>
      <point x="654.061" y="-81.206"/>
      <point x="591.392" y="15.8881" type="qcurve" smooth="yes"/>
      <point x="534.9" y="99.7422"/>
      <point x="534.9" y="220.668" type="qcurve" smooth="yes"/>
      <point x="534.9" y="396.321"/>
      <point x="692.016" y="496.945" type="qcurve"/>
      <point x="676.128" y="496.945"/>
      <point x="655.827" y="496.945" type="qcurve" smooth="yes"/>
      <point x="571.09" y="496.945"/>
      <point x="571.09" y="578.151" type="qcurve" smooth="yes"/>
      <point x="571.09" y="660.24"/>
      <point x="655.827" y="660.24" type="qcurve" smooth="yes"/>
      <point x="766.161" y="660.24"/>
      <point x="826.183" y="695.547" type="qcurve"/>
      <point x="766.161" y="731.737"/>
      <point x="655.827" y="731.737" type="qcurve" smooth="yes"/>
      <point x="571.09" y="731.737"/>
      <point x="571.09" y="813.825" type="qcurve" smooth="yes"/>
      <point x="571.09" y="895.031"/>
      <point x="739.681" y="895.031"/>
      <point x="812.06" y="929.456" type="qcurve" smooth="yes"/>
      <point x="903.858" y="972.707"/>
      <point x="903.858" y="1050.38" type="qcurve" smooth="yes"/>
      <point x="903.858" y="1068.04"/>
      <point x="880.026" y="1093.63" type="qcurve"/>
      <point x="789.993" y="1185.43"/>
      <point x="584.33" y="1185.43" type="qcurve" smooth="yes"/>
      <point x="421.035" y="1185.43"/>
      <point x="305.405" y="1124.53" type="qcurve"/>
      <point x="279.808" y="1109.52"/>
      <point x="262.154" y="1109.52" type="qcurve" smooth="yes"/>
      <point x="227.73" y="1109.52"/>
      <point x="180.948" y="1162.48"/>
      <point x="180.948" y="1196.91" type="qcurve" smooth="yes"/>
      <point x="180.948" y="1272.82"/>
      <point x="350.422" y="1316.07" type="qcurve" smooth="yes"/>
      <point x="473.996" y="1348.73"/>
      <point x="584.33" y="1348.73" type="qcurve" smooth="yes"/>
      <point x="710.553" y="1348.73"/>
      <point x="829.714" y="1307.24" type="qcurve" smooth="yes"/>
      <point x="974.472" y="1257.81"/>
      <point x="1031.85" y="1167.78" type="qcurve"/>
      <point x="1048.62" y="1259.58"/>
      <point x="1142.18" y="1310.77" type="qcurve" smooth="yes"/>
      <point x="1212.79" y="1348.73"/>
      <point x="1279.88" y="1348.73" type="qcurve" smooth="yes"/>
      <point x="1688.56" y="1348.73"/>
      <point x="1688.56" y="1041.56" type="qcurve"/>
    </contour>
    <contour>
      <point x="883.557" y="289.517" type="line"/>
      <point x="883.557" y="348.656"/>
      <point x="865.903" y="391.907" type="qcurve"/>
      <point x="798.82" y="376.019"/>
      <point x="750.273" y="332.768" type="qcurve" smooth="yes"/>
      <point x="698.195" y="284.221"/>
      <point x="698.195" y="220.668" type="qcurve" smooth="yes"/>
      <point x="698.195" y="81.206"/>
      <point x="769.692" y="81.206" type="qcurve" smooth="yes"/>
      <point x="827.948" y="81.206"/>
      <point x="860.607" y="160.647" type="qcurve" smooth="yes"/>
      <point x="883.557" y="220.668"/>
      <point x="883.557" y="289.517" type="qcurve"/>
    </contour>
  </outline>
</glyph>
<glyph name="uniE017" format="2">
  <advance width="1456"/>
  <unicode hex="E017"/>
  <outline>
    <contour>
      <point x="1455.53" y="314.232" type="line"/>
      <point x="1455.53" y="117.396"/>
      <point x="1294" y="-55.6085" type="qcurve" smooth="yes"/>
      <point x="1269.29" y="-82.9714"/>
      <point x="1234.86" y="-82.9714" type="qcurve" smooth="yes"/>
      <point x="1202.2" y="-82.9714"/>
      <point x="1151.89" y="-32.6589"/>
      <point x="1151.89" y="0" type="qcurve" smooth="yes"/>
      <point x="1151.89" y="27.3629"/>
      <point x="1180.14" y="63.5525" type="qcurve"/>
      <point x="1203.97" y="90.0327"/>
      <point x="1227.8" y="117.396" type="qcurve"/>
      <point x="1093.63" y="124.457"/>
      <point x="1043.32" y="236.557" type="qcurve"/>
      <point x="1030.08" y="106.804"/>
      <point x="965.645" y="20.3015" type="qcurve" smooth="yes"/>
      <point x="891.501" y="-81.206"/>
      <point x="769.692" y="-81.206" type="qcurve" smooth="yes"/>
      <point x="654.061" y="-81.206"/>
      <point x="591.392" y="15.8881" type="qcurve" smooth="yes"/>
      <point x="534.9" y="99.7422"/>
      <point x="534.9" y="220.668" type="qcurve" smooth="yes"/>
      <point x="534.9" y="396.321"/>
      <point x="692.016" y="496.945" type="qcurve"/>
      <point x="676.128" y="496.945"/>
      <point x="655.827" y="496.945" type="qcurve" smooth="yes"/>
      <point x="571.09" y="496.945"/>
      <point x="571.09" y="578.151" type="qcurve" smooth="yes"/>
      <point x="571.09" y="660.24"/>
      <point x="655.827" y="660.24" type="qcurve" smooth="yes"/>
      <point x="766.161" y="660.24"/>
      <point x="826.183" y="695.547" type="qcurve"/>
      <point x="766.161" y="731.737"/>
      <point x="655.827" y="731.737" type="qcurve" smooth="yes"/>
      <point x="571.09" y="731.737"/>
      <point x="571.09" y="813.825" type="qcurve" smooth="yes"/>
      <point x="571.09" y="895.031"/>
      <point x="739.681" y="895.031"/>
      <point x="812.06" y="929.456" type="qcurve" smooth="yes"/>
      <point x="903.858" y="972.707"/>
      <point x="903.858" y="1050.38" type="qcurve" smooth="yes"/>
      <point x="903.858" y="1068.04"/>
      <point x="880.026" y="1093.63" type="qcurve"/>
      <point x="789.993" y="1185.43"/>
      <point x="584.33" y="1185.43" type="qcurve" smooth="yes"/>
      <point x="421.035" y="1185.43"/>
      <point x="305.405" y="1124.53" type="qcurve"/>
      <point x="279.808" y="1109.52"/>
      <point x="262.154" y="1109.52" type="qcurve" smooth="yes"/>
      <point x="227.73" y="1109.52"/>
      <point x="180.948" y="1162.48"/>
      <point x="180.948" y="1196.91" type="qcurve" smooth="yes"/>
      <point x="180.948" y="1272.82"/>
      <point x="350.422" y="1316.07" type="qcurve" smooth="yes"/>
      <point x="473.996" y="1348.73"/>
      <point x="584.33" y="1348.73" type="qcurve" smooth="yes"/>
      <point x="752.038" y="1348.73"/>
      <point x="891.501" y="1281.64" type="qcurve" smooth="yes"/>
      <point x="1066.27" y="1198.67"/>
      <point x="1066.27" y="1050.38" type="qcurve" smooth="yes"/>
      <point x="1066.27" y="889.735"/>
      <point x="947.109" y="807.647" type="qcurve"/>
      <point x="1000.07" y="759.1"/>
      <point x="1000.07" y="695.547" type="qcurve" smooth="yes"/>
      <point x="1000.07" y="624.051"/>
      <point x="932.986" y="571.09" type="qcurve"/>
      <point x="1015.96" y="500.476"/>
      <point x="1038.02" y="379.55" type="qcurve"/>
      <point x="1060.97" y="439.572"/>
      <point x="1174.84" y="513.716"/>
      <point x="1241.92" y="513.716" type="qcurve" smooth="yes"/>
      <point x="1326.66" y="513.716"/>
      <point x="1455.53" y="401.617"/>
      <point x="1455.53" y="314.232" type="qcurve"/>
    </contour>
    <contour>
      <point x="1292.23" y="314.232" type="line"/>
      <point x="1292.23" y="350.422"/>
      <point x="1241.92" y="350.422" type="qcurve" smooth="yes"/>
      <point x="1189.84" y="350.422"/>
      <point x="1189.84" y="314.232" type="qcurve" smooth="yes"/>
      <point x="1189.84" y="279.808"/>
      <point x="1241.92" y="279.808" type="qcurve" smooth="yes"/>
      <point x="1292.23" y="279.808"/>
      <point x="1292.23" y="314.232" type="qcurve"/>
    </contour>
    <contour>
      <point x="883.557" y="289.517" type="line"/>
      <point x="883.557" y="348.656"/>
      <point x="865.903" y="391.907" type="qcurve"/>
      <point x="798.82" y="376.019"/>
      <point x="750.273" y="332.768" type="qcurve" smooth="yes"/>
      <point x="698.195" y="284.221"/>
      <point x="698.195" y="220.668" type="qcurve" smooth="yes"/>
      <point x="698.195" y="81.206"/>
      <point x="769.692" y="81.206" type="qcurve" smooth="yes"/>
      <point x="827.948" y="81.206"/>
      <point x="860.607" y="160.647" type="qcurve" smooth="yes"/>
      <point x="883.557" y="220.668"/>
      <point x="883.557" y="289.517" type="qcurve"/>
    </contour>
  </outline>
</glyph>
<glyph name="uniE018" format="2">
  <advance width="1169"/>
  <unicode hex="E018"/>
  <outline>
    <contour>
      <point x="1028.04" y="82.971" type="qcurve" smooth="yes"/>
      <point x="1028.04" y="43.251"/>
      <point x="986.55" y="15.888" type="qcurve" smooth="yes"/>
      <point x="970.66" y="5.296"/>
      <point x="929.176" y="-14.123" type="qcurve" smooth="yes"/>
      <point x="786.183" y="-81.206"/>
      <point x="584.051" y="-81.206" type="qcurve" smooth="yes"/>
      <point x="424.287" y="-81.206"/>
      <point x="306.891" y="-36.19" type="qcurve" smooth="yes"/>
      <point x="140.948" y="25.597"/>
      <point x="140.948" y="155.351" type="qcurve" smooth="yes"/>
      <point x="138.794" y="268.02"/>
      <point x="328.958" y="334.533" type="qcurve" smooth="yes"/>
      <point x="504.134" y="395.803"/>
      <point x="675.849" y="466.052" type="qcurve" smooth="yes"/>
      <point x="868.531" y="552.524"/>
      <point x="863.858" y="722.91" type="qcurve"/>
      <point x="863.858" y="824.418" type="line"/>
      <point x="303.36" y="824.418" type="line"/>
      <point x="303.36" y="722.91" type="line" smooth="yes"/>
      <point x="303.36" y="641.704"/>
      <point x="222.154" y="641.704" type="qcurve" smooth="yes"/>
      <point x="140.948" y="641.704"/>
      <point x="140.948" y="722.91" type="qcurve" smooth="yes"/>
      <point x="140.948" y="905.624" type="line" smooth="yes"/>
      <point x="140.948" y="1081.28"/>
      <point x="408.398" y="1348.73"/>
      <point x="585.816" y="1348.73" type="qcurve" smooth="yes"/>
      <point x="760.585" y="1348.73"/>
      <point x="1026.27" y="1081.28"/>
      <point x="1026.27" y="905.624" type="qcurve" smooth="yes"/>
      <point x="1026.27" y="722.91" type="line" smooth="yes"/>
      <point x="1026.27" y="576.386"/>
      <point x="923.88" y="453.694" type="qcurve" smooth="yes"/>
      <point x="829.327" y="341.874"/>
      <point x="684.675" y="285.986" type="qcurve" smooth="yes"/>
      <point x="673.972" y="281.851"/>
      <point x="493.135" y="225.965" type="qcurve" smooth="yes"/>
      <point x="377.505" y="191.54"/>
      <point x="310.422" y="144.759" type="qcurve"/>
      <point x="339.55" y="113.865"/>
      <point x="439.292" y="96.211" type="qcurve" smooth="yes"/>
      <point x="518.733" y="81.206"/>
      <point x="584.051" y="81.206" type="qcurve" smooth="yes"/>
      <point x="759.857" y="82.5937"/>
      <point x="903.579" y="157.116" type="qcurve" smooth="yes"/>
      <point x="926.689" y="168.247"/>
      <point x="946.83" y="167.708" type="qcurve" smooth="yes"/>
      <point x="979.478" y="166.834"/>
      <point x="1028.04" y="117.396"/>
    </contour>
    <contour>
      <point x="851.501" y="986.83" type="line"/>
      <point x="822.372" y="1069.8"/>
      <point x="670.553" y="1185.43"/>
      <point x="585.816" y="1185.43" type="qcurve" smooth="yes"/>
      <point x="496.666" y="1185.43"/>
      <point x="344.846" y="1069.8"/>
      <point x="318.366" y="986.83" type="qcurve"/>
    </contour>
  </outline>
</glyph>
<glyph name="uniE019" format="2">
  <advance width="1346"/>
  <unicode hex="E019"/>
  <outline>
    <contour>
      <point x="1205.45" y="82.9709" type="qcurve" smooth="yes"/>
      <point x="1205.45" y="43.251"/>
      <point x="1163.97" y="15.888" type="qcurve" smooth="yes"/>
      <point x="1013.91" y="-81.206"/>
      <point x="762.351" y="-81.206" type="qcurve" smooth="yes"/>
      <point x="603.469" y="-81.206"/>
      <point x="486.074" y="-36.19" type="qcurve" smooth="yes"/>
      <point x="320.131" y="25.597"/>
      <point x="320.131" y="155.351" type="qcurve" smooth="yes"/>
      <point x="317.977" y="268.02"/>
      <point x="508.141" y="334.533" type="qcurve" smooth="yes"/>
      <point x="683.316" y="395.804"/>
      <point x="855.031" y="466.052" type="qcurve" smooth="yes"/>
      <point x="1043.04" y="552.46"/>
      <point x="1043.04" y="722.91" type="qcurve" smooth="yes"/>
      <point x="1043.04" y="824.418" type="line"/>
      <point x="482.543" y="824.418" type="line"/>
      <point x="482.543" y="722.91" type="line" smooth="yes"/>
      <point x="482.543" y="616.106"/>
      <point x="328.958" y="462.521"/>
      <point x="222.154" y="462.521" type="qcurve" smooth="yes"/>
      <point x="140.948" y="462.521"/>
      <point x="140.948" y="543.727" type="qcurve" smooth="yes"/>
      <point x="140.948" y="625.816"/>
      <point x="222.154" y="625.816" type="qcurve" smooth="yes"/>
      <point x="261.875" y="625.816"/>
      <point x="320.131" y="683.19"/>
      <point x="320.131" y="722.91" type="qcurve" smooth="yes"/>
      <point x="320.131" y="762.63"/>
      <point x="261.875" y="820.887"/>
      <point x="222.154" y="820.887" type="qcurve" smooth="yes"/>
      <point x="140.948" y="820.887"/>
      <point x="140.948" y="902.093" type="qcurve" smooth="yes"/>
      <point x="140.948" y="983.299"/>
      <point x="222.154" y="983.299" type="qcurve" smooth="yes"/>
      <point x="274.232" y="983.299"/>
      <point x="323.662" y="963.88" type="qcurve"/>
      <point x="346.611" y="1121"/>
      <point x="603.469" y="1348.73"/>
      <point x="762.351" y="1348.73" type="qcurve" smooth="yes"/>
      <point x="939.768" y="1348.73"/>
      <point x="1205.45" y="1081.28"/>
      <point x="1205.45" y="905.624" type="qcurve" smooth="yes"/>
      <point x="1205.45" y="722.91" type="line" smooth="yes"/>
      <point x="1205.45" y="576.386"/>
      <point x="1102.18" y="453.694" type="qcurve" smooth="yes"/>
      <point x="1008.51" y="341.874"/>
      <point x="863.858" y="285.986" type="qcurve" smooth="yes"/>
      <point x="853.155" y="281.851"/>
      <point x="672.318" y="225.965" type="qcurve" smooth="yes"/>
      <point x="554.922" y="191.54"/>
      <point x="489.604" y="144.759" type="qcurve"/>
      <point x="516.967" y="113.865"/>
      <point x="617.592" y="96.211" type="qcurve" smooth="yes"/>
      <point x="697.915" y="81.206"/>
      <point x="762.351" y="81.206" type="qcurve" smooth="yes"/>
      <point x="939.202" y="82.2822"/>
      <point x="1082.76" y="157.116" type="qcurve" smooth="yes"/>
      <point x="1105.17" y="168.8"/>
      <point x="1126.01" y="167.708" type="qcurve" smooth="yes"/>
      <point x="1158.67" y="167.708"/>
      <point x="1205.45" y="117.396"/>
    </contour>
    <contour>
      <point x="1028.04" y="986.83" type="line"/>
      <point x="1001.56" y="1069.8"/>
      <point x="849.735" y="1185.43"/>
      <point x="764.116" y="1185.43" type="qcurve" smooth="yes"/>
      <point x="675.849" y="1185.43"/>
      <point x="524.029" y="1069.8"/>
      <point x="494.9" y="986.83" type="qcurve"/>
    </contour>
  </outline>
</glyph>
<glyph name="uniE01B" format="2">
  <advance width="1518"/>
  <unicode hex="E01B"/>
  <outline>
    <contour>
      <point x="1377.57" y="82.9711" type="qcurve" smooth="yes"/>
      <point x="1377.57" y="43.251"/>
      <point x="1336.09" y="15.888" type="qcurve" smooth="yes"/>
      <point x="1187.8" y="-81.206"/>
      <point x="932.707" y="-81.206" type="qcurve" smooth="yes"/>
      <point x="805.602" y="-81.206"/>
      <point x="699.681" y="-50.312" type="qcurve" smooth="yes"/>
      <point x="556.688" y="-8.82701"/>
      <point x="509.906" y="74.145" type="qcurve"/>
      <point x="339.55" y="74.145" type="line"/>
      <point x="370.443" y="55.608"/>
      <point x="435.761" y="14.123"/>
      <point x="435.761" y="-25.598" type="qcurve" smooth="yes"/>
      <point x="435.761" y="-60.022"/>
      <point x="389.858" y="-110.858"/>
      <point x="356.321" y="-110.334" type="qcurve" smooth="yes"/>
      <point x="339.858" y="-110.077"/>
      <point x="323.662" y="-103.273" type="qcurve" smooth="yes"/>
      <point x="241.874" y="-71.5896"/>
      <point x="140.948" y="70.614"/>
      <point x="140.948" y="155.351" type="qcurve" smooth="yes"/>
      <point x="140.948" y="241.853"/>
      <point x="241.787" y="382.547"/>
      <point x="323.662" y="415.739" type="qcurve" smooth="yes"/>
      <point x="339.767" y="422.626"/>
      <point x="356.321" y="422.801" type="qcurve" smooth="yes"/>
      <point x="389.86" y="423.156"/>
      <point x="435.761" y="370.723"/>
      <point x="435.761" y="338.064" type="qcurve" smooth="yes"/>
      <point x="435.761" y="296.578"/>
      <point x="370.443" y="256.858"/>
      <point x="339.55" y="236.557" type="qcurve"/>
      <point x="518.733" y="236.557" type="line"/>
      <point x="570.81" y="301.875"/>
      <point x="760.585" y="365.427" type="qcurve" smooth="yes"/>
      <point x="996.26" y="444.868"/>
      <point x="1064.23" y="486.353" type="qcurve" smooth="yes"/>
      <point x="1212.51" y="576.386"/>
      <point x="1212.51" y="722.91" type="qcurve" smooth="yes"/>
      <point x="1212.51" y="824.418" type="line"/>
      <point x="652.016" y="824.418" type="line"/>
      <point x="653.016" y="722.91" type="line" smooth="yes"/>
      <point x="653.821" y="641.239"/>
      <point x="570.81" y="641.704" type="qcurve" smooth="yes"/>
      <point x="489.604" y="641.704"/>
      <point x="489.604" y="722.91" type="qcurve" smooth="yes"/>
      <point x="489.604" y="905.624" type="line" smooth="yes"/>
      <point x="489.604" y="1081.28"/>
      <point x="757.055" y="1348.73"/>
      <point x="934.472" y="1348.73" type="qcurve" smooth="yes"/>
      <point x="1110.12" y="1348.73"/>
      <point x="1375.81" y="1081.28"/>
      <point x="1375.81" y="905.624" type="qcurve" smooth="yes"/>
      <point x="1375.81" y="722.91" type="line" smooth="yes"/>
      <point x="1375.81" y="576.386"/>
      <point x="1272.54" y="453.694" type="qcurve" smooth="yes"/>
      <point x="1177.88" y="342.132"/>
      <point x="1034.21" y="285.986" type="qcurve" smooth="yes"/>
      <point x="1024.28" y="282.104"/>
      <point x="841.791" y="225.965" type="qcurve" smooth="yes"/>
      <point x="726.161" y="191.54"/>
      <point x="659.96" y="144.759" type="qcurve"/>
      <point x="686.441" y="113.865"/>
      <point x="789.714" y="96.2111" type="qcurve" smooth="yes"/>
      <point x="869.154" y="81.2061"/>
      <point x="932.707" y="81.2061" type="qcurve" smooth="yes"/>
      <point x="1109.12" y="83.1361"/>
      <point x="1254" y="157.116" type="qcurve" smooth="yes"/>
      <point x="1276.82" y="168.397"/>
      <point x="1295.49" y="167.708" type="qcurve" smooth="yes"/>
      <point x="1329.89" y="166.439"/>
      <point x="1377.57" y="117.396"/>
    </contour>
    <contour>
      <point x="1200.16" y="986.83" type="line"/>
      <point x="1171.03" y="1069.8"/>
      <point x="1020.97" y="1185.43"/>
      <point x="934.472" y="1185.43" type="qcurve" smooth="yes"/>
      <point x="847.97" y="1185.43"/>
      <point x="696.15" y="1069.8"/>
      <point x="667.022" y="986.83" type="qcurve"/>
    </contour>
  </outline>
</glyph>
<glyph name="uniE01C" format="2">
  <advance width="1365"/>
  <unicode hex="E01C"/>
  <outline>
    <contour>
      <point x="1364.61" y="58.2565" type="line"/>
      <point x="1364.61" y="30.8936"/>
      <point x="1343.43" y="3.5307" type="qcurve"/>
      <point x="1271.05" y="-82.9714"/>
      <point x="1150.12" y="-82.9714" type="qcurve" smooth="yes"/>
      <point x="1046.85" y="-82.9714"/>
      <point x="972.707" y="-12.3574" type="qcurve"/>
      <point x="826.183" y="-81.206"/>
      <point x="624.051" y="-81.206" type="qcurve" smooth="yes"/>
      <point x="464.287" y="-81.206"/>
      <point x="346.891" y="-36.1896" type="qcurve" smooth="yes"/>
      <point x="180.948" y="25.5975"/>
      <point x="180.948" y="155.351" type="qcurve" smooth="yes"/>
      <point x="180.948" y="262.154"/>
      <point x="368.958" y="334.533" type="qcurve" smooth="yes"/>
      <point x="541.962" y="399.851"/>
      <point x="715.849" y="466.052" type="qcurve"/>
      <point x="903.858" y="562.263"/>
      <point x="903.858" y="722.91" type="qcurve" smooth="yes"/>
      <point x="903.858" y="824.418" type="line"/>
      <point x="343.36" y="824.418" type="line"/>
      <point x="343.36" y="719.379"/>
      <point x="341.595" y="707.022" type="qcurve"/>
      <point x="327.472" y="641.704"/>
      <point x="262.154" y="641.704" type="qcurve" smooth="yes"/>
      <point x="180.948" y="641.704"/>
      <point x="180.948" y="722.91" type="qcurve" smooth="yes"/>
      <point x="180.948" y="905.624" type="line" smooth="yes"/>
      <point x="180.948" y="1081.28"/>
      <point x="448.398" y="1348.73"/>
      <point x="625.816" y="1348.73" type="qcurve" smooth="yes"/>
      <point x="800.585" y="1348.73"/>
      <point x="1066.27" y="1081.28"/>
      <point x="1066.27" y="905.624" type="qcurve" smooth="yes"/>
      <point x="1066.27" y="722.91" type="line" smooth="yes"/>
      <point x="1066.27" y="576.386"/>
      <point x="963.88" y="453.694" type="qcurve" smooth="yes"/>
      <point x="869.434" y="341.595"/>
      <point x="724.675" y="285.986" type="qcurve"/>
      <point x="715.849" y="281.573"/>
      <point x="533.135" y="225.965" type="qcurve" smooth="yes"/>
      <point x="415.739" y="191.54"/>
      <point x="350.422" y="144.759" type="qcurve"/>
      <point x="377.784" y="113.865"/>
      <point x="479.292" y="96.2115" type="qcurve" smooth="yes"/>
      <point x="558.733" y="81.206"/>
      <point x="624.051" y="81.206" type="qcurve" smooth="yes"/>
      <point x="786.463" y="81.206"/>
      <point x="893.266" y="129.753" type="qcurve"/>
      <point x="889.735" y="153.585"/>
      <point x="889.735" y="177.417" type="qcurve" smooth="yes"/>
      <point x="889.735" y="285.986"/>
      <point x="1043.32" y="437.806"/>
      <point x="1150.12" y="437.806" type="qcurve" smooth="yes"/>
      <point x="1231.33" y="437.806"/>
      <point x="1231.33" y="355.718" type="qcurve" smooth="yes"/>
      <point x="1231.33" y="274.512"/>
      <point x="1150.12" y="274.512" type="qcurve" smooth="yes"/>
      <point x="1109.52" y="274.512"/>
      <point x="1052.15" y="217.138"/>
      <point x="1052.15" y="177.417" type="qcurve" smooth="yes"/>
      <point x="1052.15" y="137.697"/>
      <point x="1109.52" y="79.4407"/>
      <point x="1150.12" y="79.4407" type="qcurve" smooth="yes"/>
      <point x="1185.43" y="79.4407"/>
      <point x="1252.51" y="141.228"/>
      <point x="1281.64" y="141.228" type="qcurve" smooth="yes"/>
      <point x="1314.3" y="141.228"/>
      <point x="1364.61" y="90.0327"/>
      <point x="1364.61" y="58.2565" type="qcurve"/>
    </contour>
    <contour>
      <point x="891.501" y="986.83" type="line"/>
      <point x="862.372" y="1069.8"/>
      <point x="710.553" y="1185.43"/>
      <point x="625.816" y="1185.43" type="qcurve" smooth="yes"/>
      <point x="536.666" y="1185.43"/>
      <point x="384.846" y="1069.8"/>
      <point x="358.366" y="986.83" type="qcurve"/>
    </contour>
  </outline>
</glyph>
<glyph name="uniE01D" format="2">
  <advance width="1502"/>
  <unicode hex="E01D"/>
  <outline>
    <contour>
      <point x="1502.31" y="862.372" type="line"/>
      <point x="1502.31" y="835.01"/>
      <point x="1480.24" y="807.647" type="qcurve" smooth="yes"/>
      <point x="1409.63" y="722.91"/>
      <point x="1286.94" y="722.91" type="qcurve" smooth="yes"/>
      <point x="1142.18" y="722.91"/>
      <point x="1066.27" y="843.836" type="qcurve"/>
      <point x="1066.27" y="722.91" type="line" smooth="yes"/>
      <point x="1066.27" y="576.386"/>
      <point x="963.88" y="453.694" type="qcurve" smooth="yes"/>
      <point x="869.434" y="341.595"/>
      <point x="724.675" y="285.986" type="qcurve"/>
      <point x="714.083" y="281.573"/>
      <point x="533.135" y="225.965" type="qcurve"/>
      <point x="415.739" y="191.54"/>
      <point x="350.422" y="144.759" type="qcurve"/>
      <point x="377.784" y="113.865"/>
      <point x="479.292" y="96.2115" type="qcurve" smooth="yes"/>
      <point x="558.733" y="81.206"/>
      <point x="624.051" y="81.206" type="qcurve" smooth="yes"/>
      <point x="800.585" y="81.206"/>
      <point x="943.579" y="157.116" type="qcurve"/>
      <point x="967.411" y="167.708"/>
      <point x="986.83" y="167.708" type="qcurve" smooth="yes"/>
      <point x="1019.49" y="167.708"/>
      <point x="1068.04" y="117.396"/>
      <point x="1068.04" y="82.9714" type="qcurve" smooth="yes"/>
      <point x="1068.04" y="43.251"/>
      <point x="1026.55" y="15.8881" type="qcurve" smooth="yes"/>
      <point x="876.495" y="-81.206"/>
      <point x="624.051" y="-81.206" type="qcurve" smooth="yes"/>
      <point x="464.287" y="-81.206"/>
      <point x="346.891" y="-36.1896" type="qcurve" smooth="yes"/>
      <point x="180.948" y="25.5975"/>
      <point x="180.948" y="155.351" type="qcurve" smooth="yes"/>
      <point x="180.948" y="262.154"/>
      <point x="368.958" y="334.533" type="qcurve" smooth="yes"/>
      <point x="541.962" y="399.851"/>
      <point x="715.849" y="466.052" type="qcurve"/>
      <point x="903.858" y="562.263"/>
      <point x="903.858" y="722.91" type="qcurve" smooth="yes"/>
      <point x="903.858" y="824.418" type="line"/>
      <point x="343.36" y="824.418" type="line"/>
      <point x="343.36" y="719.379"/>
      <point x="341.595" y="707.022" type="qcurve"/>
      <point x="327.472" y="641.704"/>
      <point x="262.154" y="641.704" type="qcurve" smooth="yes"/>
      <point x="180.948" y="641.704"/>
      <point x="180.948" y="722.91" type="qcurve" smooth="yes"/>
      <point x="180.948" y="905.624" type="line" smooth="yes"/>
      <point x="180.948" y="1081.28"/>
      <point x="448.398" y="1348.73"/>
      <point x="625.816" y="1348.73" type="qcurve" smooth="yes"/>
      <point x="757.334" y="1348.73"/>
      <point x="988.595" y="1183.67"/>
      <point x="1038.02" y="1057.44" type="qcurve"/>
      <point x="1062.74" y="1138.65"/>
      <point x="1200.44" y="1241.92"/>
      <point x="1286.94" y="1241.92" type="qcurve" smooth="yes"/>
      <point x="1368.14" y="1241.92"/>
      <point x="1368.14" y="1160.72" type="qcurve" smooth="yes"/>
      <point x="1368.14" y="1079.51"/>
      <point x="1286.94" y="1079.51" type="qcurve" smooth="yes"/>
      <point x="1247.22" y="1079.51"/>
      <point x="1189.84" y="1023.02"/>
      <point x="1189.84" y="981.533" type="qcurve" smooth="yes"/>
      <point x="1189.84" y="941.813"/>
      <point x="1247.22" y="886.205"/>
      <point x="1286.94" y="886.205" type="qcurve" smooth="yes"/>
      <point x="1323.13" y="886.205"/>
      <point x="1390.21" y="945.344"/>
      <point x="1419.34" y="945.344" type="qcurve" smooth="yes"/>
      <point x="1452" y="945.344"/>
      <point x="1502.31" y="895.031"/>
      <point x="1502.31" y="862.372" type="qcurve"/>
    </contour>
    <contour>
      <point x="891.501" y="986.83" type="line"/>
      <point x="862.372" y="1069.8"/>
      <point x="710.553" y="1185.43"/>
      <point x="625.816" y="1185.43" type="qcurve" smooth="yes"/>
      <point x="536.666" y="1185.43"/>
      <point x="384.846" y="1069.8"/>
      <point x="358.366" y="986.83" type="qcurve"/>
    </contour>
  </outline>
</glyph>
<glyph name="uniE01E" format="2">
  <advance width="1463"/>
  <unicode hex="E01E"/>
  <outline>
    <contour>
      <point x="1462.59" y="82.9714" type="line"/>
      <point x="1462.59" y="32.6589"/>
      <point x="1364.61" y="-14.1228" type="qcurve" smooth="yes"/>
      <point x="1219.86" y="-81.206"/>
      <point x="1019.49" y="-81.206" type="qcurve" smooth="yes"/>
      <point x="860.607" y="-81.206"/>
      <point x="743.212" y="-36.1896" type="qcurve" smooth="yes"/>
      <point x="576.386" y="25.5975"/>
      <point x="576.386" y="155.351" type="qcurve" smooth="yes"/>
      <point x="576.386" y="262.154"/>
      <point x="764.396" y="334.533" type="qcurve" smooth="yes"/>
      <point x="938.282" y="399.851"/>
      <point x="1112.17" y="466.052" type="qcurve"/>
      <point x="1300.18" y="562.263"/>
      <point x="1300.18" y="722.91" type="qcurve" smooth="yes"/>
      <point x="1300.18" y="824.418" type="line"/>
      <point x="739.681" y="824.418" type="line"/>
      <point x="739.681" y="719.379"/>
      <point x="736.15" y="707.022" type="qcurve"/>
      <point x="722.91" y="641.704"/>
      <point x="657.592" y="641.704" type="qcurve" smooth="yes"/>
      <point x="593.157" y="641.704"/>
      <point x="578.151" y="707.022" type="qcurve"/>
      <point x="576.386" y="719.379"/>
      <point x="576.386" y="824.418" type="qcurve"/>
      <point x="441.337" y="824.418" type="line" smooth="yes"/>
      <point x="401.617" y="824.418"/>
      <point x="343.36" y="766.161"/>
      <point x="343.36" y="726.441" type="qcurve" smooth="yes"/>
      <point x="343.36" y="684.955"/>
      <point x="401.617" y="629.347"/>
      <point x="441.337" y="629.347" type="qcurve" smooth="yes"/>
      <point x="522.543" y="629.347"/>
      <point x="522.543" y="548.141" type="qcurve" smooth="yes"/>
      <point x="522.543" y="466.052"/>
      <point x="441.337" y="466.052" type="qcurve" smooth="yes"/>
      <point x="334.533" y="466.052"/>
      <point x="180.948" y="617.872"/>
      <point x="180.948" y="726.441" type="qcurve" smooth="yes"/>
      <point x="180.948" y="833.244"/>
      <point x="334.533" y="986.83"/>
      <point x="441.337" y="986.83" type="qcurve" smooth="yes"/>
      <point x="584.33" y="986.83" type="line"/>
      <point x="616.106" y="1138.65"/>
      <point x="865.903" y="1348.73"/>
      <point x="1019.49" y="1348.73" type="qcurve" smooth="yes"/>
      <point x="1196.91" y="1348.73"/>
      <point x="1462.59" y="1081.28"/>
      <point x="1462.59" y="905.624" type="qcurve" smooth="yes"/>
      <point x="1462.59" y="722.91" type="line" smooth="yes"/>
      <point x="1462.59" y="576.386"/>
      <point x="1359.32" y="453.694" type="qcurve" smooth="yes"/>
      <point x="1265.75" y="341.595"/>
      <point x="1121" y="285.986" type="qcurve" smooth="yes"/>
      <point x="1105.99" y="279.808"/>
      <point x="929.456" y="225.965" type="qcurve" smooth="yes"/>
      <point x="813.825" y="191.54"/>
      <point x="746.742" y="144.759" type="qcurve"/>
      <point x="777.636" y="113.865"/>
      <point x="874.73" y="96.2115" type="qcurve" smooth="yes"/>
      <point x="952.405" y="81.206"/>
      <point x="1019.49" y="81.206" type="qcurve" smooth="yes"/>
      <point x="1188.08" y="81.206"/>
      <point x="1339.9" y="157.116" type="qcurve"/>
      <point x="1364.61" y="167.708"/>
      <point x="1383.15" y="167.708" type="qcurve" smooth="yes"/>
      <point x="1415.81" y="167.708"/>
      <point x="1462.59" y="117.396"/>
      <point x="1462.59" y="82.9714" type="qcurve"/>
    </contour>
    <contour>
      <point x="1285.17" y="986.83" type="line"/>
      <point x="1256.05" y="1069.8"/>
      <point x="1107.76" y="1185.43"/>
      <point x="1021.25" y="1185.43" type="qcurve" smooth="yes"/>
      <point x="932.986" y="1185.43"/>
      <point x="782.932" y="1069.8"/>
      <point x="753.804" y="986.83" type="qcurve"/>
    </contour>
  </outline>
</glyph>
<glyph name="uniE01F" format="2">
  <advance width="1768"/>
  <unicode hex="E01F"/>
  <outline>
    <contour>
      <point x="1768" y="903.858" type="line"/>
      <point x="1768" y="813.825"/>
      <point x="1700.91" y="762.63" type="qcurve" smooth="yes"/>
      <point x="1641.77" y="717.614"/>
      <point x="1543.8" y="717.614" type="qcurve" smooth="yes"/>
      <point x="1455.53" y="717.614"/>
      <point x="1362.85" y="786.463" type="qcurve"/>
      <point x="1314.3" y="721.145"/>
      <point x="1285.17" y="662.005" type="qcurve" smooth="yes"/>
      <point x="1263.99" y="616.106"/>
      <point x="1214.56" y="616.106" type="qcurve" smooth="yes"/>
      <point x="1181.9" y="616.106"/>
      <point x="1129.82" y="662.005"/>
      <point x="1129.82" y="695.547" type="qcurve" smooth="yes"/>
      <point x="1129.82" y="728.206"/>
      <point x="1189.84" y="824.418" type="qcurve"/>
      <point x="1066.27" y="824.418" type="line"/>
      <point x="1066.27" y="722.91" type="line" smooth="yes"/>
      <point x="1066.27" y="571.09"/>
      <point x="957.701" y="446.633" type="qcurve" smooth="yes"/>
      <point x="864.138" y="339.829"/>
      <point x="726.441" y="285.986" type="qcurve"/>
      <point x="710.553" y="279.808"/>
      <point x="533.135" y="225.965" type="qcurve" smooth="yes"/>
      <point x="413.974" y="189.775"/>
      <point x="350.422" y="144.759" type="qcurve"/>
      <point x="376.019" y="113.865"/>
      <point x="481.057" y="96.2115" type="qcurve" smooth="yes"/>
      <point x="560.498" y="81.206"/>
      <point x="624.051" y="81.206" type="qcurve" smooth="yes"/>
      <point x="813.825" y="81.206"/>
      <point x="943.579" y="157.116" type="qcurve"/>
      <point x="965.645" y="167.708"/>
      <point x="986.83" y="167.708" type="qcurve" smooth="yes"/>
      <point x="1019.49" y="167.708"/>
      <point x="1068.04" y="117.396"/>
      <point x="1068.04" y="82.9714" type="qcurve" smooth="yes"/>
      <point x="1068.04" y="39.7203"/>
      <point x="1026.55" y="15.8881" type="qcurve" smooth="yes"/>
      <point x="858.842" y="-81.206"/>
      <point x="624.051" y="-81.206" type="qcurve" smooth="yes"/>
      <point x="467.817" y="-81.206"/>
      <point x="348.656" y="-37.955" type="qcurve" smooth="yes"/>
      <point x="180.948" y="25.5975"/>
      <point x="180.948" y="155.351" type="qcurve" smooth="yes"/>
      <point x="180.948" y="262.154"/>
      <point x="368.958" y="334.533" type="qcurve" smooth="yes"/>
      <point x="541.962" y="399.851"/>
      <point x="715.849" y="464.287" type="qcurve"/>
      <point x="903.858" y="560.498"/>
      <point x="903.858" y="722.91" type="qcurve" smooth="yes"/>
      <point x="903.858" y="824.418" type="line"/>
      <point x="343.36" y="824.418" type="line"/>
      <point x="343.36" y="722.91" type="line" smooth="yes"/>
      <point x="343.36" y="641.704"/>
      <point x="262.154" y="641.704" type="qcurve" smooth="yes"/>
      <point x="180.948" y="641.704"/>
      <point x="180.948" y="722.91" type="qcurve" smooth="yes"/>
      <point x="180.948" y="905.624" type="line" smooth="yes"/>
      <point x="180.948" y="1081.28"/>
      <point x="448.398" y="1348.73"/>
      <point x="625.816" y="1348.73" type="qcurve" smooth="yes"/>
      <point x="779.401" y="1348.73"/>
      <point x="1026.55" y="1136.88"/>
      <point x="1057.44" y="986.83" type="qcurve"/>
      <point x="1189.84" y="986.83" type="line"/>
      <point x="1129.82" y="1081.28"/>
      <point x="1129.82" y="1113.93" type="qcurve" smooth="yes"/>
      <point x="1129.82" y="1147.48"/>
      <point x="1181.9" y="1193.38"/>
      <point x="1214.56" y="1193.38" type="qcurve" smooth="yes"/>
      <point x="1263.99" y="1193.38"/>
      <point x="1285.17" y="1147.48" type="qcurve" smooth="yes"/>
      <point x="1314.3" y="1088.34"/>
      <point x="1362.85" y="1023.02" type="qcurve"/>
      <point x="1455.53" y="1091.87"/>
      <point x="1543.8" y="1091.87" type="qcurve" smooth="yes"/>
      <point x="1641.77" y="1091.87"/>
      <point x="1700.91" y="1046.85" type="qcurve" smooth="yes"/>
      <point x="1768" y="995.656"/>
      <point x="1768" y="903.858" type="qcurve"/>
    </contour>
    <contour>
      <point x="1605.58" y="903.858" type="line"/>
      <point x="1605.58" y="912.685"/>
      <point x="1603.82" y="916.216" type="qcurve"/>
      <point x="1583.52" y="929.456"/>
      <point x="1543.8" y="929.456" type="qcurve" smooth="yes"/>
      <point x="1512.9" y="929.456"/>
      <point x="1474.95" y="903.858" type="qcurve"/>
      <point x="1512.9" y="880.026"/>
      <point x="1543.8" y="880.026" type="qcurve" smooth="yes"/>
      <point x="1585.28" y="880.026"/>
      <point x="1602.05" y="891.501" type="qcurve"/>
      <point x="1605.58" y="896.797"/>
      <point x="1605.58" y="903.858" type="qcurve"/>
    </contour>
    <contour>
      <point x="889.735" y="986.83" type="line"/>
      <point x="860.607" y="1069.8"/>
      <point x="710.553" y="1185.43"/>
      <point x="625.816" y="1185.43" type="qcurve" smooth="yes"/>
      <point x="536.666" y="1185.43"/>
      <point x="386.611" y="1069.8"/>
      <point x="358.366" y="986.83" type="qcurve"/>
    </contour>
  </outline>
</glyph>
<glyph name="uniE021" format="2">
  <advance width="1606"/>
  <unicode hex="E021"/>
  <outline>
    <contour>
      <point x="851.501" y="986.83" type="line"/>
      <point x="822.372" y="1069.8"/>
      <point x="670.553" y="1185.43"/>
      <point x="585.816" y="1185.43" type="qcurve" smooth="yes"/>
      <point x="496.666" y="1185.43"/>
      <point x="344.846" y="1069.8"/>
      <point x="318.366" y="986.83" type="qcurve"/>
    </contour>
    <contour>
      <point x="1465.84" y="72.379" type="qcurve" smooth="yes"/>
      <point x="1465.84" y="-20.301"/>
      <point x="1321.08" y="-137.697"/>
      <point x="1227.52" y="-137.697" type="qcurve" smooth="yes"/>
      <point x="1156.3" y="-138.962"/>
      <point x="1102.18" y="-112.1" type="qcurve" smooth="yes"/>
      <point x="1035.34" y="-78.927"/>
      <point x="1035.98" y="-12.357" type="qcurve" smooth="yes"/>
      <point x="1035.98" y="61.787"/>
      <point x="1102.18" y="61.787" type="qcurve" smooth="yes"/>
      <point x="1124.25" y="61.787"/>
      <point x="1200.16" y="25.598"/>
      <point x="1227.52" y="25.598" type="qcurve" smooth="yes"/>
      <point x="1250.47" y="25.598"/>
      <point x="1303.43" y="50.312"/>
      <point x="1303.43" y="72.379" type="qcurve" smooth="yes"/>
      <point x="1303.43" y="86.502"/>
      <point x="1243.41" y="119.161"/>
      <point x="1227.52" y="119.161" type="qcurve" smooth="yes"/>
      <point x="1176.32" y="119.161"/>
      <point x="1120.72" y="148.289" type="qcurve"/>
      <point x="1037.74" y="37.955"/>
      <point x="877.981" y="-23.832" type="qcurve" smooth="yes"/>
      <point x="734.105" y="-81.206"/>
      <point x="584.051" y="-81.206" type="qcurve" smooth="yes"/>
      <point x="424.287" y="-81.206"/>
      <point x="306.891" y="-36.19" type="qcurve" smooth="yes"/>
      <point x="140.948" y="25.598"/>
      <point x="140.948" y="155.351" type="qcurve" smooth="yes"/>
      <point x="138.794" y="268.02"/>
      <point x="328.958" y="334.533" type="qcurve" smooth="yes"/>
      <point x="504.134" y="395.803"/>
      <point x="675.849" y="466.052" type="qcurve" smooth="yes"/>
      <point x="863.858" y="552.46"/>
      <point x="863.858" y="722.91" type="qcurve" smooth="yes"/>
      <point x="863.858" y="824.418" type="line"/>
      <point x="302.36" y="824.418" type="line"/>
      <point x="303.36" y="722.91" type="line" smooth="yes"/>
      <point x="304.165" y="641.239"/>
      <point x="222.154" y="641.704" type="qcurve" smooth="yes"/>
      <point x="140.948" y="641.235"/>
      <point x="140.948" y="722.91" type="qcurve" smooth="yes"/>
      <point x="140.948" y="905.624" type="line" smooth="yes"/>
      <point x="140.948" y="1081.28"/>
      <point x="408.398" y="1348.73"/>
      <point x="585.816" y="1348.73" type="qcurve" smooth="yes"/>
      <point x="760.585" y="1348.73"/>
      <point x="1026.27" y="1081.28"/>
      <point x="1026.27" y="905.624" type="qcurve" smooth="yes"/>
      <point x="1026.27" y="722.91" type="line" smooth="yes"/>
      <point x="1026.27" y="576.386"/>
      <point x="923.88" y="453.694" type="qcurve" smooth="yes"/>
      <point x="829.11" y="342.432"/>
      <point x="684.675" y="285.986" type="qcurve" smooth="yes"/>
      <point x="675.484" y="282.394"/>
      <point x="493.135" y="225.965" type="qcurve" smooth="yes"/>
      <point x="375.739" y="191.54"/>
      <point x="310.422" y="144.759" type="qcurve"/>
      <point x="337.784" y="113.865"/>
      <point x="439.292" y="96.212" type="qcurve" smooth="yes"/>
      <point x="518.733" y="81.206"/>
      <point x="584.051" y="81.206" type="qcurve" smooth="yes"/>
      <point x="697.915" y="81.206"/>
      <point x="817.076" y="126.222" type="qcurve" smooth="yes"/>
      <point x="952.126" y="179.183"/>
      <point x="1005.09" y="263.92" type="qcurve"/>
      <point x="990.08" y="294.813"/>
      <point x="990.08" y="331.003" type="qcurve" smooth="yes"/>
      <point x="990.08" y="421.035"/>
      <point x="1064.23" y="482.823" type="qcurve" smooth="yes"/>
      <point x="1133.07" y="540.196"/>
      <point x="1227.52" y="540.196" type="qcurve" smooth="yes"/>
      <point x="1402.29" y="540.196"/>
      <point x="1402.29" y="437.806" type="qcurve" smooth="yes"/>
      <point x="1402.29" y="405.147"/>
      <point x="1357.27" y="355.718"/>
      <point x="1326.38" y="355.718" type="qcurve" smooth="yes"/>
      <point x="1310.49" y="355.718"/>
      <point x="1252.23" y="377.784"/>
      <point x="1227.52" y="377.784" type="qcurve" smooth="yes"/>
      <point x="1203.44" y="378.293"/>
      <point x="1181.62" y="367.192" type="qcurve" smooth="yes"/>
      <point x="1153.12" y="352.691"/>
      <point x="1153.38" y="331.003" type="qcurve" smooth="yes"/>
      <point x="1153.38" y="315.997"/>
      <point x="1212.51" y="281.573"/>
      <point x="1227.52" y="281.573" type="qcurve" smooth="yes"/>
      <point x="1314.02" y="281.573"/>
      <point x="1465.84" y="157.116"/>
    </contour>
  </outline>
</glyph>
